<?xml version="1.0" encoding="utf-8"?>
<svg xmlns="http://www.w3.org/2000/svg" xmlns:xlink="http://www.w3.org/1999/xlink" width="600" height="400" viewBox="0 0 2400 1600">
<defs>
  <clipPath id="clip350">
    <rect x="0" y="0" width="2400" height="1600"/>
  </clipPath>
</defs>
<path clip-path="url(#clip350)" d="
M0 1600 L2400 1600 L2400 0 L0 0  Z
  " fill="#ffffff" fill-rule="evenodd" fill-opacity="1"/>
<defs>
  <clipPath id="clip351">
    <rect x="480" y="0" width="1681" height="1600"/>
  </clipPath>
</defs>
<path clip-path="url(#clip350)" d="
M447.244 1552.76 L1952.76 1552.76 L1952.76 47.2441 L447.244 47.2441  Z
  " fill="#ffffff" fill-rule="evenodd" fill-opacity="1"/>
<defs>
  <clipPath id="clip352">
    <rect x="447" y="47" width="1507" height="1507"/>
  </clipPath>
</defs>
<polyline clip-path="url(#clip352)" style="stroke:#000000; stroke-width:4; stroke-opacity:1; fill:none" points="
  1150.47,262.317 1150.38,270.516 1150.13,278.881 1149.74,287.4 1149.21,296.06 1148.55,304.85 1147.78,313.756 1146.9,322.767 1145.94,331.871 1144.9,341.054 
  1143.79,350.305 1142.63,359.611 1141.43,368.96 1140.2,378.341 1138.95,387.739 1137.7,397.144 1136.45,406.542 1135.21,415.923 1134.01,425.272 1132.85,434.578 
  1131.75,443.829 1130.71,453.013 1129.74,462.116 1128.87,471.127 1128.1,480.033 1127.44,488.823 1126.91,497.483 1126.51,506.002 1126.27,514.367 1126.18,522.566 
  
  "/>
<polyline clip-path="url(#clip352)" style="stroke:#000000; stroke-width:4; stroke-opacity:1; fill:none" points="
  1126.18,522.566 1126.49,527.607 1127.4,532.578 1128.87,537.484 1130.84,542.332 1133.27,547.124 1136.12,551.868 1139.35,556.568 1142.92,561.229 1146.76,565.857 
  1150.86,570.456 1155.15,575.032 1159.59,579.59 1164.15,584.135 1168.77,588.672 1173.41,593.207 1178.03,597.744 1182.59,602.289 1187.03,606.847 1191.32,611.423 
  1195.42,616.022 1199.26,620.65 1202.83,625.311 1206.05,630.011 1208.91,634.755 1211.34,639.548 1213.31,644.395 1214.78,649.302 1215.69,654.273 1216,659.314 
  
  "/>
<polyline clip-path="url(#clip352)" style="stroke:#000000; stroke-width:4; stroke-opacity:1; fill:none" points="
  1216,659.314 1215.96,667.658 1215.83,676.176 1215.63,684.857 1215.36,693.686 1215.03,702.651 1214.64,711.739 1214.2,720.938 1213.72,730.233 1213.19,739.613 
  1212.63,749.063 1212.05,758.572 1211.44,768.126 1210.82,777.713 1210.19,787.319 1209.56,796.931 1208.93,806.537 1208.31,816.124 1207.7,825.678 1207.12,835.187 
  1206.56,844.638 1206.03,854.017 1205.55,863.313 1205.11,872.511 1204.72,881.599 1204.39,890.564 1204.12,899.394 1203.92,908.074 1203.79,916.593 1203.75,924.937 
  
  "/>
<polyline clip-path="url(#clip352)" style="stroke:#000000; stroke-width:4; stroke-opacity:1; fill:none" points="
  1203.75,924.937 1204.17,931.01 1205.38,936.948 1207.33,942.759 1209.95,948.455 1213.2,954.045 1217,959.54 1221.3,964.949 1226.05,970.283 1231.17,975.551 
  1236.63,980.763 1242.34,985.931 1248.26,991.063 1254.33,996.17 1260.49,1001.26 1266.68,1006.35 1272.84,1011.44 1278.91,1016.55 1284.83,1021.68 1290.55,1026.85 
  1296,1032.06 1301.12,1037.33 1305.87,1042.66 1310.17,1048.07 1313.98,1053.57 1317.22,1059.16 1319.84,1064.85 1321.79,1070.66 1323,1076.6 1323.42,1082.67 
  
  "/>
<polyline clip-path="url(#clip352)" style="stroke:#000000; stroke-width:4; stroke-opacity:1; fill:none" points="
  1203.75,924.937 1203.36,930.147 1202.21,935.187 1200.38,940.07 1197.9,944.809 1194.84,949.415 1191.26,953.902 1187.2,958.282 1182.72,962.568 1177.88,966.772 
  1172.74,970.907 1167.35,974.985 1161.76,979.02 1156.04,983.022 1150.23,987.006 1144.39,990.984 1138.59,994.968 1132.86,998.971 1127.27,1003.01 1121.88,1007.08 
  1116.74,1011.22 1111.9,1015.42 1107.43,1019.71 1103.37,1024.09 1099.78,1028.58 1096.72,1033.18 1094.25,1037.92 1092.41,1042.8 1091.27,1047.84 1090.87,1053.05 
  
  "/>
<polyline clip-path="url(#clip352)" style="stroke:#000000; stroke-width:4; stroke-opacity:1; fill:none" points="
  1203.75,924.937 1203.79,931.588 1203.91,938.378 1204.09,945.297 1204.34,952.334 1204.64,959.479 1205,966.721 1205.41,974.051 1205.86,981.458 1206.34,988.932 
  1206.86,996.463 1207.4,1004.04 1207.96,1011.65 1208.53,1019.29 1209.11,1026.94 1209.69,1034.6 1210.28,1042.26 1210.85,1049.9 1211.41,1057.51 1211.95,1065.08 
  1212.46,1072.62 1212.95,1080.09 1213.4,1087.5 1213.8,1094.83 1214.16,1102.07 1214.47,1109.21 1214.72,1116.25 1214.9,1123.17 1215.01,1129.96 1215.05,1136.61 
  
  "/>
<polyline clip-path="url(#clip352)" style="stroke:#000000; stroke-width:4; stroke-opacity:1; fill:none" points="
  1203.75,924.937 1202.8,934.626 1200.03,943.672 1195.57,952.122 1189.57,960.023 1182.16,967.424 1173.47,974.371 1163.63,980.913 1152.78,987.097 1141.06,992.971 
  1128.6,998.583 1115.53,1003.98 1101.99,1009.21 1088.12,1014.32 1074.04,1019.36 1059.9,1024.38 1045.82,1029.42 1031.95,1034.53 1018.41,1039.76 1005.34,1045.16 
  992.88,1050.77 981.159,1056.64 970.312,1062.83 960.476,1069.37 951.783,1076.32 944.369,1083.72 938.368,1091.62 933.915,1100.07 931.144,1109.11 930.191,1118.8 
  
  "/>
<polyline clip-path="url(#clip352)" style="stroke:#000000; stroke-width:4; stroke-opacity:1; fill:none" points="
  930.191,1118.8 929.257,1124.33 926.544,1129.5 922.184,1134.32 916.308,1138.83 909.048,1143.06 900.536,1147.02 890.903,1150.76 880.282,1154.29 868.805,1157.64 
  856.602,1160.84 843.807,1163.92 830.55,1166.91 816.963,1169.83 803.179,1172.7 789.329,1175.57 775.545,1178.44 761.958,1181.36 748.701,1184.35 735.906,1187.43 
  723.703,1190.63 712.226,1193.99 701.605,1197.52 691.972,1201.25 683.46,1205.22 676.2,1209.44 670.324,1213.95 665.964,1218.77 663.251,1223.94 662.317,1229.47 
  
  "/>
<polyline clip-path="url(#clip352)" style="stroke:#000000; stroke-width:4; stroke-opacity:1; fill:none" points="
  930.191,1118.8 930.65,1126.69 931.984,1134.51 934.129,1142.26 937.019,1149.94 940.59,1157.57 944.777,1165.15 949.514,1172.68 954.738,1180.17 960.383,1187.63 
  966.385,1195.05 972.678,1202.45 979.199,1209.84 985.881,1217.2 992.661,1224.56 999.473,1231.92 1006.25,1239.28 1012.93,1246.65 1019.46,1254.03 1025.75,1261.43 
  1031.75,1268.86 1037.4,1276.31 1042.62,1283.8 1047.36,1291.33 1051.54,1298.91 1055.11,1306.54 1058,1314.23 1060.15,1321.98 1061.48,1329.79 1061.94,1337.68 
  
  "/>
<polyline clip-path="url(#clip352)" style="stroke:#000000; stroke-width:4; stroke-opacity:1; fill:none" points="
  930.191,1118.8 929.626,1125.01 927.985,1130.84 925.348,1136.31 921.794,1141.45 917.403,1146.3 912.254,1150.88 906.428,1155.21 900.004,1159.33 893.062,1163.27 
  885.681,1167.05 877.941,1170.7 869.923,1174.25 861.705,1177.73 853.368,1181.17 844.991,1184.6 836.653,1188.04 828.436,1191.52 820.417,1195.07 812.678,1198.72 
  805.297,1202.5 798.355,1206.44 791.931,1210.56 786.105,1214.9 780.956,1219.47 776.565,1224.32 773.011,1229.46 770.373,1234.93 768.733,1240.76 768.168,1246.97 
  
  "/>
<polyline clip-path="url(#clip352)" style="stroke:#000000; stroke-width:4; stroke-opacity:1; fill:none" points="
  930.191,1118.8 929.473,1127.36 927.388,1135.52 924.036,1143.3 919.518,1150.74 913.937,1157.87 907.393,1164.71 899.988,1171.29 891.824,1177.66 883,1183.82 
  873.619,1189.83 863.783,1195.7 853.591,1201.46 843.147,1207.15 832.55,1212.79 821.903,1218.42 811.306,1224.07 800.862,1229.76 790.671,1235.52 780.834,1241.39 
  771.453,1247.39 762.63,1253.56 754.465,1259.93 747.06,1266.51 740.516,1273.35 734.935,1280.48 730.418,1287.92 727.066,1295.7 724.98,1303.86 724.263,1312.42 
  
  "/>
<polyline clip-path="url(#clip352)" style="stroke:#000000; stroke-width:4; stroke-opacity:1; fill:none" points="
  930.191,1118.8 929.952,1125.25 929.257,1131.76 928.14,1138.33 926.636,1144.95 924.776,1151.61 922.597,1158.32 920.13,1165.06 917.41,1171.84 914.471,1178.64 
  911.346,1185.47 908.069,1192.32 904.674,1199.18 901.195,1206.06 897.665,1212.94 894.118,1219.83 890.588,1226.71 887.109,1233.58 883.714,1240.45 880.437,1247.3 
  877.312,1254.13 874.373,1260.93 871.653,1267.71 869.187,1274.45 867.007,1281.16 865.147,1287.82 863.643,1294.44 862.526,1301 861.831,1307.51 861.592,1313.97 
  
  "/>
<polyline clip-path="url(#clip352)" style="stroke:#000000; stroke-width:4; stroke-opacity:1; fill:none" points="
  930.191,1118.8 930.313,1125.22 930.667,1131.75 931.236,1138.39 932.002,1145.13 932.95,1151.96 934.06,1158.88 935.317,1165.86 936.703,1172.91 938.2,1180.01 
  939.792,1187.17 941.462,1194.36 943.192,1201.58 944.964,1208.82 946.763,1216.08 948.57,1223.34 950.369,1230.59 952.141,1237.84 953.871,1245.06 955.541,1252.25 
  957.133,1259.4 958.63,1266.51 960.016,1273.55 961.273,1280.54 962.384,1287.45 963.331,1294.28 964.097,1301.02 964.666,1307.66 965.02,1314.19 965.142,1320.61 
  
  "/>
<polyline clip-path="url(#clip352)" style="stroke:#000000; stroke-width:4; stroke-opacity:1; fill:none" points="
  1203.75,924.937 1204.78,930.879 1207.77,936.426 1212.58,941.607 1219.06,946.452 1227.07,950.991 1236.45,955.251 1247.08,959.263 1258.79,963.055 1271.45,966.657 
  1284.9,970.098 1299.01,973.408 1313.63,976.616 1328.61,979.75 1343.81,982.84 1359.09,985.916 1374.29,989.006 1389.27,992.141 1403.89,995.348 1418,998.658 
  1431.46,1002.1 1444.11,1005.7 1455.83,1009.49 1466.45,1013.51 1475.83,1017.77 1483.84,1022.3 1490.32,1027.15 1495.13,1032.33 1498.12,1037.88 1499.15,1043.82 
  
  "/>
<polyline clip-path="url(#clip352)" style="stroke:#000000; stroke-width:4; stroke-opacity:1; fill:none" points="
  1499.15,1043.82 1498.83,1053.37 1497.9,1063.04 1496.41,1072.8 1494.39,1082.66 1491.91,1092.6 1488.99,1102.62 1485.69,1112.71 1482.05,1122.87 1478.12,1133.07 
  1473.94,1143.32 1469.56,1153.6 1465.02,1163.92 1460.36,1174.25 1455.64,1184.6 1450.9,1194.95 1446.18,1205.29 1441.52,1215.63 1436.98,1225.94 1432.6,1236.22 
  1428.42,1246.47 1424.49,1256.68 1420.85,1266.83 1417.55,1276.92 1414.63,1286.94 1412.15,1296.88 1410.13,1306.74 1408.64,1316.51 1407.71,1326.17 1407.39,1335.72 
  
  "/>
<polyline clip-path="url(#clip352)" style="stroke:#000000; stroke-width:4; stroke-opacity:1; fill:none" points="
  1499.15,1043.82 1499.98,1054.31 1502.4,1064.38 1506.28,1074.09 1511.51,1083.44 1517.98,1092.48 1525.56,1101.23 1534.13,1109.72 1543.59,1117.99 1553.81,1126.06 
  1564.68,1133.97 1576.07,1141.73 1587.88,1149.4 1599.98,1156.99 1612.25,1164.53 1624.58,1172.06 1636.86,1179.6 1648.96,1187.19 1660.76,1194.85 1672.15,1202.62 
  1683.02,1210.53 1693.24,1218.6 1702.7,1226.87 1711.28,1235.36 1718.86,1244.11 1725.32,1253.15 1730.55,1262.5 1734.44,1272.2 1736.85,1282.28 1737.68,1292.77 
  
  "/>
<polyline clip-path="url(#clip352)" style="stroke:#000000; stroke-width:4; stroke-opacity:1; fill:none" points="
  1499.15,1043.82 1499.71,1053.23 1501.34,1062.53 1503.97,1071.73 1507.5,1080.85 1511.87,1089.89 1516.99,1098.85 1522.79,1107.75 1529.18,1116.59 1536.09,1125.38 
  1543.43,1134.13 1551.13,1142.84 1559.11,1151.53 1567.28,1160.2 1575.58,1168.86 1583.91,1177.51 1592.2,1186.16 1600.38,1194.83 1608.36,1203.52 1616.06,1212.23 
  1623.4,1220.98 1630.31,1229.77 1636.7,1238.61 1642.49,1247.51 1647.61,1256.48 1651.98,1265.51 1655.52,1274.63 1658.14,1283.84 1659.77,1293.14 1660.34,1302.54 
  
  "/>
<polyline clip-path="url(#clip352)" style="stroke:#000000; stroke-width:4; stroke-opacity:1; fill:none" points="
  1499.15,1043.82 1499.15,1051.64 1499.15,1059.62 1499.15,1067.76 1499.15,1076.04 1499.15,1084.45 1499.15,1092.97 1499.15,1101.6 1499.15,1110.32 1499.15,1119.12 
  1499.14,1127.99 1499.14,1136.91 1499.14,1145.88 1499.14,1154.87 1499.14,1163.89 1499.14,1172.91 1499.14,1181.92 1499.14,1190.92 1499.14,1199.88 1499.14,1208.81 
  1499.14,1217.67 1499.14,1226.47 1499.13,1235.19 1499.13,1243.82 1499.13,1252.35 1499.13,1260.75 1499.13,1269.03 1499.13,1277.17 1499.13,1285.15 1499.13,1292.97 
  
  "/>
<polyline clip-path="url(#clip352)" style="stroke:#000000; stroke-width:4; stroke-opacity:1; fill:none" points="
  1499.15,1043.82 1499.5,1051.44 1500.52,1059.08 1502.16,1066.74 1504.37,1074.41 1507.09,1082.1 1510.29,1089.8 1513.91,1097.51 1517.9,1105.24 1522.21,1112.97 
  1526.8,1120.72 1531.6,1128.46 1536.58,1136.22 1541.69,1143.98 1546.87,1151.74 1552.07,1159.5 1557.25,1167.25 1562.35,1175.01 1567.33,1182.77 1572.14,1190.51 
  1576.73,1198.26 1581.04,1205.99 1585.03,1213.72 1588.65,1221.43 1591.85,1229.13 1594.57,1236.82 1596.78,1244.5 1598.42,1252.15 1599.44,1259.79 1599.79,1267.41 
  
  "/>
<path clip-path="url(#clip352)" d="
M1169.11 262.317 L1159.79 246.169 L1141.14 246.169 L1131.82 262.317 L1141.14 278.465 L1159.79 278.465 L1169.11 262.317 L1169.11 262.317  Z
  " fill="#009af9" fill-rule="evenodd" fill-opacity="1"/>
<polyline clip-path="url(#clip352)" style="stroke:#000000; stroke-width:4; stroke-opacity:1; fill:none" points="
  1169.11,262.317 1159.79,246.169 1141.14,246.169 1131.82,262.317 1141.14,278.465 1159.79,278.465 1169.11,262.317 
  "/>
<path clip-path="url(#clip352)" d="
M1158.65 522.566 L1142.41 494.451 L1109.95 494.451 L1093.72 522.566 L1109.95 550.681 L1142.41 550.681 L1158.65 522.566 L1158.65 522.566  Z
  " fill="#009af9" fill-rule="evenodd" fill-opacity="1"/>
<polyline clip-path="url(#clip352)" style="stroke:#000000; stroke-width:4; stroke-opacity:1; fill:none" points="
  1158.65,522.566 1142.41,494.451 1109.95,494.451 1093.72,522.566 1109.95,550.681 1142.41,550.681 1158.65,522.566 
  "/>
<path clip-path="url(#clip352)" d="
M1239.47 659.314 L1227.73 638.987 L1204.26 638.987 L1192.53 659.314 L1204.26 679.64 L1227.73 679.64 L1239.47 659.314 L1239.47 659.314  Z
  " fill="#009af9" fill-rule="evenodd" fill-opacity="1"/>
<polyline clip-path="url(#clip352)" style="stroke:#000000; stroke-width:4; stroke-opacity:1; fill:none" points="
  1239.47,659.314 1227.73,638.987 1204.26,638.987 1192.53,659.314 1204.26,679.64 1227.73,679.64 1239.47,659.314 
  "/>
<path clip-path="url(#clip352)" d="
M1240.48 924.937 L1222.11 893.132 L1185.39 893.132 L1167.03 924.937 L1185.39 956.742 L1222.11 956.742 L1240.48 924.937 L1240.48 924.937  Z
  " fill="#009af9" fill-rule="evenodd" fill-opacity="1"/>
<polyline clip-path="url(#clip352)" style="stroke:#000000; stroke-width:4; stroke-opacity:1; fill:none" points="
  1240.48,924.937 1222.11,893.132 1185.39,893.132 1167.03,924.937 1185.39,956.742 1222.11,956.742 1240.48,924.937 
  "/>
<path clip-path="url(#clip352)" d="
M1346.89 1082.67 L1335.16 1062.35 L1311.68 1062.35 L1299.95 1082.67 L1311.68 1103 L1335.16 1103 L1346.89 1082.67 L1346.89 1082.67  Z
  " fill="#009af9" fill-rule="evenodd" fill-opacity="1"/>
<polyline clip-path="url(#clip352)" style="stroke:#000000; stroke-width:4; stroke-opacity:1; fill:none" points="
  1346.89,1082.67 1335.16,1062.35 1311.68,1062.35 1299.95,1082.67 1311.68,1103 1335.16,1103 1346.89,1082.67 
  "/>
<path clip-path="url(#clip352)" d="
M1151.13 1053.05 L1121 1000.87 L1060.74 1000.87 L1030.61 1053.05 L1060.74 1105.24 L1121 1105.24 L1151.13 1053.05 L1151.13 1053.05  Z
  " fill="#009af9" fill-rule="evenodd" fill-opacity="1"/>
<polyline clip-path="url(#clip352)" style="stroke:#000000; stroke-width:4; stroke-opacity:1; fill:none" points="
  1151.13,1053.05 1121,1000.87 1060.74,1000.87 1030.61,1053.05 1060.74,1105.24 1121,1105.24 1151.13,1053.05 
  "/>
<path clip-path="url(#clip352)" d="
M1275.31 1136.61 L1245.18 1084.42 L1184.92 1084.42 L1154.79 1136.61 L1184.92 1188.8 L1245.18 1188.8 L1275.31 1136.61 L1275.31 1136.61  Z
  " fill="#009af9" fill-rule="evenodd" fill-opacity="1"/>
<polyline clip-path="url(#clip352)" style="stroke:#000000; stroke-width:4; stroke-opacity:1; fill:none" points="
  1275.31,1136.61 1245.18,1084.42 1184.92,1084.42 1154.79,1136.61 1184.92,1188.8 1245.18,1188.8 1275.31,1136.61 
  "/>
<path clip-path="url(#clip352)" d="
M962.655 1118.8 L946.423 1090.69 L913.959 1090.69 L897.726 1118.8 L913.959 1146.92 L946.423 1146.92 L962.655 1118.8 L962.655 1118.8  Z
  " fill="#009af9" fill-rule="evenodd" fill-opacity="1"/>
<polyline clip-path="url(#clip352)" style="stroke:#000000; stroke-width:4; stroke-opacity:1; fill:none" points="
  962.655,1118.8 946.423,1090.69 913.959,1090.69 897.726,1118.8 913.959,1146.92 946.423,1146.92 962.655,1118.8 
  "/>
<path clip-path="url(#clip352)" d="
M694.782 1229.47 L678.549 1201.35 L646.085 1201.35 L629.853 1229.47 L646.085 1257.59 L678.549 1257.59 L694.782 1229.47 L694.782 1229.47  Z
  " fill="#009af9" fill-rule="evenodd" fill-opacity="1"/>
<polyline clip-path="url(#clip352)" style="stroke:#000000; stroke-width:4; stroke-opacity:1; fill:none" points="
  694.782,1229.47 678.549,1201.35 646.085,1201.35 629.853,1229.47 646.085,1257.59 678.549,1257.59 694.782,1229.47 
  "/>
<path clip-path="url(#clip352)" d="
M1094.41 1337.68 L1078.18 1309.57 L1045.71 1309.57 L1029.48 1337.68 L1045.71 1365.8 L1078.18 1365.8 L1094.41 1337.68 L1094.41 1337.68  Z
  " fill="#009af9" fill-rule="evenodd" fill-opacity="1"/>
<polyline clip-path="url(#clip352)" style="stroke:#000000; stroke-width:4; stroke-opacity:1; fill:none" points="
  1094.41,1337.68 1078.18,1309.57 1045.71,1309.57 1029.48,1337.68 1045.71,1365.8 1078.18,1365.8 1094.41,1337.68 
  "/>
<path clip-path="url(#clip352)" d="
M796.226 1246.97 L782.197 1222.67 L754.139 1222.67 L740.109 1246.97 L754.139 1271.27 L782.197 1271.27 L796.226 1246.97 L796.226 1246.97  Z
  " fill="#009af9" fill-rule="evenodd" fill-opacity="1"/>
<polyline clip-path="url(#clip352)" style="stroke:#000000; stroke-width:4; stroke-opacity:1; fill:none" points="
  796.226,1246.97 782.197,1222.67 754.139,1222.67 740.109,1246.97 754.139,1271.27 782.197,1271.27 796.226,1246.97 
  "/>
<path clip-path="url(#clip352)" d="
M752.321 1312.42 L738.292 1288.12 L710.233 1288.12 L696.204 1312.42 L710.233 1336.72 L738.292 1336.72 L752.321 1312.42 L752.321 1312.42  Z
  " fill="#009af9" fill-rule="evenodd" fill-opacity="1"/>
<polyline clip-path="url(#clip352)" style="stroke:#000000; stroke-width:4; stroke-opacity:1; fill:none" points="
  752.321,1312.42 738.292,1288.12 710.233,1288.12 696.204,1312.42 710.233,1336.72 738.292,1336.72 752.321,1312.42 
  "/>
<path clip-path="url(#clip352)" d="
M889.651 1313.97 L875.622 1289.67 L847.563 1289.67 L833.534 1313.97 L847.563 1338.26 L875.622 1338.26 L889.651 1313.97 L889.651 1313.97  Z
  " fill="#009af9" fill-rule="evenodd" fill-opacity="1"/>
<polyline clip-path="url(#clip352)" style="stroke:#000000; stroke-width:4; stroke-opacity:1; fill:none" points="
  889.651,1313.97 875.622,1289.67 847.563,1289.67 833.534,1313.97 847.563,1338.26 875.622,1338.26 889.651,1313.97 
  "/>
<path clip-path="url(#clip352)" d="
M988.613 1320.61 L976.878 1300.29 L953.407 1300.29 L941.671 1320.61 L953.407 1340.94 L976.878 1340.94 L988.613 1320.61 L988.613 1320.61  Z
  " fill="#009af9" fill-rule="evenodd" fill-opacity="1"/>
<polyline clip-path="url(#clip352)" style="stroke:#000000; stroke-width:4; stroke-opacity:1; fill:none" points="
  988.613,1320.61 976.878,1300.29 953.407,1300.29 941.671,1320.61 953.407,1340.94 976.878,1340.94 988.613,1320.61 
  "/>
<path clip-path="url(#clip352)" d="
M1540.02 1043.82 L1519.58 1008.43 L1478.72 1008.43 L1458.28 1043.82 L1478.72 1079.21 L1519.58 1079.21 L1540.02 1043.82 L1540.02 1043.82  Z
  " fill="#009af9" fill-rule="evenodd" fill-opacity="1"/>
<polyline clip-path="url(#clip352)" style="stroke:#000000; stroke-width:4; stroke-opacity:1; fill:none" points="
  1540.02,1043.82 1519.58,1008.43 1478.72,1008.43 1458.28,1043.82 1478.72,1079.21 1519.58,1079.21 1540.02,1043.82 
  "/>
<path clip-path="url(#clip352)" d="
M1444.12 1335.72 L1425.75 1303.92 L1389.03 1303.92 L1370.67 1335.72 L1389.03 1367.53 L1425.75 1367.53 L1444.12 1335.72 L1444.12 1335.72  Z
  " fill="#009af9" fill-rule="evenodd" fill-opacity="1"/>
<polyline clip-path="url(#clip352)" style="stroke:#000000; stroke-width:4; stroke-opacity:1; fill:none" points="
  1444.12,1335.72 1425.75,1303.92 1389.03,1303.92 1370.67,1335.72 1389.03,1367.53 1425.75,1367.53 1444.12,1335.72 
  "/>
<path clip-path="url(#clip352)" d="
M1770.15 1292.77 L1753.92 1264.65 L1721.45 1264.65 L1705.22 1292.77 L1721.45 1320.88 L1753.92 1320.88 L1770.15 1292.77 L1770.15 1292.77  Z
  " fill="#009af9" fill-rule="evenodd" fill-opacity="1"/>
<polyline clip-path="url(#clip352)" style="stroke:#000000; stroke-width:4; stroke-opacity:1; fill:none" points="
  1770.15,1292.77 1753.92,1264.65 1721.45,1264.65 1705.22,1292.77 1721.45,1320.88 1753.92,1320.88 1770.15,1292.77 
  "/>
<path clip-path="url(#clip352)" d="
M1692.8 1302.54 L1676.57 1274.43 L1644.1 1274.43 L1627.87 1302.54 L1644.1 1330.66 L1676.57 1330.66 L1692.8 1302.54 L1692.8 1302.54  Z
  " fill="#009af9" fill-rule="evenodd" fill-opacity="1"/>
<polyline clip-path="url(#clip352)" style="stroke:#000000; stroke-width:4; stroke-opacity:1; fill:none" points="
  1692.8,1302.54 1676.57,1274.43 1644.1,1274.43 1627.87,1302.54 1644.1,1330.66 1676.57,1330.66 1692.8,1302.54 
  "/>
<path clip-path="url(#clip352)" d="
M1531.6 1292.97 L1515.36 1264.86 L1482.9 1264.86 L1466.67 1292.97 L1482.9 1321.09 L1515.36 1321.09 L1531.6 1292.97 L1531.6 1292.97  Z
  " fill="#009af9" fill-rule="evenodd" fill-opacity="1"/>
<polyline clip-path="url(#clip352)" style="stroke:#000000; stroke-width:4; stroke-opacity:1; fill:none" points="
  1531.6,1292.97 1515.36,1264.86 1482.9,1264.86 1466.67,1292.97 1482.9,1321.09 1515.36,1321.09 1531.6,1292.97 
  "/>
<path clip-path="url(#clip352)" d="
M1627.85 1267.41 L1613.82 1243.11 L1585.76 1243.11 L1571.73 1267.41 L1585.76 1291.71 L1613.82 1291.71 L1627.85 1267.41 L1627.85 1267.41  Z
  " fill="#009af9" fill-rule="evenodd" fill-opacity="1"/>
<polyline clip-path="url(#clip352)" style="stroke:#000000; stroke-width:4; stroke-opacity:1; fill:none" points="
  1627.85,1267.41 1613.82,1243.11 1585.76,1243.11 1571.73,1267.41 1585.76,1291.71 1613.82,1291.71 1627.85,1267.41 
  "/>
<circle clip-path="url(#clip352)" style="fill:#009af9; stroke:none; fill-opacity:1" cx="1150.47" cy="262.317" r="2"/>
<circle clip-path="url(#clip352)" style="fill:#009af9; stroke:none; fill-opacity:1" cx="1126.18" cy="522.566" r="2"/>
<circle clip-path="url(#clip352)" style="fill:#009af9; stroke:none; fill-opacity:1" cx="1216" cy="659.314" r="2"/>
<circle clip-path="url(#clip352)" style="fill:#009af9; stroke:none; fill-opacity:1" cx="1203.75" cy="924.937" r="2"/>
<circle clip-path="url(#clip352)" style="fill:#009af9; stroke:none; fill-opacity:1" cx="1323.42" cy="1082.67" r="2"/>
<circle clip-path="url(#clip352)" style="fill:#009af9; stroke:none; fill-opacity:1" cx="1090.87" cy="1053.05" r="2"/>
<circle clip-path="url(#clip352)" style="fill:#009af9; stroke:none; fill-opacity:1" cx="1215.05" cy="1136.61" r="2"/>
<circle clip-path="url(#clip352)" style="fill:#009af9; stroke:none; fill-opacity:1" cx="930.191" cy="1118.8" r="2"/>
<circle clip-path="url(#clip352)" style="fill:#009af9; stroke:none; fill-opacity:1" cx="662.317" cy="1229.47" r="2"/>
<circle clip-path="url(#clip352)" style="fill:#009af9; stroke:none; fill-opacity:1" cx="1061.94" cy="1337.68" r="2"/>
<circle clip-path="url(#clip352)" style="fill:#009af9; stroke:none; fill-opacity:1" cx="768.168" cy="1246.97" r="2"/>
<circle clip-path="url(#clip352)" style="fill:#009af9; stroke:none; fill-opacity:1" cx="724.263" cy="1312.42" r="2"/>
<circle clip-path="url(#clip352)" style="fill:#009af9; stroke:none; fill-opacity:1" cx="861.592" cy="1313.97" r="2"/>
<circle clip-path="url(#clip352)" style="fill:#009af9; stroke:none; fill-opacity:1" cx="965.142" cy="1320.61" r="2"/>
<circle clip-path="url(#clip352)" style="fill:#009af9; stroke:none; fill-opacity:1" cx="1499.15" cy="1043.82" r="2"/>
<circle clip-path="url(#clip352)" style="fill:#009af9; stroke:none; fill-opacity:1" cx="1407.39" cy="1335.72" r="2"/>
<circle clip-path="url(#clip352)" style="fill:#009af9; stroke:none; fill-opacity:1" cx="1737.68" cy="1292.77" r="2"/>
<circle clip-path="url(#clip352)" style="fill:#009af9; stroke:none; fill-opacity:1" cx="1660.34" cy="1302.54" r="2"/>
<circle clip-path="url(#clip352)" style="fill:#009af9; stroke:none; fill-opacity:1" cx="1499.13" cy="1292.97" r="2"/>
<circle clip-path="url(#clip352)" style="fill:#009af9; stroke:none; fill-opacity:1" cx="1599.79" cy="1267.41" r="2"/>
<path clip-path="url(#clip350)" d="M 0 0 M1137.3 255.98 L1134.13 264.58 L1140.48 264.58 L1137.3 255.98 M1135.98 253.677 L1138.63 253.677 L1145.22 270.957 L1142.79 270.957 L1141.21 266.524 L1133.42 266.524 L1131.85 270.957 L1129.38 270.957 L1135.98 253.677 Z" fill="#000000" fill-rule="evenodd" fill-opacity="1" /><path clip-path="url(#clip350)" d="M 0 0 M1158.23 263.133 L1158.23 270.957 L1156.1 270.957 L1156.1 263.203 Q1156.1 261.362 1155.38 260.448 Q1154.66 259.534 1153.23 259.534 Q1151.5 259.534 1150.51 260.633 Q1149.51 261.733 1149.51 263.631 L1149.51 270.957 L1147.37 270.957 L1147.37 257.994 L1149.51 257.994 L1149.51 260.008 Q1150.27 258.839 1151.3 258.261 Q1152.35 257.682 1153.7 257.682 Q1155.93 257.682 1157.08 259.071 Q1158.23 260.448 1158.23 263.133 Z" fill="#000000" fill-rule="evenodd" fill-opacity="1" /><path clip-path="url(#clip350)" d="M 0 0 M1165.85 272.161 Q1164.95 274.476 1164.09 275.182 Q1163.24 275.888 1161.8 275.888 L1160.1 275.888 L1160.1 274.105 L1161.35 274.105 Q1162.23 274.105 1162.72 273.689 Q1163.2 273.272 1163.79 271.721 L1164.17 270.749 L1158.93 257.994 L1161.19 257.994 L1165.24 268.133 L1169.29 257.994 L1171.55 257.994 L1165.85 272.161 Z" fill="#000000" fill-rule="evenodd" fill-opacity="1" /><path clip-path="url(#clip350)" d="M 0 0 M1084.26 513.926 L1087.41 513.926 L1095.07 528.382 L1095.07 513.926 L1097.34 513.926 L1097.34 531.206 L1094.19 531.206 L1086.53 516.75 L1086.53 531.206 L1084.26 531.206 L1084.26 513.926 Z" fill="#000000" fill-rule="evenodd" fill-opacity="1" /><path clip-path="url(#clip350)" d="M 0 0 M1099.35 526.09 L1099.35 518.243 L1101.48 518.243 L1101.48 526.009 Q1101.48 527.849 1102.2 528.775 Q1102.92 529.69 1104.35 529.69 Q1106.08 529.69 1107.07 528.59 Q1108.08 527.491 1108.08 525.592 L1108.08 518.243 L1110.21 518.243 L1110.21 531.206 L1108.08 531.206 L1108.08 529.215 Q1107.3 530.396 1106.27 530.974 Q1105.26 531.542 1103.9 531.542 Q1101.67 531.542 1100.51 530.153 Q1099.35 528.764 1099.35 526.09 M1104.71 517.93 L1104.71 517.93 Z" fill="#000000" fill-rule="evenodd" fill-opacity="1" /><path clip-path="url(#clip350)" d="M 0 0 M1122.54 520.731 Q1123.33 519.296 1124.45 518.613 Q1125.56 517.93 1127.06 517.93 Q1129.09 517.93 1130.19 519.354 Q1131.29 520.766 1131.29 523.382 L1131.29 531.206 L1129.14 531.206 L1129.14 523.451 Q1129.14 521.588 1128.48 520.685 Q1127.82 519.782 1126.47 519.782 Q1124.82 519.782 1123.85 520.882 Q1122.89 521.981 1122.89 523.88 L1122.89 531.206 L1120.75 531.206 L1120.75 523.451 Q1120.75 521.576 1120.09 520.685 Q1119.43 519.782 1118.06 519.782 Q1116.42 519.782 1115.46 520.893 Q1114.5 521.993 1114.5 523.88 L1114.5 531.206 L1112.36 531.206 L1112.36 518.243 L1114.5 518.243 L1114.5 520.257 Q1115.23 519.065 1116.25 518.498 Q1117.27 517.93 1118.67 517.93 Q1120.08 517.93 1121.07 518.648 Q1122.06 519.366 1122.54 520.731 Z" fill="#000000" fill-rule="evenodd" fill-opacity="1" /><path clip-path="url(#clip350)" d="M 0 0 M1142.82 524.736 Q1142.82 522.386 1141.85 521.055 Q1140.89 519.713 1139.2 519.713 Q1137.51 519.713 1136.54 521.055 Q1135.58 522.386 1135.58 524.736 Q1135.58 527.086 1136.54 528.428 Q1137.51 529.759 1139.2 529.759 Q1140.89 529.759 1141.85 528.428 Q1142.82 527.086 1142.82 524.736 M1135.58 520.211 Q1136.25 519.053 1137.27 518.498 Q1138.3 517.93 1139.72 517.93 Q1142.08 517.93 1143.55 519.805 Q1145.04 521.68 1145.04 524.736 Q1145.04 527.792 1143.55 529.667 Q1142.08 531.542 1139.72 531.542 Q1138.3 531.542 1137.27 530.986 Q1136.25 530.419 1135.58 529.261 L1135.58 531.206 L1133.44 531.206 L1133.44 513.197 L1135.58 513.197 L1135.58 520.211 Z" fill="#000000" fill-rule="evenodd" fill-opacity="1" /><path clip-path="url(#clip350)" d="M 0 0 M1158.36 524.192 L1158.36 525.234 L1148.57 525.234 Q1148.7 527.433 1149.88 528.59 Q1151.08 529.736 1153.2 529.736 Q1154.42 529.736 1155.57 529.435 Q1156.73 529.134 1157.86 528.532 L1157.86 530.546 Q1156.71 531.032 1155.51 531.287 Q1154.31 531.542 1153.07 531.542 Q1149.97 531.542 1148.15 529.736 Q1146.34 527.93 1146.34 524.852 Q1146.34 521.669 1148.06 519.805 Q1149.78 517.93 1152.7 517.93 Q1155.31 517.93 1156.83 519.62 Q1158.36 521.299 1158.36 524.192 M1156.23 523.567 Q1156.2 521.819 1155.24 520.778 Q1154.29 519.736 1152.72 519.736 Q1150.94 519.736 1149.86 520.743 Q1148.8 521.75 1148.63 523.579 L1156.23 523.567 Z" fill="#000000" fill-rule="evenodd" fill-opacity="1" /><path clip-path="url(#clip350)" d="M 0 0 M1168.1 520.234 Q1167.74 520.025 1167.32 519.933 Q1166.9 519.829 1166.39 519.829 Q1164.58 519.829 1163.61 521.009 Q1162.65 522.178 1162.65 524.377 L1162.65 531.206 L1160.51 531.206 L1160.51 518.243 L1162.65 518.243 L1162.65 520.257 Q1163.32 519.076 1164.4 518.509 Q1165.48 517.93 1167.01 517.93 Q1167.23 517.93 1167.5 517.965 Q1167.77 517.988 1168.09 518.046 L1168.1 520.234 Z" fill="#000000" fill-rule="evenodd" fill-opacity="1" /><path clip-path="url(#clip350)" d="M 0 0 M1202.97 659.852 Q1203.72 660.106 1204.42 660.94 Q1205.14 661.773 1205.86 663.231 L1208.23 667.954 L1205.72 667.954 L1203.51 663.521 Q1202.65 661.785 1201.84 661.218 Q1201.04 660.65 1199.66 660.65 L1197.11 660.65 L1197.11 667.954 L1194.77 667.954 L1194.77 650.674 L1200.05 650.674 Q1203.01 650.674 1204.47 651.912 Q1205.93 653.15 1205.93 655.65 Q1205.93 657.282 1205.16 658.359 Q1204.41 659.435 1202.97 659.852 M1197.11 652.595 L1197.11 658.729 L1200.05 658.729 Q1201.74 658.729 1202.6 657.954 Q1203.46 657.167 1203.46 655.65 Q1203.46 654.134 1202.6 653.37 Q1201.74 652.595 1200.05 652.595 L1197.11 652.595 Z" fill="#000000" fill-rule="evenodd" fill-opacity="1" /><path clip-path="url(#clip350)" d="M 0 0 M1220.49 660.94 L1220.49 661.981 L1210.7 661.981 Q1210.84 664.18 1212.02 665.338 Q1213.21 666.484 1215.33 666.484 Q1216.55 666.484 1217.7 666.183 Q1218.86 665.882 1219.99 665.28 L1219.99 667.294 Q1218.85 667.78 1217.64 668.035 Q1216.44 668.289 1215.2 668.289 Q1212.1 668.289 1210.28 666.484 Q1208.48 664.678 1208.48 661.599 Q1208.48 658.417 1210.19 656.553 Q1211.91 654.678 1214.83 654.678 Q1217.44 654.678 1218.96 656.368 Q1220.49 658.046 1220.49 660.94 M1218.36 660.315 Q1218.34 658.567 1217.38 657.525 Q1216.43 656.484 1214.85 656.484 Q1213.07 656.484 1211.99 657.491 Q1210.93 658.498 1210.77 660.326 L1218.36 660.315 Z" fill="#000000" fill-rule="evenodd" fill-opacity="1" /><path clip-path="url(#clip350)" d="M 0 0 M1228.61 661.437 Q1226.03 661.437 1225.04 662.028 Q1224.04 662.618 1224.04 664.042 Q1224.04 665.176 1224.78 665.847 Q1225.54 666.507 1226.82 666.507 Q1228.59 666.507 1229.66 665.257 Q1230.73 663.995 1230.73 661.912 L1230.73 661.437 L1228.61 661.437 M1232.86 660.558 L1232.86 667.954 L1230.73 667.954 L1230.73 665.986 Q1230 667.167 1228.91 667.734 Q1227.83 668.289 1226.25 668.289 Q1224.26 668.289 1223.08 667.178 Q1221.91 666.055 1221.91 664.18 Q1221.91 661.993 1223.37 660.882 Q1224.84 659.771 1227.75 659.771 L1230.73 659.771 L1230.73 659.562 Q1230.73 658.093 1229.76 657.294 Q1228.8 656.484 1227.05 656.484 Q1225.94 656.484 1224.89 656.75 Q1223.83 657.016 1222.86 657.549 L1222.86 655.581 Q1224.03 655.13 1225.13 654.91 Q1226.23 654.678 1227.27 654.678 Q1230.08 654.678 1231.47 656.137 Q1232.86 657.595 1232.86 660.558 Z" fill="#000000" fill-rule="evenodd" fill-opacity="1" /><path clip-path="url(#clip350)" d="M 0 0 M1235.1 649.944 L1237.22 649.944 L1237.22 667.954 L1235.1 667.954 L1235.1 649.944 Z" fill="#000000" fill-rule="evenodd" fill-opacity="1" /><path clip-path="url(#clip350)" d="M 0 0 M1167.07 916.297 L1169.41 916.297 L1169.41 933.577 L1167.07 933.577 L1167.07 916.297 Z" fill="#000000" fill-rule="evenodd" fill-opacity="1" /><path clip-path="url(#clip350)" d="M 0 0 M1182.42 925.753 L1182.42 933.577 L1180.29 933.577 L1180.29 925.822 Q1180.29 923.982 1179.57 923.067 Q1178.86 922.153 1177.42 922.153 Q1175.7 922.153 1174.7 923.253 Q1173.71 924.352 1173.71 926.25 L1173.71 933.577 L1171.56 933.577 L1171.56 920.614 L1173.71 920.614 L1173.71 922.628 Q1174.47 921.459 1175.5 920.88 Q1176.54 920.301 1177.9 920.301 Q1180.13 920.301 1181.27 921.69 Q1182.42 923.067 1182.42 925.753 Z" fill="#000000" fill-rule="evenodd" fill-opacity="1" /><path clip-path="url(#clip350)" d="M 0 0 M1186.76 916.933 L1186.76 920.614 L1191.15 920.614 L1191.15 922.269 L1186.76 922.269 L1186.76 929.306 Q1186.76 930.892 1187.19 931.343 Q1187.63 931.794 1188.96 931.794 L1191.15 931.794 L1191.15 933.577 L1188.96 933.577 Q1186.49 933.577 1185.56 932.662 Q1184.62 931.736 1184.62 929.306 L1184.62 922.269 L1183.06 922.269 L1183.06 920.614 L1184.62 920.614 L1184.62 916.933 L1186.76 916.933 Z" fill="#000000" fill-rule="evenodd" fill-opacity="1" /><path clip-path="url(#clip350)" d="M 0 0 M1204.47 926.563 L1204.47 927.604 L1194.68 927.604 Q1194.82 929.804 1196 930.961 Q1197.19 932.107 1199.31 932.107 Q1200.53 932.107 1201.68 931.806 Q1202.84 931.505 1203.97 930.903 L1203.97 932.917 Q1202.83 933.403 1201.62 933.658 Q1200.42 933.912 1199.18 933.912 Q1196.08 933.912 1194.26 932.107 Q1192.46 930.301 1192.46 927.223 Q1192.46 924.04 1194.17 922.176 Q1195.89 920.301 1198.81 920.301 Q1201.43 920.301 1202.94 921.991 Q1204.47 923.669 1204.47 926.563 M1202.34 925.938 Q1202.32 924.19 1201.36 923.149 Q1200.41 922.107 1198.83 922.107 Q1197.05 922.107 1195.97 923.114 Q1194.91 924.121 1194.75 925.949 L1202.34 925.938 Z" fill="#000000" fill-rule="evenodd" fill-opacity="1" /><path clip-path="url(#clip350)" d="M 0 0 M1215.23 926.945 Q1215.23 924.63 1214.27 923.357 Q1213.32 922.084 1211.6 922.084 Q1209.89 922.084 1208.92 923.357 Q1207.98 924.63 1207.98 926.945 Q1207.98 929.248 1208.92 930.521 Q1209.89 931.794 1211.6 931.794 Q1213.32 931.794 1214.27 930.521 Q1215.23 929.248 1215.23 926.945 M1217.36 931.968 Q1217.36 935.278 1215.89 936.887 Q1214.42 938.507 1211.39 938.507 Q1210.27 938.507 1209.27 938.334 Q1208.28 938.172 1207.34 937.824 L1207.34 935.753 Q1208.28 936.262 1209.19 936.505 Q1210.11 936.748 1211.05 936.748 Q1213.15 936.748 1214.19 935.648 Q1215.23 934.56 1215.23 932.35 L1215.23 931.297 Q1214.57 932.442 1213.54 933.01 Q1212.51 933.577 1211.08 933.577 Q1208.69 933.577 1207.24 931.76 Q1205.78 929.942 1205.78 926.945 Q1205.78 923.936 1207.24 922.118 Q1208.69 920.301 1211.08 920.301 Q1212.51 920.301 1213.54 920.868 Q1214.57 921.436 1215.23 922.581 L1215.23 920.614 L1217.36 920.614 L1217.36 931.968 Z" fill="#000000" fill-rule="evenodd" fill-opacity="1" /><path clip-path="url(#clip350)" d="M 0 0 M1230.68 926.563 L1230.68 927.604 L1220.89 927.604 Q1221.03 929.804 1222.21 930.961 Q1223.4 932.107 1225.52 932.107 Q1226.75 932.107 1227.89 931.806 Q1229.05 931.505 1230.19 930.903 L1230.19 932.917 Q1229.04 933.403 1227.84 933.658 Q1226.63 933.912 1225.39 933.912 Q1222.29 933.912 1220.48 932.107 Q1218.67 930.301 1218.67 927.223 Q1218.67 924.04 1220.38 922.176 Q1222.11 920.301 1225.02 920.301 Q1227.64 920.301 1229.16 921.991 Q1230.68 923.669 1230.68 926.563 M1228.55 925.938 Q1228.53 924.19 1227.57 923.149 Q1226.62 922.107 1225.05 922.107 Q1223.27 922.107 1222.19 923.114 Q1221.12 924.121 1220.96 925.949 L1228.55 925.938 Z" fill="#000000" fill-rule="evenodd" fill-opacity="1" /><path clip-path="url(#clip350)" d="M 0 0 M1240.43 922.605 Q1240.07 922.396 1239.64 922.304 Q1239.23 922.199 1238.72 922.199 Q1236.91 922.199 1235.94 923.38 Q1234.98 924.549 1234.98 926.748 L1234.98 933.577 L1232.84 933.577 L1232.84 920.614 L1234.98 920.614 L1234.98 922.628 Q1235.65 921.447 1236.73 920.88 Q1237.8 920.301 1239.34 920.301 Q1239.56 920.301 1239.83 920.336 Q1240.09 920.359 1240.42 920.417 L1240.43 922.605 Z" fill="#000000" fill-rule="evenodd" fill-opacity="1" /><path clip-path="url(#clip350)" d="M 0 0 M1304.24 1083.06 L1304.24 1089.39 L1307.99 1089.39 Q1309.88 1089.39 1310.78 1088.62 Q1311.7 1087.83 1311.7 1086.22 Q1311.7 1084.6 1310.78 1083.84 Q1309.88 1083.06 1307.99 1083.06 L1304.24 1083.06 M1304.24 1075.96 L1304.24 1081.16 L1307.7 1081.16 Q1309.42 1081.16 1310.25 1080.53 Q1311.09 1079.88 1311.09 1078.56 Q1311.09 1077.25 1310.25 1076.6 Q1309.42 1075.96 1307.7 1075.96 L1304.24 1075.96 M1301.9 1074.03 L1307.88 1074.03 Q1310.55 1074.03 1312 1075.15 Q1313.44 1076.26 1313.44 1078.31 Q1313.44 1079.89 1312.7 1080.83 Q1311.96 1081.77 1310.53 1082 Q1312.25 1082.37 1313.2 1083.55 Q1314.16 1084.72 1314.16 1086.48 Q1314.16 1088.79 1312.59 1090.05 Q1311.01 1091.31 1308.11 1091.31 L1301.9 1091.31 L1301.9 1074.03 Z" fill="#000000" fill-rule="evenodd" fill-opacity="1" /><path clip-path="url(#clip350)" d="M 0 0 M1321.42 1079.84 Q1319.71 1079.84 1318.71 1081.19 Q1317.71 1082.52 1317.71 1084.84 Q1317.71 1087.17 1318.7 1088.51 Q1319.69 1089.84 1321.42 1089.84 Q1323.12 1089.84 1324.12 1088.5 Q1325.11 1087.16 1325.11 1084.84 Q1325.11 1082.54 1324.12 1081.2 Q1323.12 1079.84 1321.42 1079.84 M1321.42 1078.04 Q1324.2 1078.04 1325.78 1079.84 Q1327.37 1081.65 1327.37 1084.84 Q1327.37 1088.03 1325.78 1089.84 Q1324.2 1091.65 1321.42 1091.65 Q1318.63 1091.65 1317.04 1089.84 Q1315.47 1088.03 1315.47 1084.84 Q1315.47 1081.65 1317.04 1079.84 Q1318.63 1078.04 1321.42 1078.04 Z" fill="#000000" fill-rule="evenodd" fill-opacity="1" /><path clip-path="url(#clip350)" d="M 0 0 M1334.62 1079.84 Q1332.91 1079.84 1331.92 1081.19 Q1330.92 1082.52 1330.92 1084.84 Q1330.92 1087.17 1331.9 1088.51 Q1332.9 1089.84 1334.62 1089.84 Q1336.33 1089.84 1337.32 1088.5 Q1338.32 1087.16 1338.32 1084.84 Q1338.32 1082.54 1337.32 1081.2 Q1336.33 1079.84 1334.62 1079.84 M1334.62 1078.04 Q1337.4 1078.04 1338.99 1079.84 Q1340.57 1081.65 1340.57 1084.84 Q1340.57 1088.03 1338.99 1089.84 Q1337.4 1091.65 1334.62 1091.65 Q1331.83 1091.65 1330.25 1089.84 Q1328.68 1088.03 1328.68 1084.84 Q1328.68 1081.65 1330.25 1079.84 Q1331.83 1078.04 1334.62 1078.04 Z" fill="#000000" fill-rule="evenodd" fill-opacity="1" /><path clip-path="url(#clip350)" d="M 0 0 M1342.81 1073.31 L1344.94 1073.31 L1344.94 1091.31 L1342.81 1091.31 L1342.81 1073.31 Z" fill="#000000" fill-rule="evenodd" fill-opacity="1" /><path clip-path="url(#clip350)" d="M 0 0 M1027.63 1046 Q1025.08 1046 1023.58 1047.9 Q1022.08 1049.8 1022.08 1053.07 Q1022.08 1056.34 1023.58 1058.23 Q1025.08 1060.13 1027.63 1060.13 Q1030.17 1060.13 1031.65 1058.23 Q1033.15 1056.34 1033.15 1053.07 Q1033.15 1049.8 1031.65 1047.9 Q1030.17 1046 1027.63 1046 M1027.63 1044.1 Q1031.26 1044.1 1033.44 1046.54 Q1035.61 1048.97 1035.61 1053.07 Q1035.61 1057.16 1033.44 1059.6 Q1031.26 1062.03 1027.63 1062.03 Q1023.98 1062.03 1021.79 1059.6 Q1019.62 1057.17 1019.62 1053.07 Q1019.62 1048.97 1021.79 1046.54 Q1023.98 1044.1 1027.63 1044.1 Z" fill="#000000" fill-rule="evenodd" fill-opacity="1" /><path clip-path="url(#clip350)" d="M 0 0 M1044.41 1043.68 L1044.41 1045.46 L1042.37 1045.46 Q1041.23 1045.46 1040.77 1045.92 Q1040.33 1046.38 1040.33 1047.59 L1040.33 1048.73 L1043.84 1048.73 L1043.84 1050.39 L1040.33 1050.39 L1040.33 1061.69 L1038.19 1061.69 L1038.19 1050.39 L1036.16 1050.39 L1036.16 1048.73 L1038.19 1048.73 L1038.19 1047.83 Q1038.19 1045.66 1039.2 1044.68 Q1040.21 1043.68 1042.39 1043.68 L1044.41 1043.68 Z" fill="#000000" fill-rule="evenodd" fill-opacity="1" /><path clip-path="url(#clip350)" d="M 0 0 M1053.2 1043.68 L1053.2 1045.46 L1051.17 1045.46 Q1050.02 1045.46 1049.57 1045.92 Q1049.13 1046.38 1049.13 1047.59 L1049.13 1048.73 L1052.64 1048.73 L1052.64 1050.39 L1049.13 1050.39 L1049.13 1061.69 L1046.99 1061.69 L1046.99 1050.39 L1044.95 1050.39 L1044.95 1048.73 L1046.99 1048.73 L1046.99 1047.83 Q1046.99 1045.66 1048 1044.68 Q1049 1043.68 1051.19 1043.68 L1053.2 1043.68 Z" fill="#000000" fill-rule="evenodd" fill-opacity="1" /><path clip-path="url(#clip350)" d="M 0 0 M1063.7 1049.11 L1063.7 1051.13 Q1062.8 1050.66 1061.83 1050.43 Q1060.86 1050.2 1059.81 1050.2 Q1058.23 1050.2 1057.43 1050.69 Q1056.64 1051.17 1056.64 1052.15 Q1056.64 1052.89 1057.21 1053.31 Q1057.78 1053.73 1059.49 1054.11 L1060.22 1054.27 Q1062.49 1054.76 1063.44 1055.65 Q1064.4 1056.53 1064.4 1058.12 Q1064.4 1059.92 1062.96 1060.98 Q1061.54 1062.03 1059.04 1062.03 Q1058 1062.03 1056.86 1061.82 Q1055.74 1061.62 1054.49 1061.22 L1054.49 1059.02 Q1055.67 1059.63 1056.82 1059.95 Q1057.96 1060.25 1059.08 1060.25 Q1060.59 1060.25 1061.4 1059.74 Q1062.21 1059.22 1062.21 1058.28 Q1062.21 1057.41 1061.62 1056.95 Q1061.04 1056.49 1059.06 1056.06 L1058.32 1055.88 Q1056.34 1055.47 1055.46 1054.61 Q1054.58 1053.74 1054.58 1052.24 Q1054.58 1050.41 1055.88 1049.41 Q1057.17 1048.42 1059.56 1048.42 Q1060.74 1048.42 1061.78 1048.59 Q1062.82 1048.77 1063.7 1049.11 Z" fill="#000000" fill-rule="evenodd" fill-opacity="1" /><path clip-path="url(#clip350)" d="M 0 0 M1077.72 1054.68 L1077.72 1055.72 L1067.93 1055.72 Q1068.07 1057.92 1069.25 1059.08 Q1070.44 1060.22 1072.56 1060.22 Q1073.78 1060.22 1074.93 1059.92 Q1076.09 1059.62 1077.22 1059.02 L1077.22 1061.03 Q1076.07 1061.52 1074.87 1061.77 Q1073.67 1062.03 1072.43 1062.03 Q1069.33 1062.03 1067.51 1060.22 Q1065.7 1058.42 1065.7 1055.34 Q1065.7 1052.16 1067.42 1050.29 Q1069.14 1048.42 1072.06 1048.42 Q1074.67 1048.42 1076.19 1050.11 Q1077.72 1051.79 1077.72 1054.68 M1075.59 1054.06 Q1075.57 1052.31 1074.6 1051.27 Q1073.66 1050.22 1072.08 1050.22 Q1070.3 1050.22 1069.22 1051.23 Q1068.16 1052.24 1068 1054.07 L1075.59 1054.06 Z" fill="#000000" fill-rule="evenodd" fill-opacity="1" /><path clip-path="url(#clip350)" d="M 0 0 M1082.06 1045.05 L1082.06 1048.73 L1086.45 1048.73 L1086.45 1050.39 L1082.06 1050.39 L1082.06 1057.42 Q1082.06 1059.01 1082.49 1059.46 Q1082.93 1059.91 1084.26 1059.91 L1086.45 1059.91 L1086.45 1061.69 L1084.26 1061.69 Q1081.79 1061.69 1080.85 1060.78 Q1079.92 1059.85 1079.92 1057.42 L1079.92 1050.39 L1078.35 1050.39 L1078.35 1048.73 L1079.92 1048.73 L1079.92 1045.05 L1082.06 1045.05 Z" fill="#000000" fill-rule="evenodd" fill-opacity="1" /><path clip-path="url(#clip350)" d="M 0 0 M1088.77 1044.41 L1091.11 1044.41 L1091.11 1061.69 L1088.77 1061.69 L1088.77 1044.41 Z" fill="#000000" fill-rule="evenodd" fill-opacity="1" /><path clip-path="url(#clip350)" d="M 0 0 M1104.12 1053.87 L1104.12 1061.69 L1101.99 1061.69 L1101.99 1053.94 Q1101.99 1052.1 1101.27 1051.18 Q1100.55 1050.27 1099.12 1050.27 Q1097.39 1050.27 1096.4 1051.37 Q1095.4 1052.47 1095.4 1054.37 L1095.4 1061.69 L1093.26 1061.69 L1093.26 1048.73 L1095.4 1048.73 L1095.4 1050.74 Q1096.17 1049.58 1097.2 1049 Q1098.24 1048.42 1099.59 1048.42 Q1101.83 1048.42 1102.97 1049.81 Q1104.12 1051.18 1104.12 1053.87 Z" fill="#000000" fill-rule="evenodd" fill-opacity="1" /><path clip-path="url(#clip350)" d="M 0 0 M1108.46 1045.05 L1108.46 1048.73 L1112.85 1048.73 L1112.85 1050.39 L1108.46 1050.39 L1108.46 1057.42 Q1108.46 1059.01 1108.89 1059.46 Q1109.33 1059.91 1110.66 1059.91 L1112.85 1059.91 L1112.85 1061.69 L1110.66 1061.69 Q1108.19 1061.69 1107.26 1060.78 Q1106.32 1059.85 1106.32 1057.42 L1106.32 1050.39 L1104.76 1050.39 L1104.76 1048.73 L1106.32 1048.73 L1106.32 1045.05 L1108.46 1045.05 Z" fill="#000000" fill-rule="evenodd" fill-opacity="1" /><path clip-path="url(#clip350)" d="M 0 0 M1126.17 1054.68 L1126.17 1055.72 L1116.38 1055.72 Q1116.51 1057.92 1117.7 1059.08 Q1118.89 1060.22 1121.01 1060.22 Q1122.23 1060.22 1123.38 1059.92 Q1124.54 1059.62 1125.67 1059.02 L1125.67 1061.03 Q1124.52 1061.52 1123.32 1061.77 Q1122.12 1062.03 1120.88 1062.03 Q1117.78 1062.03 1115.96 1060.22 Q1114.15 1058.42 1114.15 1055.34 Q1114.15 1052.16 1115.87 1050.29 Q1117.59 1048.42 1120.51 1048.42 Q1123.12 1048.42 1124.64 1050.11 Q1126.17 1051.79 1126.17 1054.68 M1124.04 1054.06 Q1124.01 1052.31 1123.05 1051.27 Q1122.1 1050.22 1120.53 1050.22 Q1118.75 1050.22 1117.67 1051.23 Q1116.61 1052.24 1116.45 1054.07 L1124.04 1054.06 Z" fill="#000000" fill-rule="evenodd" fill-opacity="1" /><path clip-path="url(#clip350)" d="M 0 0 M1136.93 1055.06 Q1136.93 1052.75 1135.97 1051.47 Q1135.02 1050.2 1133.3 1050.2 Q1131.58 1050.2 1130.62 1051.47 Q1129.67 1052.75 1129.67 1055.06 Q1129.67 1057.37 1130.62 1058.64 Q1131.58 1059.91 1133.3 1059.91 Q1135.02 1059.91 1135.97 1058.64 Q1136.93 1057.37 1136.93 1055.06 M1139.06 1060.09 Q1139.06 1063.4 1137.59 1065 Q1136.12 1066.62 1133.09 1066.62 Q1131.97 1066.62 1130.97 1066.45 Q1129.98 1066.29 1129.04 1065.94 L1129.04 1063.87 Q1129.98 1064.38 1130.89 1064.62 Q1131.8 1064.87 1132.75 1064.87 Q1134.85 1064.87 1135.89 1063.77 Q1136.93 1062.68 1136.93 1060.47 L1136.93 1059.41 Q1136.27 1060.56 1135.24 1061.13 Q1134.21 1061.69 1132.78 1061.69 Q1130.39 1061.69 1128.93 1059.88 Q1127.48 1058.06 1127.48 1055.06 Q1127.48 1052.05 1128.93 1050.24 Q1130.39 1048.42 1132.78 1048.42 Q1134.21 1048.42 1135.24 1048.99 Q1136.27 1049.55 1136.93 1050.7 L1136.93 1048.73 L1139.06 1048.73 L1139.06 1060.09 Z" fill="#000000" fill-rule="evenodd" fill-opacity="1" /><path clip-path="url(#clip350)" d="M 0 0 M1152.38 1054.68 L1152.38 1055.72 L1142.59 1055.72 Q1142.73 1057.92 1143.91 1059.08 Q1145.1 1060.22 1147.22 1060.22 Q1148.45 1060.22 1149.59 1059.92 Q1150.75 1059.62 1151.88 1059.02 L1151.88 1061.03 Q1150.74 1061.52 1149.54 1061.77 Q1148.33 1062.03 1147.09 1062.03 Q1143.99 1062.03 1142.17 1060.22 Q1140.37 1058.42 1140.37 1055.34 Q1140.37 1052.16 1142.08 1050.29 Q1143.81 1048.42 1146.72 1048.42 Q1149.34 1048.42 1150.85 1050.11 Q1152.38 1051.79 1152.38 1054.68 M1150.25 1054.06 Q1150.23 1052.31 1149.27 1051.27 Q1148.32 1050.22 1146.75 1050.22 Q1144.96 1050.22 1143.89 1051.23 Q1142.82 1052.24 1142.66 1054.07 L1150.25 1054.06 Z" fill="#000000" fill-rule="evenodd" fill-opacity="1" /><path clip-path="url(#clip350)" d="M 0 0 M1162.13 1050.72 Q1161.77 1050.51 1161.34 1050.42 Q1160.92 1050.32 1160.41 1050.32 Q1158.61 1050.32 1157.64 1051.5 Q1156.68 1052.67 1156.68 1054.87 L1156.68 1061.69 L1154.54 1061.69 L1154.54 1048.73 L1156.68 1048.73 L1156.68 1050.74 Q1157.35 1049.56 1158.42 1049 Q1159.5 1048.42 1161.04 1048.42 Q1161.26 1048.42 1161.53 1048.45 Q1161.79 1048.48 1162.12 1048.53 L1162.13 1050.72 Z" fill="#000000" fill-rule="evenodd" fill-opacity="1" /><path clip-path="url(#clip350)" d="M 0 0 M1151.81 1129.56 Q1149.26 1129.56 1147.76 1131.45 Q1146.26 1133.35 1146.26 1136.63 Q1146.26 1139.89 1147.76 1141.79 Q1149.26 1143.69 1151.81 1143.69 Q1154.35 1143.69 1155.83 1141.79 Q1157.33 1139.89 1157.33 1136.63 Q1157.33 1133.35 1155.83 1131.45 Q1154.35 1129.56 1151.81 1129.56 M1151.81 1127.66 Q1155.44 1127.66 1157.62 1130.1 Q1159.79 1132.53 1159.79 1136.63 Q1159.79 1140.71 1157.62 1143.16 Q1155.44 1145.59 1151.81 1145.59 Q1148.16 1145.59 1145.97 1143.16 Q1143.8 1140.73 1143.8 1136.63 Q1143.8 1132.53 1145.97 1130.1 Q1148.16 1127.66 1151.81 1127.66 Z" fill="#000000" fill-rule="evenodd" fill-opacity="1" /><path clip-path="url(#clip350)" d="M 0 0 M1168.59 1127.24 L1168.59 1129.01 L1166.55 1129.01 Q1165.41 1129.01 1164.95 1129.48 Q1164.51 1129.94 1164.51 1131.14 L1164.51 1132.29 L1168.02 1132.29 L1168.02 1133.94 L1164.51 1133.94 L1164.51 1145.25 L1162.37 1145.25 L1162.37 1133.94 L1160.34 1133.94 L1160.34 1132.29 L1162.37 1132.29 L1162.37 1131.38 Q1162.37 1129.22 1163.38 1128.24 Q1164.39 1127.24 1166.58 1127.24 L1168.59 1127.24 Z" fill="#000000" fill-rule="evenodd" fill-opacity="1" /><path clip-path="url(#clip350)" d="M 0 0 M1177.39 1127.24 L1177.39 1129.01 L1175.35 1129.01 Q1174.2 1129.01 1173.75 1129.48 Q1173.31 1129.94 1173.31 1131.14 L1173.31 1132.29 L1176.82 1132.29 L1176.82 1133.94 L1173.31 1133.94 L1173.31 1145.25 L1171.17 1145.25 L1171.17 1133.94 L1169.13 1133.94 L1169.13 1132.29 L1171.17 1132.29 L1171.17 1131.38 Q1171.17 1129.22 1172.18 1128.24 Q1173.18 1127.24 1175.37 1127.24 L1177.39 1127.24 Z" fill="#000000" fill-rule="evenodd" fill-opacity="1" /><path clip-path="url(#clip350)" d="M 0 0 M1187.88 1132.67 L1187.88 1134.68 Q1186.98 1134.22 1186.01 1133.99 Q1185.04 1133.76 1183.99 1133.76 Q1182.41 1133.76 1181.61 1134.24 Q1180.82 1134.73 1180.82 1135.7 Q1180.82 1136.44 1181.39 1136.87 Q1181.96 1137.29 1183.67 1137.67 L1184.4 1137.83 Q1186.67 1138.32 1187.62 1139.21 Q1188.58 1140.09 1188.58 1141.67 Q1188.58 1143.48 1187.14 1144.53 Q1185.72 1145.59 1183.22 1145.59 Q1182.18 1145.59 1181.04 1145.38 Q1179.92 1145.18 1178.67 1144.78 L1178.67 1142.58 Q1179.85 1143.19 1181 1143.5 Q1182.14 1143.8 1183.26 1143.8 Q1184.77 1143.8 1185.58 1143.29 Q1186.39 1142.77 1186.39 1141.84 Q1186.39 1140.97 1185.8 1140.51 Q1185.22 1140.04 1183.24 1139.61 L1182.5 1139.44 Q1180.52 1139.02 1179.64 1138.17 Q1178.76 1137.3 1178.76 1135.79 Q1178.76 1133.97 1180.06 1132.97 Q1181.36 1131.98 1183.74 1131.98 Q1184.92 1131.98 1185.96 1132.15 Q1187 1132.32 1187.88 1132.67 Z" fill="#000000" fill-rule="evenodd" fill-opacity="1" /><path clip-path="url(#clip350)" d="M 0 0 M1201.9 1138.24 L1201.9 1139.28 L1192.11 1139.28 Q1192.25 1141.48 1193.43 1142.63 Q1194.62 1143.78 1196.74 1143.78 Q1197.96 1143.78 1199.11 1143.48 Q1200.27 1143.18 1201.4 1142.58 L1201.4 1144.59 Q1200.26 1145.08 1199.05 1145.33 Q1197.85 1145.59 1196.61 1145.59 Q1193.51 1145.59 1191.69 1143.78 Q1189.89 1141.98 1189.89 1138.9 Q1189.89 1135.71 1191.6 1133.85 Q1193.32 1131.98 1196.24 1131.98 Q1198.86 1131.98 1200.37 1133.66 Q1201.9 1135.34 1201.9 1138.24 M1199.77 1137.61 Q1199.75 1135.86 1198.79 1134.82 Q1197.84 1133.78 1196.26 1133.78 Q1194.48 1133.78 1193.4 1134.79 Q1192.34 1135.79 1192.18 1137.62 L1199.77 1137.61 Z" fill="#000000" fill-rule="evenodd" fill-opacity="1" /><path clip-path="url(#clip350)" d="M 0 0 M1206.24 1128.61 L1206.24 1132.29 L1210.63 1132.29 L1210.63 1133.94 L1206.24 1133.94 L1206.24 1140.98 Q1206.24 1142.57 1206.67 1143.02 Q1207.11 1143.47 1208.44 1143.47 L1210.63 1143.47 L1210.63 1145.25 L1208.44 1145.25 Q1205.97 1145.25 1205.04 1144.34 Q1204.1 1143.41 1204.1 1140.98 L1204.1 1133.94 L1202.54 1133.94 L1202.54 1132.29 L1204.1 1132.29 L1204.1 1128.61 L1206.24 1128.61 Z" fill="#000000" fill-rule="evenodd" fill-opacity="1" /><path clip-path="url(#clip350)" d="M 0 0 M1212.95 1127.97 L1215.29 1127.97 L1215.29 1145.25 L1212.95 1145.25 L1212.95 1127.97 Z" fill="#000000" fill-rule="evenodd" fill-opacity="1" /><path clip-path="url(#clip350)" d="M 0 0 M1228.3 1137.43 L1228.3 1145.25 L1226.17 1145.25 L1226.17 1137.5 Q1226.17 1135.66 1225.45 1134.74 Q1224.73 1133.83 1223.3 1133.83 Q1221.57 1133.83 1220.58 1134.93 Q1219.58 1136.03 1219.58 1137.92 L1219.58 1145.25 L1217.44 1145.25 L1217.44 1132.29 L1219.58 1132.29 L1219.58 1134.3 Q1220.35 1133.13 1221.38 1132.55 Q1222.42 1131.98 1223.77 1131.98 Q1226.01 1131.98 1227.15 1133.36 Q1228.3 1134.74 1228.3 1137.43 Z" fill="#000000" fill-rule="evenodd" fill-opacity="1" /><path clip-path="url(#clip350)" d="M 0 0 M1232.64 1128.61 L1232.64 1132.29 L1237.03 1132.29 L1237.03 1133.94 L1232.64 1133.94 L1232.64 1140.98 Q1232.64 1142.57 1233.07 1143.02 Q1233.51 1143.47 1234.84 1143.47 L1237.03 1143.47 L1237.03 1145.25 L1234.84 1145.25 Q1232.37 1145.25 1231.44 1144.34 Q1230.5 1143.41 1230.5 1140.98 L1230.5 1133.94 L1228.94 1133.94 L1228.94 1132.29 L1230.5 1132.29 L1230.5 1128.61 L1232.64 1128.61 Z" fill="#000000" fill-rule="evenodd" fill-opacity="1" /><path clip-path="url(#clip350)" d="M 0 0 M1250.35 1138.24 L1250.35 1139.28 L1240.56 1139.28 Q1240.7 1141.48 1241.88 1142.63 Q1243.07 1143.78 1245.19 1143.78 Q1246.41 1143.78 1247.56 1143.48 Q1248.72 1143.18 1249.85 1142.58 L1249.85 1144.59 Q1248.7 1145.08 1247.5 1145.33 Q1246.3 1145.59 1245.06 1145.59 Q1241.96 1145.59 1240.14 1143.78 Q1238.33 1141.98 1238.33 1138.9 Q1238.33 1135.71 1240.05 1133.85 Q1241.77 1131.98 1244.69 1131.98 Q1247.3 1131.98 1248.82 1133.66 Q1250.35 1135.34 1250.35 1138.24 M1248.22 1137.61 Q1248.2 1135.86 1247.23 1134.82 Q1246.29 1133.78 1244.71 1133.78 Q1242.93 1133.78 1241.85 1134.79 Q1240.79 1135.79 1240.63 1137.62 L1248.22 1137.61 Z" fill="#000000" fill-rule="evenodd" fill-opacity="1" /><path clip-path="url(#clip350)" d="M 0 0 M1261.11 1138.62 Q1261.11 1136.3 1260.15 1135.03 Q1259.2 1133.76 1257.48 1133.76 Q1255.76 1133.76 1254.8 1135.03 Q1253.85 1136.3 1253.85 1138.62 Q1253.85 1140.92 1254.8 1142.2 Q1255.76 1143.47 1257.48 1143.47 Q1259.2 1143.47 1260.15 1142.2 Q1261.11 1140.92 1261.11 1138.62 M1263.24 1143.64 Q1263.24 1146.95 1261.77 1148.56 Q1260.3 1150.18 1257.27 1150.18 Q1256.15 1150.18 1255.15 1150.01 Q1254.16 1149.85 1253.22 1149.5 L1253.22 1147.43 Q1254.16 1147.94 1255.07 1148.18 Q1255.98 1148.42 1256.93 1148.42 Q1259.03 1148.42 1260.07 1147.32 Q1261.11 1146.23 1261.11 1144.02 L1261.11 1142.97 Q1260.45 1144.12 1259.42 1144.68 Q1258.39 1145.25 1256.96 1145.25 Q1254.57 1145.25 1253.11 1143.43 Q1251.66 1141.62 1251.66 1138.62 Q1251.66 1135.61 1253.11 1133.79 Q1254.57 1131.98 1256.96 1131.98 Q1258.39 1131.98 1259.42 1132.54 Q1260.45 1133.11 1261.11 1134.26 L1261.11 1132.29 L1263.24 1132.29 L1263.24 1143.64 Z" fill="#000000" fill-rule="evenodd" fill-opacity="1" /><path clip-path="url(#clip350)" d="M 0 0 M1276.56 1138.24 L1276.56 1139.28 L1266.77 1139.28 Q1266.91 1141.48 1268.09 1142.63 Q1269.28 1143.78 1271.4 1143.78 Q1272.63 1143.78 1273.77 1143.48 Q1274.93 1143.18 1276.07 1142.58 L1276.07 1144.59 Q1274.92 1145.08 1273.72 1145.33 Q1272.51 1145.59 1271.27 1145.59 Q1268.17 1145.59 1266.35 1143.78 Q1264.55 1141.98 1264.55 1138.9 Q1264.55 1135.71 1266.26 1133.85 Q1267.99 1131.98 1270.9 1131.98 Q1273.52 1131.98 1275.04 1133.66 Q1276.56 1135.34 1276.56 1138.24 M1274.43 1137.61 Q1274.41 1135.86 1273.45 1134.82 Q1272.5 1133.78 1270.93 1133.78 Q1269.14 1133.78 1268.07 1134.79 Q1267 1135.79 1266.84 1137.62 L1274.43 1137.61 Z" fill="#000000" fill-rule="evenodd" fill-opacity="1" /><path clip-path="url(#clip350)" d="M 0 0 M1286.31 1134.28 Q1285.95 1134.07 1285.52 1133.98 Q1285.1 1133.87 1284.6 1133.87 Q1282.79 1133.87 1281.82 1135.05 Q1280.86 1136.22 1280.86 1138.42 L1280.86 1145.25 L1278.72 1145.25 L1278.72 1132.29 L1280.86 1132.29 L1280.86 1134.3 Q1281.53 1133.12 1282.6 1132.55 Q1283.68 1131.98 1285.22 1131.98 Q1285.44 1131.98 1285.71 1132.01 Q1285.97 1132.03 1286.3 1132.09 L1286.31 1134.28 Z" fill="#000000" fill-rule="evenodd" fill-opacity="1" /><path clip-path="url(#clip350)" d="M 0 0 M906.991 1110.73 L906.991 1113.01 Q905.66 1112.37 904.479 1112.06 Q903.299 1111.75 902.199 1111.75 Q900.289 1111.75 899.248 1112.49 Q898.218 1113.23 898.218 1114.6 Q898.218 1115.74 898.9 1116.33 Q899.595 1116.91 901.516 1117.27 L902.928 1117.56 Q905.544 1118.06 906.782 1119.32 Q908.032 1120.57 908.032 1122.67 Q908.032 1125.19 906.343 1126.48 Q904.664 1127.78 901.412 1127.78 Q900.185 1127.78 898.796 1127.5 Q897.419 1127.22 895.938 1126.68 L895.938 1124.27 Q897.361 1125.07 898.727 1125.48 Q900.093 1125.88 901.412 1125.88 Q903.414 1125.88 904.502 1125.09 Q905.59 1124.31 905.59 1122.85 Q905.59 1121.57 904.803 1120.86 Q904.028 1120.14 902.245 1119.78 L900.822 1119.5 Q898.206 1118.98 897.037 1117.87 Q895.868 1116.76 895.868 1114.78 Q895.868 1112.49 897.477 1111.17 Q899.097 1109.85 901.933 1109.85 Q903.148 1109.85 904.41 1110.07 Q905.671 1110.29 906.991 1110.73 Z" fill="#000000" fill-rule="evenodd" fill-opacity="1" /><path clip-path="url(#clip350)" d="M 0 0 M910.266 1114.48 L912.396 1114.48 L912.396 1127.44 L910.266 1127.44 L910.266 1114.48 M910.266 1109.43 L912.396 1109.43 L912.396 1112.13 L910.266 1112.13 L910.266 1109.43 Z" fill="#000000" fill-rule="evenodd" fill-opacity="1" /><path clip-path="url(#clip350)" d="M 0 0 M923.16 1120.81 Q923.16 1118.5 922.199 1117.22 Q921.25 1115.95 919.525 1115.95 Q917.812 1115.95 916.852 1117.22 Q915.903 1118.5 915.903 1120.81 Q915.903 1123.11 916.852 1124.39 Q917.812 1125.66 919.525 1125.66 Q921.25 1125.66 922.199 1124.39 Q923.16 1123.11 923.16 1120.81 M925.289 1125.83 Q925.289 1129.14 923.819 1130.75 Q922.349 1132.37 919.317 1132.37 Q918.194 1132.37 917.199 1132.2 Q916.204 1132.04 915.266 1131.69 L915.266 1129.62 Q916.204 1130.13 917.118 1130.37 Q918.032 1130.61 918.981 1130.61 Q921.076 1130.61 922.118 1129.51 Q923.16 1128.43 923.16 1126.22 L923.16 1125.16 Q922.5 1126.31 921.47 1126.88 Q920.44 1127.44 919.005 1127.44 Q916.62 1127.44 915.162 1125.63 Q913.704 1123.81 913.704 1120.81 Q913.704 1117.8 915.162 1115.98 Q916.62 1114.17 919.005 1114.17 Q920.44 1114.17 921.47 1114.73 Q922.5 1115.3 923.16 1116.45 L923.16 1114.48 L925.289 1114.48 L925.289 1125.83 Z" fill="#000000" fill-rule="evenodd" fill-opacity="1" /><path clip-path="url(#clip350)" d="M 0 0 M938.298 1119.62 L938.298 1127.44 L936.169 1127.44 L936.169 1119.69 Q936.169 1117.85 935.451 1116.93 Q934.734 1116.02 933.298 1116.02 Q931.574 1116.02 930.579 1117.12 Q929.583 1118.22 929.583 1120.12 L929.583 1127.44 L927.442 1127.44 L927.442 1114.48 L929.583 1114.48 L929.583 1116.49 Q930.347 1115.32 931.377 1114.75 Q932.419 1114.17 933.773 1114.17 Q936.007 1114.17 937.153 1115.56 Q938.298 1116.93 938.298 1119.62 Z" fill="#000000" fill-rule="evenodd" fill-opacity="1" /><path clip-path="url(#clip350)" d="M 0 0 M951.62 1120.43 L951.62 1121.47 L941.828 1121.47 Q941.967 1123.67 943.148 1124.83 Q944.34 1125.97 946.458 1125.97 Q947.685 1125.97 948.831 1125.67 Q949.988 1125.37 951.122 1124.77 L951.122 1126.78 Q949.977 1127.27 948.773 1127.52 Q947.569 1127.78 946.331 1127.78 Q943.229 1127.78 941.412 1125.97 Q939.606 1124.17 939.606 1121.09 Q939.606 1117.91 941.319 1116.04 Q943.044 1114.17 945.96 1114.17 Q948.576 1114.17 950.092 1115.86 Q951.62 1117.54 951.62 1120.43 M949.49 1119.8 Q949.467 1118.06 948.507 1117.01 Q947.558 1115.97 945.984 1115.97 Q944.201 1115.97 943.125 1116.98 Q942.06 1117.99 941.898 1119.82 L949.49 1119.8 Z" fill="#000000" fill-rule="evenodd" fill-opacity="1" /><path clip-path="url(#clip350)" d="M 0 0 M962.384 1116.45 L962.384 1109.43 L964.514 1109.43 L964.514 1127.44 L962.384 1127.44 L962.384 1125.5 Q961.713 1126.66 960.683 1127.22 Q959.664 1127.78 958.229 1127.78 Q955.879 1127.78 954.398 1125.9 Q952.928 1124.03 952.928 1120.97 Q952.928 1117.92 954.398 1116.04 Q955.879 1114.17 958.229 1114.17 Q959.664 1114.17 960.683 1114.73 Q961.713 1115.29 962.384 1116.45 M955.127 1120.97 Q955.127 1123.32 956.088 1124.66 Q957.06 1126 958.75 1126 Q960.44 1126 961.412 1124.66 Q962.384 1123.32 962.384 1120.97 Q962.384 1118.62 961.412 1117.29 Q960.44 1115.95 958.75 1115.95 Q957.06 1115.95 956.088 1117.29 Q955.127 1118.62 955.127 1120.97 Z" fill="#000000" fill-rule="evenodd" fill-opacity="1" /><path clip-path="url(#clip350)" d="M 0 0 M636.698 1229.86 L636.698 1236.19 L640.448 1236.19 Q642.335 1236.19 643.237 1235.41 Q644.152 1234.63 644.152 1233.02 Q644.152 1231.4 643.237 1230.63 Q642.335 1229.86 640.448 1229.86 L636.698 1229.86 M636.698 1222.75 L636.698 1227.96 L640.159 1227.96 Q641.872 1227.96 642.705 1227.32 Q643.55 1226.67 643.55 1225.36 Q643.55 1224.05 642.705 1223.4 Q641.872 1222.75 640.159 1222.75 L636.698 1222.75 M634.36 1220.83 L640.332 1220.83 Q643.006 1220.83 644.453 1221.94 Q645.899 1223.05 645.899 1225.1 Q645.899 1226.69 645.159 1227.62 Q644.418 1228.56 642.983 1228.79 Q644.707 1229.16 645.656 1230.34 Q646.617 1231.51 646.617 1233.27 Q646.617 1235.59 645.043 1236.85 Q643.469 1238.11 640.564 1238.11 L634.36 1238.11 L634.36 1220.83 Z" fill="#000000" fill-rule="evenodd" fill-opacity="1" /><path clip-path="url(#clip350)" d="M 0 0 M648.851 1225.15 L650.98 1225.15 L650.98 1238.11 L648.851 1238.11 L648.851 1225.15 M648.851 1220.1 L650.98 1220.1 L650.98 1222.8 L648.851 1222.8 L648.851 1220.1 Z" fill="#000000" fill-rule="evenodd" fill-opacity="1" /><path clip-path="url(#clip350)" d="M 0 0 M661.744 1231.48 Q661.744 1229.16 660.784 1227.89 Q659.835 1226.62 658.11 1226.62 Q656.397 1226.62 655.436 1227.89 Q654.487 1229.16 654.487 1231.48 Q654.487 1233.78 655.436 1235.05 Q656.397 1236.33 658.11 1236.33 Q659.835 1236.33 660.784 1235.05 Q661.744 1233.78 661.744 1231.48 M663.874 1236.5 Q663.874 1239.81 662.404 1241.42 Q660.934 1243.04 657.902 1243.04 Q656.779 1243.04 655.784 1242.87 Q654.788 1242.7 653.851 1242.36 L653.851 1240.29 Q654.788 1240.8 655.703 1241.04 Q656.617 1241.28 657.566 1241.28 Q659.661 1241.28 660.703 1240.18 Q661.744 1239.09 661.744 1236.88 L661.744 1235.83 Q661.085 1236.98 660.054 1237.54 Q659.024 1238.11 657.589 1238.11 Q655.205 1238.11 653.747 1236.29 Q652.288 1234.48 652.288 1231.48 Q652.288 1228.47 653.747 1226.65 Q655.205 1224.83 657.589 1224.83 Q659.024 1224.83 660.054 1225.4 Q661.085 1225.97 661.744 1227.11 L661.744 1225.15 L663.874 1225.15 L663.874 1236.5 Z" fill="#000000" fill-rule="evenodd" fill-opacity="1" /><path clip-path="url(#clip350)" d="M 0 0 M666.2 1220.83 L668.538 1220.83 L668.538 1238.11 L666.2 1238.11 L666.2 1220.83 Z" fill="#000000" fill-rule="evenodd" fill-opacity="1" /><path clip-path="url(#clip350)" d="M 0 0 M681.547 1230.29 L681.547 1238.11 L679.418 1238.11 L679.418 1230.36 Q679.418 1228.52 678.7 1227.6 Q677.983 1226.69 676.547 1226.69 Q674.823 1226.69 673.828 1227.79 Q672.832 1228.89 672.832 1230.78 L672.832 1238.11 L670.691 1238.11 L670.691 1225.15 L672.832 1225.15 L672.832 1227.16 Q673.596 1225.99 674.626 1225.41 Q675.668 1224.83 677.022 1224.83 Q679.256 1224.83 680.402 1226.22 Q681.547 1227.6 681.547 1230.29 Z" fill="#000000" fill-rule="evenodd" fill-opacity="1" /><path clip-path="url(#clip350)" d="M 0 0 M685.888 1221.47 L685.888 1225.15 L690.274 1225.15 L690.274 1226.8 L685.888 1226.8 L685.888 1233.84 Q685.888 1235.42 686.316 1235.88 Q686.756 1236.33 688.087 1236.33 L690.274 1236.33 L690.274 1238.11 L688.087 1238.11 Q685.621 1238.11 684.684 1237.2 Q683.746 1236.27 683.746 1233.84 L683.746 1226.8 L682.184 1226.8 L682.184 1225.15 L683.746 1225.15 L683.746 1221.47 L685.888 1221.47 Z" fill="#000000" fill-rule="evenodd" fill-opacity="1" /><path clip-path="url(#clip350)" d="M 0 0 M1030.37 1329.04 L1032.71 1329.04 L1032.71 1346.32 L1030.37 1346.32 L1030.37 1329.04 Z" fill="#000000" fill-rule="evenodd" fill-opacity="1" /><path clip-path="url(#clip350)" d="M 0 0 M1045.72 1338.5 L1045.72 1346.32 L1043.59 1346.32 L1043.59 1338.57 Q1043.59 1336.73 1042.87 1335.81 Q1042.16 1334.9 1040.72 1334.9 Q1039 1334.9 1038 1336 Q1037.01 1337.1 1037.01 1339 L1037.01 1346.32 L1034.87 1346.32 L1034.87 1333.36 L1037.01 1333.36 L1037.01 1335.37 Q1037.77 1334.2 1038.8 1333.63 Q1039.84 1333.05 1041.2 1333.05 Q1043.43 1333.05 1044.58 1334.44 Q1045.72 1335.81 1045.72 1338.5 Z" fill="#000000" fill-rule="evenodd" fill-opacity="1" /><path clip-path="url(#clip350)" d="M 0 0 M1050.06 1329.68 L1050.06 1333.36 L1054.45 1333.36 L1054.45 1335.01 L1050.06 1335.01 L1050.06 1342.05 Q1050.06 1343.64 1050.49 1344.09 Q1050.93 1344.54 1052.26 1344.54 L1054.45 1344.54 L1054.45 1346.32 L1052.26 1346.32 Q1049.8 1346.32 1048.86 1345.41 Q1047.92 1344.48 1047.92 1342.05 L1047.92 1335.01 L1046.36 1335.01 L1046.36 1333.36 L1047.92 1333.36 L1047.92 1329.68 L1050.06 1329.68 Z" fill="#000000" fill-rule="evenodd" fill-opacity="1" /><path clip-path="url(#clip350)" d="M 0 0 M1057.39 1344.36 L1061.21 1344.36 L1061.21 1331.17 L1057.05 1332.01 L1057.05 1329.88 L1061.18 1329.04 L1063.52 1329.04 L1063.52 1344.36 L1067.34 1344.36 L1067.34 1346.32 L1057.39 1346.32 L1057.39 1344.36 Z" fill="#000000" fill-rule="evenodd" fill-opacity="1" /><path clip-path="url(#clip350)" d="M 0 0 M1071.89 1344.36 L1080.05 1344.36 L1080.05 1346.32 L1069.08 1346.32 L1069.08 1344.36 Q1070.41 1342.98 1072.7 1340.66 Q1075 1338.34 1075.59 1337.67 Q1076.72 1336.4 1077.16 1335.54 Q1077.61 1334.66 1077.61 1333.81 Q1077.61 1332.43 1076.64 1331.57 Q1075.68 1330.7 1074.12 1330.7 Q1073.03 1330.7 1071.8 1331.08 Q1070.58 1331.46 1069.19 1332.24 L1069.19 1329.88 Q1070.61 1329.31 1071.83 1329.02 Q1073.06 1328.73 1074.08 1328.73 Q1076.76 1328.73 1078.36 1330.07 Q1079.96 1331.42 1079.96 1333.66 Q1079.96 1334.73 1079.55 1335.69 Q1079.16 1336.64 1078.11 1337.93 Q1077.82 1338.27 1076.27 1339.88 Q1074.71 1341.47 1071.89 1344.36 Z" fill="#000000" fill-rule="evenodd" fill-opacity="1" /><path clip-path="url(#clip350)" d="M 0 0 M1087.59 1338.12 Q1085.92 1338.12 1084.96 1339.01 Q1084.01 1339.9 1084.01 1341.46 Q1084.01 1343.02 1084.96 1343.92 Q1085.92 1344.81 1087.59 1344.81 Q1089.25 1344.81 1090.21 1343.92 Q1091.17 1343.01 1091.17 1341.46 Q1091.17 1339.9 1090.21 1339.01 Q1089.26 1338.12 1087.59 1338.12 M1085.25 1337.12 Q1083.74 1336.75 1082.9 1335.72 Q1082.06 1334.69 1082.06 1333.21 Q1082.06 1331.14 1083.53 1329.93 Q1085.02 1328.73 1087.59 1328.73 Q1090.17 1328.73 1091.64 1329.93 Q1093.11 1331.14 1093.11 1333.21 Q1093.11 1334.69 1092.26 1335.72 Q1091.43 1336.75 1089.93 1337.12 Q1091.62 1337.51 1092.56 1338.66 Q1093.51 1339.81 1093.51 1341.46 Q1093.51 1343.97 1091.97 1345.32 Q1090.44 1346.66 1087.59 1346.66 Q1084.73 1346.66 1083.19 1345.32 Q1081.66 1343.97 1081.66 1341.46 Q1081.66 1339.81 1082.61 1338.66 Q1083.56 1337.51 1085.25 1337.12 M1084.39 1333.43 Q1084.39 1334.77 1085.22 1335.52 Q1086.07 1336.28 1087.59 1336.28 Q1089.09 1336.28 1089.93 1335.52 Q1090.79 1334.77 1090.79 1333.43 Q1090.79 1332.09 1089.93 1331.33 Q1089.09 1330.58 1087.59 1330.58 Q1086.07 1330.58 1085.22 1331.33 Q1084.39 1332.09 1084.39 1333.43 Z" fill="#000000" fill-rule="evenodd" fill-opacity="1" /><path clip-path="url(#clip350)" d="M 0 0 M742.89 1238.33 L745.228 1238.33 L745.228 1255.61 L742.89 1255.61 L742.89 1238.33 Z" fill="#000000" fill-rule="evenodd" fill-opacity="1" /><path clip-path="url(#clip350)" d="M 0 0 M758.237 1247.79 L758.237 1255.61 L756.108 1255.61 L756.108 1247.85 Q756.108 1246.01 755.39 1245.1 Q754.673 1244.19 753.237 1244.19 Q751.513 1244.19 750.517 1245.29 Q749.522 1246.38 749.522 1248.28 L749.522 1255.61 L747.381 1255.61 L747.381 1242.65 L749.522 1242.65 L749.522 1244.66 Q750.286 1243.49 751.316 1242.91 Q752.358 1242.33 753.712 1242.33 Q755.946 1242.33 757.092 1243.72 Q758.237 1245.1 758.237 1247.79 Z" fill="#000000" fill-rule="evenodd" fill-opacity="1" /><path clip-path="url(#clip350)" d="M 0 0 M762.578 1238.97 L762.578 1242.65 L766.964 1242.65 L766.964 1244.3 L762.578 1244.3 L762.578 1251.34 Q762.578 1252.92 763.006 1253.38 Q763.446 1253.83 764.777 1253.83 L766.964 1253.83 L766.964 1255.61 L764.777 1255.61 Q762.311 1255.61 761.374 1254.7 Q760.436 1253.77 760.436 1251.34 L760.436 1244.3 L758.874 1244.3 L758.874 1242.65 L760.436 1242.65 L760.436 1238.97 L762.578 1238.97 Z" fill="#000000" fill-rule="evenodd" fill-opacity="1" /><path clip-path="url(#clip350)" d="M 0 0 M769.904 1253.64 L773.723 1253.64 L773.723 1240.46 L769.568 1241.29 L769.568 1239.16 L773.7 1238.33 L776.038 1238.33 L776.038 1253.64 L779.858 1253.64 L779.858 1255.61 L769.904 1255.61 L769.904 1253.64 Z" fill="#000000" fill-rule="evenodd" fill-opacity="1" /><path clip-path="url(#clip350)" d="M 0 0 M787.682 1246.04 Q786.108 1246.04 785.182 1247.11 Q784.267 1248.19 784.267 1250.07 Q784.267 1251.93 785.182 1253.02 Q786.108 1254.09 787.682 1254.09 Q789.256 1254.09 790.17 1253.02 Q791.096 1251.93 791.096 1250.07 Q791.096 1248.19 790.17 1247.11 Q789.256 1246.04 787.682 1246.04 M792.323 1238.71 L792.323 1240.84 Q791.443 1240.42 790.54 1240.2 Q789.649 1239.98 788.77 1239.98 Q786.455 1239.98 785.228 1241.55 Q784.013 1243.11 783.839 1246.27 Q784.522 1245.26 785.552 1244.73 Q786.582 1244.19 787.821 1244.19 Q790.425 1244.19 791.929 1245.77 Q793.445 1247.35 793.445 1250.07 Q793.445 1252.73 791.871 1254.34 Q790.297 1255.95 787.682 1255.95 Q784.684 1255.95 783.098 1253.65 Q781.513 1251.35 781.513 1246.99 Q781.513 1242.89 783.457 1240.46 Q785.402 1238.02 788.677 1238.02 Q789.557 1238.02 790.448 1238.19 Q791.351 1238.36 792.323 1238.71 Z" fill="#000000" fill-rule="evenodd" fill-opacity="1" /><path clip-path="url(#clip350)" d="M 0 0 M699.28 1303.78 L701.618 1303.78 L701.618 1321.06 L699.28 1321.06 L699.28 1303.78 Z" fill="#000000" fill-rule="evenodd" fill-opacity="1" /><path clip-path="url(#clip350)" d="M 0 0 M714.627 1313.23 L714.627 1321.06 L712.498 1321.06 L712.498 1313.3 Q712.498 1311.46 711.78 1310.55 Q711.062 1309.63 709.627 1309.63 Q707.903 1309.63 706.907 1310.73 Q705.912 1311.83 705.912 1313.73 L705.912 1321.06 L703.771 1321.06 L703.771 1308.09 L705.912 1308.09 L705.912 1310.11 Q706.676 1308.94 707.706 1308.36 Q708.748 1307.78 710.102 1307.78 Q712.336 1307.78 713.481 1309.17 Q714.627 1310.55 714.627 1313.23 Z" fill="#000000" fill-rule="evenodd" fill-opacity="1" /><path clip-path="url(#clip350)" d="M 0 0 M718.967 1304.41 L718.967 1308.09 L723.354 1308.09 L723.354 1309.75 L718.967 1309.75 L718.967 1316.78 Q718.967 1318.37 719.396 1318.82 Q719.836 1319.27 721.167 1319.27 L723.354 1319.27 L723.354 1321.06 L721.167 1321.06 Q718.701 1321.06 717.764 1320.14 Q716.826 1319.22 716.826 1316.78 L716.826 1309.75 L715.264 1309.75 L715.264 1308.09 L716.826 1308.09 L716.826 1304.41 L718.967 1304.41 Z" fill="#000000" fill-rule="evenodd" fill-opacity="1" /><path clip-path="url(#clip350)" d="M 0 0 M732.972 1311.74 Q734.65 1312.1 735.588 1313.23 Q736.537 1314.37 736.537 1316.03 Q736.537 1318.59 734.778 1319.99 Q733.018 1321.39 729.778 1321.39 Q728.69 1321.39 727.532 1321.17 Q726.386 1320.96 725.16 1320.53 L725.16 1318.28 Q726.132 1318.85 727.289 1319.13 Q728.447 1319.42 729.708 1319.42 Q731.907 1319.42 733.053 1318.56 Q734.21 1317.69 734.21 1316.03 Q734.21 1314.5 733.134 1313.65 Q732.069 1312.78 730.16 1312.78 L728.146 1312.78 L728.146 1310.86 L730.252 1310.86 Q731.977 1310.86 732.891 1310.18 Q733.805 1309.48 733.805 1308.19 Q733.805 1306.85 732.856 1306.15 Q731.919 1305.43 730.16 1305.43 Q729.199 1305.43 728.099 1305.64 Q727 1305.85 725.68 1306.29 L725.68 1304.2 Q727.011 1303.83 728.169 1303.65 Q729.338 1303.46 730.368 1303.46 Q733.03 1303.46 734.581 1304.68 Q736.132 1305.88 736.132 1307.94 Q736.132 1309.38 735.31 1310.37 Q734.488 1311.36 732.972 1311.74 Z" fill="#000000" fill-rule="evenodd" fill-opacity="1" /><path clip-path="url(#clip350)" d="M 0 0 M741.085 1319.09 L749.245 1319.09 L749.245 1321.06 L738.273 1321.06 L738.273 1319.09 Q739.604 1317.71 741.896 1315.4 Q744.199 1313.07 744.789 1312.4 Q745.912 1311.14 746.352 1310.27 Q746.803 1309.39 746.803 1308.54 Q746.803 1307.17 745.831 1306.3 Q744.87 1305.43 743.319 1305.43 Q742.22 1305.43 740.993 1305.81 Q739.778 1306.19 738.389 1306.97 L738.389 1304.61 Q739.801 1304.04 741.028 1303.75 Q742.254 1303.46 743.273 1303.46 Q745.958 1303.46 747.555 1304.81 Q749.152 1306.15 749.152 1308.39 Q749.152 1309.46 748.747 1310.42 Q748.354 1311.37 747.301 1312.66 Q747.011 1313 745.46 1314.61 Q743.909 1316.21 741.085 1319.09 Z" fill="#000000" fill-rule="evenodd" fill-opacity="1" /><path clip-path="url(#clip350)" d="M 0 0 M835.886 1305.33 L838.224 1305.33 L838.224 1322.61 L835.886 1322.61 L835.886 1305.33 Z" fill="#000000" fill-rule="evenodd" fill-opacity="1" /><path clip-path="url(#clip350)" d="M 0 0 M851.234 1314.78 L851.234 1322.61 L849.104 1322.61 L849.104 1314.85 Q849.104 1313.01 848.386 1312.1 Q847.669 1311.18 846.234 1311.18 Q844.509 1311.18 843.514 1312.28 Q842.518 1313.38 842.518 1315.28 L842.518 1322.61 L840.377 1322.61 L840.377 1309.64 L842.518 1309.64 L842.518 1311.66 Q843.282 1310.49 844.312 1309.91 Q845.354 1309.33 846.708 1309.33 Q848.942 1309.33 850.088 1310.72 Q851.234 1312.1 851.234 1314.78 Z" fill="#000000" fill-rule="evenodd" fill-opacity="1" /><path clip-path="url(#clip350)" d="M 0 0 M855.574 1305.96 L855.574 1309.64 L859.96 1309.64 L859.96 1311.3 L855.574 1311.3 L855.574 1318.33 Q855.574 1319.92 856.002 1320.37 Q856.442 1320.82 857.773 1320.82 L859.96 1320.82 L859.96 1322.61 L857.773 1322.61 Q855.308 1322.61 854.37 1321.69 Q853.433 1320.77 853.433 1318.33 L853.433 1311.3 L851.87 1311.3 L851.87 1309.64 L853.433 1309.64 L853.433 1305.96 L855.574 1305.96 Z" fill="#000000" fill-rule="evenodd" fill-opacity="1" /><path clip-path="url(#clip350)" d="M 0 0 M867.784 1313.03 Q866.21 1313.03 865.284 1314.11 Q864.37 1315.19 864.37 1317.06 Q864.37 1318.92 865.284 1320.01 Q866.21 1321.09 867.784 1321.09 Q869.358 1321.09 870.273 1320.01 Q871.199 1318.92 871.199 1317.06 Q871.199 1315.19 870.273 1314.11 Q869.358 1313.03 867.784 1313.03 M872.426 1305.71 L872.426 1307.84 Q871.546 1307.42 870.643 1307.2 Q869.752 1306.98 868.872 1306.98 Q866.558 1306.98 865.331 1308.54 Q864.115 1310.11 863.942 1313.27 Q864.625 1312.26 865.655 1311.73 Q866.685 1311.18 867.923 1311.18 Q870.527 1311.18 872.032 1312.77 Q873.548 1314.34 873.548 1317.06 Q873.548 1319.72 871.974 1321.33 Q870.4 1322.94 867.784 1322.94 Q864.787 1322.94 863.201 1320.65 Q861.615 1318.35 861.615 1313.98 Q861.615 1309.89 863.56 1307.45 Q865.504 1305.01 868.78 1305.01 Q869.659 1305.01 870.551 1305.19 Q871.453 1305.36 872.426 1305.71 Z" fill="#000000" fill-rule="evenodd" fill-opacity="1" /><path clip-path="url(#clip350)" d="M 0 0 M882.507 1307.36 L876.604 1316.59 L882.507 1316.59 L882.507 1307.36 M881.893 1305.33 L884.833 1305.33 L884.833 1316.59 L887.298 1316.59 L887.298 1318.53 L884.833 1318.53 L884.833 1322.61 L882.507 1322.61 L882.507 1318.53 L874.706 1318.53 L874.706 1316.27 L881.893 1305.33 Z" fill="#000000" fill-rule="evenodd" fill-opacity="1" /><path clip-path="url(#clip350)" d="M 0 0 M946.375 1311.97 L948.713 1311.97 L948.713 1329.25 L946.375 1329.25 L946.375 1311.97 Z" fill="#000000" fill-rule="evenodd" fill-opacity="1" /><path clip-path="url(#clip350)" d="M 0 0 M961.722 1321.43 L961.722 1329.25 L959.592 1329.25 L959.592 1321.5 Q959.592 1319.66 958.875 1318.74 Q958.157 1317.83 956.722 1317.83 Q954.998 1317.83 954.002 1318.93 Q953.007 1320.03 953.007 1321.93 L953.007 1329.25 L950.866 1329.25 L950.866 1316.29 L953.007 1316.29 L953.007 1318.3 Q953.771 1317.13 954.801 1316.56 Q955.842 1315.98 957.197 1315.98 Q959.43 1315.98 960.576 1317.37 Q961.722 1318.74 961.722 1321.43 Z" fill="#000000" fill-rule="evenodd" fill-opacity="1" /><path clip-path="url(#clip350)" d="M 0 0 M966.062 1312.61 L966.062 1316.29 L970.449 1316.29 L970.449 1317.94 L966.062 1317.94 L966.062 1324.98 Q966.062 1326.57 966.491 1327.02 Q966.93 1327.47 968.261 1327.47 L970.449 1327.47 L970.449 1329.25 L968.261 1329.25 Q965.796 1329.25 964.859 1328.34 Q963.921 1327.41 963.921 1324.98 L963.921 1317.94 L962.359 1317.94 L962.359 1316.29 L963.921 1316.29 L963.921 1312.61 L966.062 1312.61 Z" fill="#000000" fill-rule="evenodd" fill-opacity="1" /><path clip-path="url(#clip350)" d="M 0 0 M977.984 1321.05 Q976.317 1321.05 975.356 1321.94 Q974.407 1322.83 974.407 1324.39 Q974.407 1325.95 975.356 1326.84 Q976.317 1327.74 977.984 1327.74 Q979.65 1327.74 980.611 1326.84 Q981.572 1325.94 981.572 1324.39 Q981.572 1322.83 980.611 1321.94 Q979.662 1321.05 977.984 1321.05 M975.646 1320.05 Q974.141 1319.68 973.296 1318.65 Q972.463 1317.62 972.463 1316.14 Q972.463 1314.07 973.933 1312.86 Q975.414 1311.66 977.984 1311.66 Q980.565 1311.66 982.034 1312.86 Q983.504 1314.07 983.504 1316.14 Q983.504 1317.62 982.659 1318.65 Q981.826 1319.68 980.333 1320.05 Q982.023 1320.44 982.96 1321.59 Q983.909 1322.74 983.909 1324.39 Q983.909 1326.9 982.37 1328.25 Q980.842 1329.59 977.984 1329.59 Q975.125 1329.59 973.585 1328.25 Q972.058 1326.9 972.058 1324.39 Q972.058 1322.74 973.007 1321.59 Q973.956 1320.44 975.646 1320.05 M974.789 1316.36 Q974.789 1317.7 975.622 1318.45 Q976.467 1319.21 977.984 1319.21 Q979.488 1319.21 980.333 1318.45 Q981.19 1317.7 981.19 1316.36 Q981.19 1315.02 980.333 1314.26 Q979.488 1313.51 977.984 1313.51 Q976.467 1313.51 975.622 1314.26 Q974.789 1315.02 974.789 1316.36 Z" fill="#000000" fill-rule="evenodd" fill-opacity="1" /><path clip-path="url(#clip350)" d="M 0 0 M1452.19 1035.18 L1454.54 1035.18 L1454.54 1045.68 Q1454.54 1048.45 1455.55 1049.68 Q1456.56 1050.9 1458.81 1050.9 Q1461.06 1050.9 1462.07 1049.68 Q1463.07 1048.45 1463.07 1045.68 L1463.07 1035.18 L1465.42 1035.18 L1465.42 1045.97 Q1465.42 1049.35 1463.74 1051.07 Q1462.08 1052.8 1458.81 1052.8 Q1455.54 1052.8 1453.86 1051.07 Q1452.19 1049.35 1452.19 1045.97 L1452.19 1035.18 Z" fill="#000000" fill-rule="evenodd" fill-opacity="1" /><path clip-path="url(#clip350)" d="M 0 0 M1478.43 1044.64 L1478.43 1052.46 L1476.3 1052.46 L1476.3 1044.71 Q1476.3 1042.86 1475.58 1041.95 Q1474.87 1041.04 1473.43 1041.04 Q1471.71 1041.04 1470.71 1042.14 Q1469.72 1043.24 1469.72 1045.13 L1469.72 1052.46 L1467.58 1052.46 L1467.58 1039.5 L1469.72 1039.5 L1469.72 1041.51 Q1470.48 1040.34 1471.51 1039.76 Q1472.55 1039.18 1473.91 1039.18 Q1476.14 1039.18 1477.29 1040.57 Q1478.43 1041.95 1478.43 1044.64 Z" fill="#000000" fill-rule="evenodd" fill-opacity="1" /><path clip-path="url(#clip350)" d="M 0 0 M1488.93 1039.88 L1488.93 1041.89 Q1488.03 1041.43 1487.05 1041.2 Q1486.08 1040.97 1485.04 1040.97 Q1483.46 1040.97 1482.66 1041.45 Q1481.87 1041.94 1481.87 1042.91 Q1481.87 1043.65 1482.44 1044.08 Q1483 1044.5 1484.72 1044.88 L1485.45 1045.04 Q1487.71 1045.53 1488.66 1046.42 Q1489.62 1047.3 1489.62 1048.88 Q1489.62 1050.69 1488.19 1051.74 Q1486.77 1052.8 1484.27 1052.8 Q1483.22 1052.8 1482.09 1052.59 Q1480.97 1052.39 1479.72 1051.99 L1479.72 1049.79 Q1480.9 1050.4 1482.04 1050.71 Q1483.19 1051.01 1484.31 1051.01 Q1485.82 1051.01 1486.63 1050.5 Q1487.44 1049.98 1487.44 1049.05 Q1487.44 1048.18 1486.85 1047.71 Q1486.27 1047.25 1484.29 1046.82 L1483.55 1046.65 Q1481.57 1046.23 1480.69 1045.38 Q1479.81 1044.51 1479.81 1043 Q1479.81 1041.17 1481.11 1040.18 Q1482.4 1039.18 1484.79 1039.18 Q1485.97 1039.18 1487.01 1039.36 Q1488.05 1039.53 1488.93 1039.88 Z" fill="#000000" fill-rule="evenodd" fill-opacity="1" /><path clip-path="url(#clip350)" d="M 0 0 M1491.86 1039.5 L1493.99 1039.5 L1493.99 1052.46 L1491.86 1052.46 L1491.86 1039.5 M1491.86 1034.45 L1493.99 1034.45 L1493.99 1037.15 L1491.86 1037.15 L1491.86 1034.45 Z" fill="#000000" fill-rule="evenodd" fill-opacity="1" /><path clip-path="url(#clip350)" d="M 0 0 M1504.75 1045.83 Q1504.75 1043.51 1503.79 1042.24 Q1502.84 1040.97 1501.12 1040.97 Q1499.4 1040.97 1498.44 1042.24 Q1497.49 1043.51 1497.49 1045.83 Q1497.49 1048.13 1498.44 1049.4 Q1499.4 1050.68 1501.12 1050.68 Q1502.84 1050.68 1503.79 1049.4 Q1504.75 1048.13 1504.75 1045.83 M1506.88 1050.85 Q1506.88 1054.16 1505.41 1055.77 Q1503.94 1057.39 1500.91 1057.39 Q1499.79 1057.39 1498.79 1057.22 Q1497.8 1057.05 1496.86 1056.71 L1496.86 1054.64 Q1497.8 1055.14 1498.71 1055.39 Q1499.62 1055.63 1500.57 1055.63 Q1502.67 1055.63 1503.71 1054.53 Q1504.75 1053.44 1504.75 1051.23 L1504.75 1050.18 Q1504.09 1051.33 1503.06 1051.89 Q1502.03 1052.46 1500.6 1052.46 Q1498.21 1052.46 1496.75 1050.64 Q1495.3 1048.83 1495.3 1045.83 Q1495.3 1042.82 1496.75 1041 Q1498.21 1039.18 1500.6 1039.18 Q1502.03 1039.18 1503.06 1039.75 Q1504.09 1040.32 1504.75 1041.46 L1504.75 1039.5 L1506.88 1039.5 L1506.88 1050.85 Z" fill="#000000" fill-rule="evenodd" fill-opacity="1" /><path clip-path="url(#clip350)" d="M 0 0 M1519.89 1044.64 L1519.89 1052.46 L1517.76 1052.46 L1517.76 1044.71 Q1517.76 1042.86 1517.04 1041.95 Q1516.33 1041.04 1514.89 1041.04 Q1513.17 1041.04 1512.17 1042.14 Q1511.17 1043.24 1511.17 1045.13 L1511.17 1052.46 L1509.03 1052.46 L1509.03 1039.5 L1511.17 1039.5 L1511.17 1041.51 Q1511.94 1040.34 1512.97 1039.76 Q1514.01 1039.18 1515.36 1039.18 Q1517.6 1039.18 1518.74 1040.57 Q1519.89 1041.95 1519.89 1044.64 Z" fill="#000000" fill-rule="evenodd" fill-opacity="1" /><path clip-path="url(#clip350)" d="M 0 0 M1533.21 1045.45 L1533.21 1046.49 L1523.42 1046.49 Q1523.56 1048.69 1524.74 1049.84 Q1525.93 1050.99 1528.05 1050.99 Q1529.28 1050.99 1530.42 1050.69 Q1531.58 1050.39 1532.71 1049.79 L1532.71 1051.8 Q1531.57 1052.29 1530.36 1052.54 Q1529.16 1052.8 1527.92 1052.8 Q1524.82 1052.8 1523 1050.99 Q1521.2 1049.18 1521.2 1046.11 Q1521.2 1042.92 1522.91 1041.06 Q1524.64 1039.18 1527.55 1039.18 Q1530.17 1039.18 1531.68 1040.87 Q1533.21 1042.55 1533.21 1045.45 M1531.08 1044.82 Q1531.06 1043.07 1530.1 1042.03 Q1529.15 1040.99 1527.58 1040.99 Q1525.79 1040.99 1524.72 1042 Q1523.65 1043 1523.49 1044.83 L1531.08 1044.82 Z" fill="#000000" fill-rule="evenodd" fill-opacity="1" /><path clip-path="url(#clip350)" d="M 0 0 M1543.98 1041.46 L1543.98 1034.45 L1546.11 1034.45 L1546.11 1052.46 L1543.98 1052.46 L1543.98 1050.52 Q1543.3 1051.67 1542.27 1052.24 Q1541.26 1052.8 1539.82 1052.8 Q1537.47 1052.8 1535.99 1050.92 Q1534.52 1049.05 1534.52 1045.99 Q1534.52 1042.93 1535.99 1041.06 Q1537.47 1039.18 1539.82 1039.18 Q1541.26 1039.18 1542.27 1039.75 Q1543.3 1040.31 1543.98 1041.46 M1536.72 1045.99 Q1536.72 1048.34 1537.68 1049.68 Q1538.65 1051.01 1540.34 1051.01 Q1542.03 1051.01 1543 1049.68 Q1543.98 1048.34 1543.98 1045.99 Q1543.98 1043.64 1543 1042.31 Q1542.03 1040.97 1540.34 1040.97 Q1538.65 1040.97 1537.68 1042.31 Q1536.72 1043.64 1536.72 1045.99 Z" fill="#000000" fill-rule="evenodd" fill-opacity="1" /><path clip-path="url(#clip350)" d="M 0 0 M1368.04 1327.08 L1370.39 1327.08 L1370.39 1337.58 Q1370.39 1340.36 1371.4 1341.59 Q1372.41 1342.8 1374.67 1342.8 Q1376.91 1342.8 1377.92 1341.59 Q1378.92 1340.36 1378.92 1337.58 L1378.92 1327.08 L1381.27 1327.08 L1381.27 1337.87 Q1381.27 1341.25 1379.6 1342.97 Q1377.93 1344.7 1374.67 1344.7 Q1371.39 1344.7 1369.71 1342.97 Q1368.04 1341.25 1368.04 1337.87 L1368.04 1327.08 Z" fill="#000000" fill-rule="evenodd" fill-opacity="1" /><path clip-path="url(#clip350)" d="M 0 0 M1383.6 1327.08 L1385.94 1327.08 L1385.94 1344.36 L1383.6 1344.36 L1383.6 1327.08 Z" fill="#000000" fill-rule="evenodd" fill-opacity="1" /><path clip-path="url(#clip350)" d="M 0 0 M1398.95 1336.54 L1398.95 1344.36 L1396.82 1344.36 L1396.82 1336.61 Q1396.82 1334.77 1396.1 1333.85 Q1395.38 1332.94 1393.95 1332.94 Q1392.22 1332.94 1391.23 1334.04 Q1390.23 1335.14 1390.23 1337.04 L1390.23 1344.36 L1388.09 1344.36 L1388.09 1331.4 L1390.23 1331.4 L1390.23 1333.41 Q1391 1332.25 1392.03 1331.67 Q1393.07 1331.09 1394.42 1331.09 Q1396.66 1331.09 1397.8 1332.48 Q1398.95 1333.85 1398.95 1336.54 Z" fill="#000000" fill-rule="evenodd" fill-opacity="1" /><path clip-path="url(#clip350)" d="M 0 0 M1403.29 1327.72 L1403.29 1331.4 L1407.67 1331.4 L1407.67 1333.06 L1403.29 1333.06 L1403.29 1340.09 Q1403.29 1341.68 1403.72 1342.13 Q1404.16 1342.58 1405.49 1342.58 L1407.67 1342.58 L1407.67 1344.36 L1405.49 1344.36 Q1403.02 1344.36 1402.08 1343.45 Q1401.15 1342.52 1401.15 1340.09 L1401.15 1333.06 L1399.58 1333.06 L1399.58 1331.4 L1401.15 1331.4 L1401.15 1327.72 L1403.29 1327.72 Z" fill="#000000" fill-rule="evenodd" fill-opacity="1" /><path clip-path="url(#clip350)" d="M 0 0 M1410.61 1342.4 L1414.43 1342.4 L1414.43 1329.21 L1410.28 1330.05 L1410.28 1327.92 L1414.41 1327.08 L1416.75 1327.08 L1416.75 1342.4 L1420.57 1342.4 L1420.57 1344.36 L1410.61 1344.36 L1410.61 1342.4 Z" fill="#000000" fill-rule="evenodd" fill-opacity="1" /><path clip-path="url(#clip350)" d="M 0 0 M1425.12 1342.4 L1433.28 1342.4 L1433.28 1344.36 L1422.3 1344.36 L1422.3 1342.4 Q1423.63 1341.02 1425.93 1338.7 Q1428.23 1336.38 1428.82 1335.71 Q1429.94 1334.44 1430.38 1333.58 Q1430.83 1332.7 1430.83 1331.85 Q1430.83 1330.47 1429.86 1329.61 Q1428.9 1328.74 1427.35 1328.74 Q1426.25 1328.74 1425.02 1329.12 Q1423.81 1329.5 1422.42 1330.28 L1422.42 1327.92 Q1423.83 1327.35 1425.06 1327.06 Q1426.29 1326.77 1427.3 1326.77 Q1429.99 1326.77 1431.59 1328.11 Q1433.18 1329.46 1433.18 1331.7 Q1433.18 1332.77 1432.78 1333.73 Q1432.38 1334.68 1431.33 1335.97 Q1431.04 1336.31 1429.49 1337.92 Q1427.94 1339.51 1425.12 1342.4 Z" fill="#000000" fill-rule="evenodd" fill-opacity="1" /><path clip-path="url(#clip350)" d="M 0 0 M1440.81 1336.16 Q1439.14 1336.16 1438.18 1337.05 Q1437.23 1337.94 1437.23 1339.5 Q1437.23 1341.06 1438.18 1341.96 Q1439.14 1342.85 1440.81 1342.85 Q1442.48 1342.85 1443.44 1341.96 Q1444.4 1341.05 1444.4 1339.5 Q1444.4 1337.94 1443.44 1337.05 Q1442.49 1336.16 1440.81 1336.16 M1438.47 1335.16 Q1436.97 1334.79 1436.12 1333.76 Q1435.29 1332.73 1435.29 1331.25 Q1435.29 1329.18 1436.76 1327.97 Q1438.24 1326.77 1440.81 1326.77 Q1443.39 1326.77 1444.86 1327.97 Q1446.33 1329.18 1446.33 1331.25 Q1446.33 1332.73 1445.49 1333.76 Q1444.65 1334.79 1443.16 1335.16 Q1444.85 1335.56 1445.79 1336.7 Q1446.74 1337.85 1446.74 1339.5 Q1446.74 1342.01 1445.2 1343.36 Q1443.67 1344.7 1440.81 1344.7 Q1437.95 1344.7 1436.41 1343.36 Q1434.88 1342.01 1434.88 1339.5 Q1434.88 1337.85 1435.83 1336.7 Q1436.78 1335.56 1438.47 1335.16 M1437.62 1331.47 Q1437.62 1332.81 1438.45 1333.56 Q1439.29 1334.32 1440.81 1334.32 Q1442.32 1334.32 1443.16 1333.56 Q1444.02 1332.81 1444.02 1331.47 Q1444.02 1330.13 1443.16 1329.37 Q1442.32 1328.62 1440.81 1328.62 Q1439.29 1328.62 1438.45 1329.37 Q1437.62 1330.13 1437.62 1331.47 Z" fill="#000000" fill-rule="evenodd" fill-opacity="1" /><path clip-path="url(#clip350)" d="M 0 0 M1704.63 1284.13 L1706.98 1284.13 L1706.98 1294.63 Q1706.98 1297.4 1707.98 1298.63 Q1708.99 1299.85 1711.25 1299.85 Q1713.49 1299.85 1714.5 1298.63 Q1715.51 1297.4 1715.51 1294.63 L1715.51 1284.13 L1717.86 1284.13 L1717.86 1294.91 Q1717.86 1298.29 1716.18 1300.02 Q1714.51 1301.74 1711.25 1301.74 Q1707.97 1301.74 1706.29 1300.02 Q1704.63 1298.29 1704.63 1294.91 L1704.63 1284.13 Z" fill="#000000" fill-rule="evenodd" fill-opacity="1" /><path clip-path="url(#clip350)" d="M 0 0 M1720.18 1284.13 L1722.52 1284.13 L1722.52 1301.41 L1720.18 1301.41 L1720.18 1284.13 Z" fill="#000000" fill-rule="evenodd" fill-opacity="1" /><path clip-path="url(#clip350)" d="M 0 0 M1735.53 1293.58 L1735.53 1301.41 L1733.4 1301.41 L1733.4 1293.65 Q1733.4 1291.81 1732.68 1290.9 Q1731.97 1289.98 1730.53 1289.98 Q1728.81 1289.98 1727.81 1291.08 Q1726.81 1292.18 1726.81 1294.08 L1726.81 1301.41 L1724.67 1301.41 L1724.67 1288.45 L1726.81 1288.45 L1726.81 1290.46 Q1727.58 1289.29 1728.61 1288.71 Q1729.65 1288.13 1731 1288.13 Q1733.24 1288.13 1734.38 1289.52 Q1735.53 1290.9 1735.53 1293.58 Z" fill="#000000" fill-rule="evenodd" fill-opacity="1" /><path clip-path="url(#clip350)" d="M 0 0 M1739.87 1284.76 L1739.87 1288.45 L1744.26 1288.45 L1744.26 1290.1 L1739.87 1290.1 L1739.87 1297.14 Q1739.87 1298.72 1740.3 1299.17 Q1740.74 1299.63 1742.07 1299.63 L1744.26 1299.63 L1744.26 1301.41 L1742.07 1301.41 Q1739.6 1301.41 1738.67 1300.49 Q1737.73 1299.57 1737.73 1297.14 L1737.73 1290.1 L1736.17 1290.1 L1736.17 1288.45 L1737.73 1288.45 L1737.73 1284.76 L1739.87 1284.76 Z" fill="#000000" fill-rule="evenodd" fill-opacity="1" /><path clip-path="url(#clip350)" d="M 0 0 M1747.2 1299.44 L1751.02 1299.44 L1751.02 1286.26 L1746.86 1287.09 L1746.86 1284.96 L1750.99 1284.13 L1753.33 1284.13 L1753.33 1299.44 L1757.15 1299.44 L1757.15 1301.41 L1747.2 1301.41 L1747.2 1299.44 Z" fill="#000000" fill-rule="evenodd" fill-opacity="1" /><path clip-path="url(#clip350)" d="M 0 0 M1764.97 1291.84 Q1763.4 1291.84 1762.47 1292.91 Q1761.56 1293.99 1761.56 1295.86 Q1761.56 1297.73 1762.47 1298.82 Q1763.4 1299.89 1764.97 1299.89 Q1766.55 1299.89 1767.46 1298.82 Q1768.39 1297.73 1768.39 1295.86 Q1768.39 1293.99 1767.46 1292.91 Q1766.55 1291.84 1764.97 1291.84 M1769.62 1284.51 L1769.62 1286.64 Q1768.74 1286.22 1767.83 1286 Q1766.94 1285.78 1766.06 1285.78 Q1763.75 1285.78 1762.52 1287.35 Q1761.31 1288.91 1761.13 1292.07 Q1761.81 1291.06 1762.84 1290.53 Q1763.87 1289.98 1765.11 1289.98 Q1767.72 1289.98 1769.22 1291.57 Q1770.74 1293.14 1770.74 1295.86 Q1770.74 1298.53 1769.16 1300.13 Q1767.59 1301.74 1764.97 1301.74 Q1761.98 1301.74 1760.39 1299.45 Q1758.81 1297.15 1758.81 1292.79 Q1758.81 1288.69 1760.75 1286.26 Q1762.69 1283.82 1765.97 1283.82 Q1766.85 1283.82 1767.74 1283.99 Q1768.64 1284.16 1769.62 1284.51 Z" fill="#000000" fill-rule="evenodd" fill-opacity="1" /><path clip-path="url(#clip350)" d="M 0 0 M1627.58 1293.9 L1629.93 1293.9 L1629.93 1304.4 Q1629.93 1307.18 1630.93 1308.41 Q1631.94 1309.62 1634.2 1309.62 Q1636.44 1309.62 1637.45 1308.41 Q1638.46 1307.18 1638.46 1304.4 L1638.46 1293.9 L1640.81 1293.9 L1640.81 1304.69 Q1640.81 1308.07 1639.13 1309.8 Q1637.46 1311.52 1634.2 1311.52 Q1630.92 1311.52 1629.24 1309.8 Q1627.58 1308.07 1627.58 1304.69 L1627.58 1293.9 Z" fill="#000000" fill-rule="evenodd" fill-opacity="1" /><path clip-path="url(#clip350)" d="M 0 0 M1643.13 1293.9 L1645.47 1293.9 L1645.47 1311.18 L1643.13 1311.18 L1643.13 1293.9 Z" fill="#000000" fill-rule="evenodd" fill-opacity="1" /><path clip-path="url(#clip350)" d="M 0 0 M1658.48 1303.36 L1658.48 1311.18 L1656.35 1311.18 L1656.35 1303.43 Q1656.35 1301.59 1655.63 1300.68 Q1654.91 1299.76 1653.48 1299.76 Q1651.75 1299.76 1650.76 1300.86 Q1649.76 1301.96 1649.76 1303.86 L1649.76 1311.18 L1647.62 1311.18 L1647.62 1298.22 L1649.76 1298.22 L1649.76 1300.24 Q1650.53 1299.07 1651.56 1298.49 Q1652.6 1297.91 1653.95 1297.91 Q1656.19 1297.91 1657.33 1299.3 Q1658.48 1300.68 1658.48 1303.36 Z" fill="#000000" fill-rule="evenodd" fill-opacity="1" /><path clip-path="url(#clip350)" d="M 0 0 M1662.82 1294.54 L1662.82 1298.22 L1667.21 1298.22 L1667.21 1299.88 L1662.82 1299.88 L1662.82 1306.91 Q1662.82 1308.5 1663.25 1308.95 Q1663.69 1309.4 1665.02 1309.4 L1667.21 1309.4 L1667.21 1311.18 L1665.02 1311.18 Q1662.55 1311.18 1661.62 1310.27 Q1660.68 1309.34 1660.68 1306.91 L1660.68 1299.88 L1659.12 1299.88 L1659.12 1298.22 L1660.68 1298.22 L1660.68 1294.54 L1662.82 1294.54 Z" fill="#000000" fill-rule="evenodd" fill-opacity="1" /><path clip-path="url(#clip350)" d="M 0 0 M1676.82 1301.87 Q1678.5 1302.23 1679.44 1303.36 Q1680.39 1304.49 1680.39 1306.16 Q1680.39 1308.72 1678.63 1310.12 Q1676.87 1311.52 1673.63 1311.52 Q1672.54 1311.52 1671.38 1311.3 Q1670.24 1311.09 1669.01 1310.66 L1669.01 1308.41 Q1669.98 1308.97 1671.14 1309.26 Q1672.3 1309.55 1673.56 1309.55 Q1675.76 1309.55 1676.9 1308.68 Q1678.06 1307.82 1678.06 1306.16 Q1678.06 1304.63 1676.99 1303.78 Q1675.92 1302.91 1674.01 1302.91 L1672 1302.91 L1672 1300.99 L1674.1 1300.99 Q1675.83 1300.99 1676.74 1300.31 Q1677.66 1299.61 1677.66 1298.31 Q1677.66 1296.98 1676.71 1296.28 Q1675.77 1295.56 1674.01 1295.56 Q1673.05 1295.56 1671.95 1295.77 Q1670.85 1295.98 1669.53 1296.42 L1669.53 1294.33 Q1670.86 1293.96 1672.02 1293.78 Q1673.19 1293.59 1674.22 1293.59 Q1676.88 1293.59 1678.43 1294.81 Q1679.98 1296.01 1679.98 1298.07 Q1679.98 1299.51 1679.16 1300.5 Q1678.34 1301.49 1676.82 1301.87 Z" fill="#000000" fill-rule="evenodd" fill-opacity="1" /><path clip-path="url(#clip350)" d="M 0 0 M1684.94 1309.22 L1693.1 1309.22 L1693.1 1311.18 L1682.12 1311.18 L1682.12 1309.22 Q1683.46 1307.84 1685.75 1305.53 Q1688.05 1303.2 1688.64 1302.53 Q1689.76 1301.27 1690.2 1300.4 Q1690.65 1299.52 1690.65 1298.67 Q1690.65 1297.3 1689.68 1296.43 Q1688.72 1295.56 1687.17 1295.56 Q1686.07 1295.56 1684.84 1295.94 Q1683.63 1296.32 1682.24 1297.1 L1682.24 1294.74 Q1683.65 1294.17 1684.88 1293.88 Q1686.11 1293.59 1687.12 1293.59 Q1689.81 1293.59 1691.41 1294.93 Q1693 1296.28 1693 1298.52 Q1693 1299.59 1692.6 1300.55 Q1692.21 1301.5 1691.15 1302.79 Q1690.86 1303.13 1689.31 1304.74 Q1687.76 1306.34 1684.94 1309.22 Z" fill="#000000" fill-rule="evenodd" fill-opacity="1" /><path clip-path="url(#clip350)" d="M 0 0 M1465.65 1284.33 L1468 1284.33 L1468 1294.83 Q1468 1297.61 1469 1298.84 Q1470.01 1300.05 1472.27 1300.05 Q1474.51 1300.05 1475.52 1298.84 Q1476.53 1297.61 1476.53 1294.83 L1476.53 1284.33 L1478.88 1284.33 L1478.88 1295.12 Q1478.88 1298.5 1477.2 1300.22 Q1475.53 1301.95 1472.27 1301.95 Q1468.99 1301.95 1467.31 1300.22 Q1465.65 1298.5 1465.65 1295.12 L1465.65 1284.33 Z" fill="#000000" fill-rule="evenodd" fill-opacity="1" /><path clip-path="url(#clip350)" d="M 0 0 M1481.2 1284.33 L1483.54 1284.33 L1483.54 1301.61 L1481.2 1301.61 L1481.2 1284.33 Z" fill="#000000" fill-rule="evenodd" fill-opacity="1" /><path clip-path="url(#clip350)" d="M 0 0 M1496.55 1293.79 L1496.55 1301.61 L1494.42 1301.61 L1494.42 1293.86 Q1494.42 1292.02 1493.7 1291.1 Q1492.99 1290.19 1491.55 1290.19 Q1489.83 1290.19 1488.83 1291.29 Q1487.84 1292.39 1487.84 1294.29 L1487.84 1301.61 L1485.69 1301.61 L1485.69 1288.65 L1487.84 1288.65 L1487.84 1290.66 Q1488.6 1289.5 1489.63 1288.92 Q1490.67 1288.34 1492.03 1288.34 Q1494.26 1288.34 1495.41 1289.73 Q1496.55 1291.1 1496.55 1293.79 Z" fill="#000000" fill-rule="evenodd" fill-opacity="1" /><path clip-path="url(#clip350)" d="M 0 0 M1500.89 1284.97 L1500.89 1288.65 L1505.28 1288.65 L1505.28 1290.31 L1500.89 1290.31 L1500.89 1297.34 Q1500.89 1298.93 1501.32 1299.38 Q1501.76 1299.83 1503.09 1299.83 L1505.28 1299.83 L1505.28 1301.61 L1503.09 1301.61 Q1500.62 1301.61 1499.69 1300.7 Q1498.75 1299.77 1498.75 1297.34 L1498.75 1290.31 L1497.19 1290.31 L1497.19 1288.65 L1498.75 1288.65 L1498.75 1284.97 L1500.89 1284.97 Z" fill="#000000" fill-rule="evenodd" fill-opacity="1" /><path clip-path="url(#clip350)" d="M 0 0 M1513.1 1292.04 Q1511.53 1292.04 1510.6 1293.12 Q1509.69 1294.19 1509.69 1296.07 Q1509.69 1297.93 1510.6 1299.02 Q1511.53 1300.1 1513.1 1300.1 Q1514.68 1300.1 1515.59 1299.02 Q1516.52 1297.93 1516.52 1296.07 Q1516.52 1294.19 1515.59 1293.12 Q1514.68 1292.04 1513.1 1292.04 M1517.74 1284.72 L1517.74 1286.84 Q1516.86 1286.43 1515.96 1286.21 Q1515.07 1285.99 1514.19 1285.99 Q1511.87 1285.99 1510.65 1287.55 Q1509.43 1289.11 1509.26 1292.27 Q1509.94 1291.27 1510.97 1290.73 Q1512 1290.19 1513.24 1290.19 Q1515.84 1290.19 1517.35 1291.78 Q1518.87 1293.35 1518.87 1296.07 Q1518.87 1298.73 1517.29 1300.34 Q1515.72 1301.95 1513.1 1301.95 Q1510.1 1301.95 1508.52 1299.66 Q1506.93 1297.35 1506.93 1292.99 Q1506.93 1288.89 1508.88 1286.46 Q1510.82 1284.02 1514.1 1284.02 Q1514.98 1284.02 1515.87 1284.19 Q1516.77 1284.37 1517.74 1284.72 Z" fill="#000000" fill-rule="evenodd" fill-opacity="1" /><path clip-path="url(#clip350)" d="M 0 0 M1527.82 1286.37 L1521.92 1295.59 L1527.82 1295.59 L1527.82 1286.37 M1527.21 1284.33 L1530.15 1284.33 L1530.15 1295.59 L1532.62 1295.59 L1532.62 1297.54 L1530.15 1297.54 L1530.15 1301.61 L1527.82 1301.61 L1527.82 1297.54 L1520.02 1297.54 L1520.02 1295.28 L1527.21 1284.33 Z" fill="#000000" fill-rule="evenodd" fill-opacity="1" /><path clip-path="url(#clip350)" d="M 0 0 M1573.24 1258.77 L1575.59 1258.77 L1575.59 1269.27 Q1575.59 1272.05 1576.6 1273.27 Q1577.61 1274.49 1579.86 1274.49 Q1582.11 1274.49 1583.12 1273.27 Q1584.12 1272.05 1584.12 1269.27 L1584.12 1258.77 L1586.47 1258.77 L1586.47 1269.56 Q1586.47 1272.94 1584.79 1274.66 Q1583.13 1276.39 1579.86 1276.39 Q1576.59 1276.39 1574.91 1274.66 Q1573.24 1272.94 1573.24 1269.56 L1573.24 1258.77 Z" fill="#000000" fill-rule="evenodd" fill-opacity="1" /><path clip-path="url(#clip350)" d="M 0 0 M1588.8 1258.77 L1591.14 1258.77 L1591.14 1276.05 L1588.8 1276.05 L1588.8 1258.77 Z" fill="#000000" fill-rule="evenodd" fill-opacity="1" /><path clip-path="url(#clip350)" d="M 0 0 M1604.15 1268.23 L1604.15 1276.05 L1602.02 1276.05 L1602.02 1268.3 Q1602.02 1266.46 1601.3 1265.54 Q1600.58 1264.63 1599.15 1264.63 Q1597.42 1264.63 1596.43 1265.73 Q1595.43 1266.83 1595.43 1268.72 L1595.43 1276.05 L1593.29 1276.05 L1593.29 1263.09 L1595.43 1263.09 L1595.43 1265.1 Q1596.2 1263.93 1597.23 1263.35 Q1598.27 1262.78 1599.62 1262.78 Q1601.85 1262.78 1603 1264.16 Q1604.15 1265.54 1604.15 1268.23 Z" fill="#000000" fill-rule="evenodd" fill-opacity="1" /><path clip-path="url(#clip350)" d="M 0 0 M1608.49 1259.41 L1608.49 1263.09 L1612.87 1263.09 L1612.87 1264.74 L1608.49 1264.74 L1608.49 1271.78 Q1608.49 1273.37 1608.91 1273.82 Q1609.35 1274.27 1610.69 1274.27 L1612.87 1274.27 L1612.87 1276.05 L1610.69 1276.05 Q1608.22 1276.05 1607.28 1275.14 Q1606.35 1274.21 1606.35 1271.78 L1606.35 1264.74 L1604.78 1264.74 L1604.78 1263.09 L1606.35 1263.09 L1606.35 1259.41 L1608.49 1259.41 Z" fill="#000000" fill-rule="evenodd" fill-opacity="1" /><path clip-path="url(#clip350)" d="M 0 0 M1620.41 1267.84 Q1618.74 1267.84 1617.78 1268.74 Q1616.83 1269.63 1616.83 1271.19 Q1616.83 1272.75 1617.78 1273.64 Q1618.74 1274.53 1620.41 1274.53 Q1622.07 1274.53 1623.04 1273.64 Q1624 1272.74 1624 1271.19 Q1624 1269.63 1623.04 1268.74 Q1622.09 1267.84 1620.41 1267.84 M1618.07 1266.85 Q1616.57 1266.48 1615.72 1265.45 Q1614.89 1264.42 1614.89 1262.94 Q1614.89 1260.87 1616.36 1259.66 Q1617.84 1258.46 1620.41 1258.46 Q1622.99 1258.46 1624.46 1259.66 Q1625.93 1260.87 1625.93 1262.94 Q1625.93 1264.42 1625.08 1265.45 Q1624.25 1266.48 1622.76 1266.85 Q1624.45 1267.24 1625.38 1268.39 Q1626.33 1269.53 1626.33 1271.19 Q1626.33 1273.7 1624.79 1275.04 Q1623.27 1276.39 1620.41 1276.39 Q1617.55 1276.39 1616.01 1275.04 Q1614.48 1273.7 1614.48 1271.19 Q1614.48 1269.53 1615.43 1268.39 Q1616.38 1267.24 1618.07 1266.85 M1617.21 1263.16 Q1617.21 1264.5 1618.05 1265.25 Q1618.89 1266 1620.41 1266 Q1621.91 1266 1622.76 1265.25 Q1623.61 1264.5 1623.61 1263.16 Q1623.61 1261.81 1622.76 1261.06 Q1621.91 1260.31 1620.41 1260.31 Q1618.89 1260.31 1618.05 1261.06 Q1617.21 1261.81 1617.21 1263.16 Z" fill="#000000" fill-rule="evenodd" fill-opacity="1" /></svg>
