<?xml version="1.0" encoding="utf-8"?>
<svg xmlns="http://www.w3.org/2000/svg" xmlns:xlink="http://www.w3.org/1999/xlink" width="600" height="400" viewBox="0 0 2400 1600">
<defs>
  <clipPath id="clip380">
    <rect x="0" y="0" width="2400" height="1600"/>
  </clipPath>
</defs>
<path clip-path="url(#clip380)" d="
M0 1600 L2400 1600 L2400 0 L0 0  Z
  " fill="#ffffff" fill-rule="evenodd" fill-opacity="1"/>
<defs>
  <clipPath id="clip381">
    <rect x="480" y="0" width="1681" height="1600"/>
  </clipPath>
</defs>
<path clip-path="url(#clip380)" d="
M447.244 1552.76 L1952.76 1552.76 L1952.76 47.2441 L447.244 47.2441  Z
  " fill="#ffffff" fill-rule="evenodd" fill-opacity="1"/>
<defs>
  <clipPath id="clip382">
    <rect x="447" y="47" width="1507" height="1507"/>
  </clipPath>
</defs>
<polyline clip-path="url(#clip382)" style="stroke:#000000; stroke-width:4; stroke-opacity:1; fill:none" points="
  1330.31,262.317 1330.25,271.385 1330.07,280.642 1329.78,290.073 1329.4,299.664 1328.92,309.402 1328.36,319.273 1327.72,329.262 1327.02,339.356 1326.27,349.54 
  1325.46,359.801 1324.62,370.125 1323.75,380.498 1322.85,390.906 1321.95,401.335 1321.03,411.771 1320.12,422.199 1319.23,432.607 1318.36,442.98 1317.51,453.304 
  1316.71,463.565 1315.95,473.75 1315.25,483.844 1314.62,493.833 1314.06,503.703 1313.58,513.441 1313.19,523.033 1312.91,532.464 1312.73,541.72 1312.67,550.788 
  
  "/>
<polyline clip-path="url(#clip382)" style="stroke:#000000; stroke-width:4; stroke-opacity:1; fill:none" points="
  1312.67,550.788 1312.61,560.343 1312.46,570.097 1312.2,580.036 1311.87,590.146 1311.45,600.41 1310.96,610.815 1310.4,621.346 1309.79,631.988 1309.13,642.725 
  1308.42,653.544 1307.69,664.43 1306.92,675.368 1306.14,686.342 1305.35,697.339 1304.55,708.343 1303.75,719.339 1302.97,730.314 1302.21,741.251 1301.47,752.137 
  1300.77,762.956 1300.1,773.694 1299.49,784.335 1298.94,794.866 1298.45,805.271 1298.03,815.535 1297.69,825.645 1297.44,835.584 1297.28,845.338 1297.23,854.893 
  
  "/>
<polyline clip-path="url(#clip382)" style="stroke:#000000; stroke-width:4; stroke-opacity:1; fill:none" points="
  1297.23,854.893 1296.94,863.607 1296.09,872.421 1294.73,881.329 1292.9,890.322 1290.64,899.394 1287.99,908.536 1284.99,917.742 1281.68,927.003 1278.1,936.313 
  1274.3,945.664 1270.31,955.048 1266.18,964.458 1261.95,973.887 1257.65,983.328 1253.34,992.771 1249.04,1002.21 1244.81,1011.64 1240.68,1021.05 1236.69,1030.44 
  1232.89,1039.79 1229.31,1049.1 1226.01,1058.36 1223,1067.56 1220.35,1076.71 1218.09,1085.78 1216.26,1094.77 1214.9,1103.68 1214.06,1112.49 1213.76,1121.21 
  
  "/>
<polyline clip-path="url(#clip382)" style="stroke:#000000; stroke-width:4; stroke-opacity:1; fill:none" points="
  1213.76,1121.21 1211.84,1129 1206.26,1136.28 1197.28,1143.08 1185.18,1149.43 1170.24,1155.39 1152.72,1160.97 1132.89,1166.24 1111.02,1171.21 1087.39,1175.94 
  1062.27,1180.45 1035.93,1184.79 1008.64,1189 980.673,1193.11 952.297,1197.17 923.785,1201.2 895.409,1205.26 867.44,1209.37 840.149,1213.58 813.808,1217.92 
  788.687,1222.43 765.059,1227.16 743.195,1232.13 723.366,1237.4 705.842,1242.98 690.897,1248.94 678.8,1255.29 669.824,1262.09 664.239,1269.37 662.317,1277.16 
  
  "/>
<polyline clip-path="url(#clip382)" style="stroke:#000000; stroke-width:4; stroke-opacity:1; fill:none" points="
  1213.76,1121.21 1212.77,1130.31 1209.86,1138.81 1205.2,1146.74 1198.91,1154.16 1191.14,1161.12 1182.04,1167.64 1171.73,1173.79 1160.37,1179.6 1148.09,1185.11 
  1135.03,1190.39 1121.34,1195.46 1107.16,1200.37 1092.62,1205.17 1077.87,1209.9 1063.06,1214.62 1048.31,1219.35 1033.77,1224.15 1019.59,1229.06 1005.9,1234.13 
  992.843,1239.41 980.563,1244.92 969.2,1250.73 958.894,1256.88 949.787,1263.4 942.02,1270.36 935.733,1277.78 931.068,1285.72 928.165,1294.21 927.166,1303.31 
  
  "/>
<polyline clip-path="url(#clip382)" style="stroke:#000000; stroke-width:4; stroke-opacity:1; fill:none" points="
  1213.76,1121.21 1215.59,1132.03 1220.9,1142.13 1229.42,1151.56 1240.92,1160.38 1255.12,1168.65 1271.77,1176.41 1290.6,1183.71 1311.38,1190.62 1333.83,1197.18 
  1357.69,1203.44 1382.72,1209.47 1408.65,1215.31 1435.22,1221.02 1462.18,1226.64 1489.27,1232.24 1516.23,1237.87 1542.8,1243.58 1568.73,1249.42 1593.76,1255.45 
  1617.62,1261.71 1640.07,1268.27 1660.84,1275.18 1679.68,1282.48 1696.33,1290.24 1710.53,1298.5 1722.02,1307.33 1730.55,1316.76 1735.86,1326.86 1737.68,1337.68 
  
  "/>
<polyline clip-path="url(#clip382)" style="stroke:#000000; stroke-width:4; stroke-opacity:1; fill:none" points="
  1213.76,1121.21 1214.71,1130.31 1217.47,1138.81 1221.9,1146.75 1227.86,1154.17 1235.24,1161.13 1243.88,1167.65 1253.66,1173.8 1264.45,1179.61 1276.11,1185.13 
  1288.5,1190.4 1301.5,1195.47 1314.96,1200.39 1328.76,1205.19 1342.76,1209.92 1356.82,1214.64 1370.82,1219.37 1384.62,1224.17 1398.08,1229.09 1411.08,1234.16 
  1423.47,1239.43 1435.13,1244.95 1445.91,1250.76 1455.7,1256.91 1464.34,1263.44 1471.72,1270.39 1477.68,1277.81 1482.11,1285.75 1484.87,1294.25 1485.81,1303.36 
  
  "/>
<path clip-path="url(#clip382)" d="
M1358.28 262.317 L1344.3 238.095 L1316.33 238.095 L1302.34 262.317 L1316.33 286.539 L1344.3 286.539 L1358.28 262.317 L1358.28 262.317  Z
  " fill="#009af9" fill-rule="evenodd" fill-opacity="1"/>
<polyline clip-path="url(#clip382)" style="stroke:#000000; stroke-width:4; stroke-opacity:1; fill:none" points="
  1358.28,262.317 1344.3,238.095 1316.33,238.095 1302.34,262.317 1316.33,286.539 1344.3,286.539 1358.28,262.317 
  "/>
<path clip-path="url(#clip382)" d="
M1361.36 550.788 L1337.01 508.616 L1288.32 508.616 L1263.97 550.788 L1288.32 592.961 L1337.01 592.961 L1361.36 550.788 L1361.36 550.788  Z
  " fill="#009af9" fill-rule="evenodd" fill-opacity="1"/>
<polyline clip-path="url(#clip382)" style="stroke:#000000; stroke-width:4; stroke-opacity:1; fill:none" points="
  1361.36,550.788 1337.01,508.616 1288.32,508.616 1263.97,550.788 1288.32,592.961 1337.01,592.961 1361.36,550.788 
  "/>
<path clip-path="url(#clip382)" d="
M1332.43 854.893 L1314.83 824.403 L1279.62 824.403 L1262.02 854.893 L1279.62 885.383 L1314.83 885.383 L1332.43 854.893 L1332.43 854.893  Z
  " fill="#009af9" fill-rule="evenodd" fill-opacity="1"/>
<polyline clip-path="url(#clip382)" style="stroke:#000000; stroke-width:4; stroke-opacity:1; fill:none" points="
  1332.43,854.893 1314.83,824.403 1279.62,824.403 1262.02,854.893 1279.62,885.383 1314.83,885.383 1332.43,854.893 
  "/>
<path clip-path="url(#clip382)" d="
M1304.16 1121.21 L1258.96 1042.92 L1168.57 1042.92 L1123.37 1121.21 L1168.57 1199.49 L1258.96 1199.49 L1304.16 1121.21 L1304.16 1121.21  Z
  " fill="#009af9" fill-rule="evenodd" fill-opacity="1"/>
<polyline clip-path="url(#clip382)" style="stroke:#000000; stroke-width:4; stroke-opacity:1; fill:none" points="
  1304.16,1121.21 1258.96,1042.92 1168.57,1042.92 1123.37,1121.21 1168.57,1199.49 1258.96,1199.49 1304.16,1121.21 
  "/>
<path clip-path="url(#clip382)" d="
M723.616 1277.16 L692.967 1224.08 L631.668 1224.08 L601.018 1277.16 L631.668 1330.25 L692.967 1330.25 L723.616 1277.16 L723.616 1277.16  Z
  " fill="#009af9" fill-rule="evenodd" fill-opacity="1"/>
<polyline clip-path="url(#clip382)" style="stroke:#000000; stroke-width:4; stroke-opacity:1; fill:none" points="
  723.616,1277.16 692.967,1224.08 631.668,1224.08 601.018,1277.16 631.668,1330.25 692.967,1330.25 723.616,1277.16 
  "/>
<path clip-path="url(#clip382)" d="
M982.254 1303.31 L954.71 1255.61 L899.622 1255.61 L872.078 1303.31 L899.622 1351.02 L954.71 1351.02 L982.254 1303.31 L982.254 1303.31  Z
  " fill="#009af9" fill-rule="evenodd" fill-opacity="1"/>
<polyline clip-path="url(#clip382)" style="stroke:#000000; stroke-width:4; stroke-opacity:1; fill:none" points="
  982.254,1303.31 954.71,1255.61 899.622,1255.61 872.078,1303.31 899.622,1351.02 954.71,1351.02 982.254,1303.31 
  "/>
<path clip-path="url(#clip382)" d="
M1792.77 1337.68 L1765.23 1289.98 L1710.14 1289.98 L1682.59 1337.68 L1710.14 1385.39 L1765.23 1385.39 L1792.77 1337.68 L1792.77 1337.68  Z
  " fill="#009af9" fill-rule="evenodd" fill-opacity="1"/>
<polyline clip-path="url(#clip382)" style="stroke:#000000; stroke-width:4; stroke-opacity:1; fill:none" points="
  1792.77,1337.68 1765.23,1289.98 1710.14,1289.98 1682.59,1337.68 1710.14,1385.39 1765.23,1385.39 1792.77,1337.68 
  "/>
<path clip-path="url(#clip382)" d="
M1540.9 1303.36 L1513.36 1255.65 L1458.27 1255.65 L1430.73 1303.36 L1458.27 1351.06 L1513.36 1351.06 L1540.9 1303.36 L1540.9 1303.36  Z
  " fill="#009af9" fill-rule="evenodd" fill-opacity="1"/>
<polyline clip-path="url(#clip382)" style="stroke:#000000; stroke-width:4; stroke-opacity:1; fill:none" points="
  1540.9,1303.36 1513.36,1255.65 1458.27,1255.65 1430.73,1303.36 1458.27,1351.06 1513.36,1351.06 1540.9,1303.36 
  "/>
<circle clip-path="url(#clip382)" style="fill:#009af9; stroke:none; fill-opacity:1" cx="1330.31" cy="262.317" r="2"/>
<circle clip-path="url(#clip382)" style="fill:#009af9; stroke:none; fill-opacity:1" cx="1312.67" cy="550.788" r="2"/>
<circle clip-path="url(#clip382)" style="fill:#009af9; stroke:none; fill-opacity:1" cx="1297.23" cy="854.893" r="2"/>
<circle clip-path="url(#clip382)" style="fill:#009af9; stroke:none; fill-opacity:1" cx="1213.76" cy="1121.21" r="2"/>
<circle clip-path="url(#clip382)" style="fill:#009af9; stroke:none; fill-opacity:1" cx="662.317" cy="1277.16" r="2"/>
<circle clip-path="url(#clip382)" style="fill:#009af9; stroke:none; fill-opacity:1" cx="927.166" cy="1303.31" r="2"/>
<circle clip-path="url(#clip382)" style="fill:#009af9; stroke:none; fill-opacity:1" cx="1737.68" cy="1337.68" r="2"/>
<circle clip-path="url(#clip382)" style="fill:#009af9; stroke:none; fill-opacity:1" cx="1485.81" cy="1303.36" r="2"/>
<path clip-path="url(#clip380)" d="M 0 0 M1317.15 255.98 L1313.98 264.58 L1320.33 264.58 L1317.15 255.98 M1315.83 253.677 L1318.48 253.677 L1325.06 270.957 L1322.63 270.957 L1321.06 266.524 L1313.27 266.524 L1311.69 270.957 L1309.23 270.957 L1315.83 253.677 Z" fill="#000000" fill-rule="evenodd" fill-opacity="1" /><path clip-path="url(#clip380)" d="M 0 0 M1338.07 263.133 L1338.07 270.957 L1335.94 270.957 L1335.94 263.203 Q1335.94 261.362 1335.22 260.448 Q1334.51 259.534 1333.07 259.534 Q1331.35 259.534 1330.35 260.633 Q1329.36 261.733 1329.36 263.631 L1329.36 270.957 L1327.22 270.957 L1327.22 257.994 L1329.36 257.994 L1329.36 260.008 Q1330.12 258.839 1331.15 258.261 Q1332.19 257.682 1333.55 257.682 Q1335.78 257.682 1336.93 259.071 Q1338.07 260.448 1338.07 263.133 Z" fill="#000000" fill-rule="evenodd" fill-opacity="1" /><path clip-path="url(#clip380)" d="M 0 0 M1345.7 272.161 Q1344.8 274.476 1343.94 275.182 Q1343.08 275.888 1341.65 275.888 L1339.95 275.888 L1339.95 274.105 L1341.2 274.105 Q1342.08 274.105 1342.56 273.689 Q1343.05 273.272 1343.64 271.721 L1344.02 270.749 L1338.78 257.994 L1341.04 257.994 L1345.09 268.133 L1349.14 257.994 L1351.39 257.994 L1345.7 272.161 Z" fill="#000000" fill-rule="evenodd" fill-opacity="1" /><path clip-path="url(#clip380)" d="M 0 0 M1270.74 542.148 L1273.89 542.148 L1281.56 556.604 L1281.56 542.148 L1283.82 542.148 L1283.82 559.428 L1280.68 559.428 L1273.01 544.972 L1273.01 559.428 L1270.74 559.428 L1270.74 542.148 Z" fill="#000000" fill-rule="evenodd" fill-opacity="1" /><path clip-path="url(#clip380)" d="M 0 0 M1285.84 554.313 L1285.84 546.465 L1287.97 546.465 L1287.97 554.232 Q1287.97 556.072 1288.68 556.998 Q1289.4 557.912 1290.84 557.912 Q1292.56 557.912 1293.56 556.813 Q1294.56 555.713 1294.56 553.815 L1294.56 546.465 L1296.69 546.465 L1296.69 559.428 L1294.56 559.428 L1294.56 557.438 Q1293.79 558.618 1292.76 559.197 Q1291.74 559.764 1290.39 559.764 Q1288.15 559.764 1286.99 558.375 Q1285.84 556.986 1285.84 554.313 M1291.2 546.153 L1291.2 546.153 Z" fill="#000000" fill-rule="evenodd" fill-opacity="1" /><path clip-path="url(#clip380)" d="M 0 0 M1309.02 548.954 Q1309.82 547.519 1310.93 546.836 Q1312.04 546.153 1313.55 546.153 Q1315.57 546.153 1316.67 547.576 Q1317.77 548.988 1317.77 551.604 L1317.77 559.428 L1315.63 559.428 L1315.63 551.674 Q1315.63 549.81 1314.97 548.907 Q1314.31 548.005 1312.96 548.005 Q1311.3 548.005 1310.34 549.104 Q1309.38 550.204 1309.38 552.102 L1309.38 559.428 L1307.24 559.428 L1307.24 551.674 Q1307.24 549.799 1306.58 548.907 Q1305.92 548.005 1304.54 548.005 Q1302.91 548.005 1301.95 549.116 Q1300.99 550.215 1300.99 552.102 L1300.99 559.428 L1298.85 559.428 L1298.85 546.465 L1300.99 546.465 L1300.99 548.479 Q1301.72 547.287 1302.74 546.72 Q1303.75 546.153 1305.15 546.153 Q1306.57 546.153 1307.55 546.87 Q1308.55 547.588 1309.02 548.954 Z" fill="#000000" fill-rule="evenodd" fill-opacity="1" /><path clip-path="url(#clip380)" d="M 0 0 M1329.31 552.958 Q1329.31 550.609 1328.34 549.278 Q1327.38 547.935 1325.69 547.935 Q1324 547.935 1323.02 549.278 Q1322.06 550.609 1322.06 552.958 Q1322.06 555.308 1323.02 556.65 Q1324 557.981 1325.69 557.981 Q1327.38 557.981 1328.34 556.65 Q1329.31 555.308 1329.31 552.958 M1322.06 548.433 Q1322.74 547.276 1323.75 546.72 Q1324.78 546.153 1326.21 546.153 Q1328.57 546.153 1330.04 548.028 Q1331.52 549.903 1331.52 552.958 Q1331.52 556.014 1330.04 557.889 Q1328.57 559.764 1326.21 559.764 Q1324.78 559.764 1323.75 559.208 Q1322.74 558.641 1322.06 557.484 L1322.06 559.428 L1319.92 559.428 L1319.92 541.419 L1322.06 541.419 L1322.06 548.433 Z" fill="#000000" fill-rule="evenodd" fill-opacity="1" /><path clip-path="url(#clip380)" d="M 0 0 M1344.84 552.414 L1344.84 553.456 L1335.05 553.456 Q1335.19 555.655 1336.37 556.813 Q1337.56 557.958 1339.68 557.958 Q1340.91 557.958 1342.05 557.657 Q1343.21 557.356 1344.34 556.755 L1344.34 558.769 Q1343.2 559.255 1341.99 559.509 Q1340.79 559.764 1339.55 559.764 Q1336.45 559.764 1334.63 557.958 Q1332.83 556.153 1332.83 553.074 Q1332.83 549.891 1334.54 548.028 Q1336.27 546.153 1339.18 546.153 Q1341.8 546.153 1343.31 547.843 Q1344.84 549.521 1344.84 552.414 M1342.71 551.789 Q1342.69 550.042 1341.73 549 Q1340.78 547.958 1339.21 547.958 Q1337.42 547.958 1336.35 548.965 Q1335.28 549.972 1335.12 551.801 L1342.71 551.789 Z" fill="#000000" fill-rule="evenodd" fill-opacity="1" /><path clip-path="url(#clip380)" d="M 0 0 M1354.59 548.456 Q1354.23 548.248 1353.8 548.155 Q1353.38 548.051 1352.87 548.051 Q1351.07 548.051 1350.1 549.232 Q1349.14 550.401 1349.14 552.6 L1349.14 559.428 L1346.99 559.428 L1346.99 546.465 L1349.14 546.465 L1349.14 548.479 Q1349.81 547.299 1350.88 546.732 Q1351.96 546.153 1353.5 546.153 Q1353.72 546.153 1353.99 546.188 Q1354.25 546.211 1354.58 546.269 L1354.59 548.456 Z" fill="#000000" fill-rule="evenodd" fill-opacity="1" /><path clip-path="url(#clip380)" d="M 0 0 M1284.2 855.431 Q1284.95 855.686 1285.65 856.519 Q1286.37 857.352 1287.09 858.811 L1289.46 863.533 L1286.95 863.533 L1284.74 859.1 Q1283.88 857.364 1283.07 856.797 Q1282.27 856.23 1280.89 856.23 L1278.34 856.23 L1278.34 863.533 L1276 863.533 L1276 846.253 L1281.28 846.253 Q1284.24 846.253 1285.7 847.491 Q1287.16 848.73 1287.16 851.23 Q1287.16 852.862 1286.39 853.938 Q1285.64 855.014 1284.2 855.431 M1278.34 848.174 L1278.34 854.308 L1281.28 854.308 Q1282.97 854.308 1283.82 853.533 Q1284.69 852.746 1284.69 851.23 Q1284.69 849.713 1283.82 848.95 Q1282.97 848.174 1281.28 848.174 L1278.34 848.174 Z" fill="#000000" fill-rule="evenodd" fill-opacity="1" /><path clip-path="url(#clip380)" d="M 0 0 M1301.72 856.519 L1301.72 857.561 L1291.93 857.561 Q1292.07 859.76 1293.25 860.917 Q1294.44 862.063 1296.56 862.063 Q1297.78 862.063 1298.93 861.762 Q1300.09 861.461 1301.22 860.859 L1301.22 862.873 Q1300.07 863.359 1298.87 863.614 Q1297.67 863.868 1296.43 863.868 Q1293.33 863.868 1291.51 862.063 Q1289.7 860.257 1289.7 857.179 Q1289.7 853.996 1291.42 852.132 Q1293.14 850.257 1296.06 850.257 Q1298.67 850.257 1300.19 851.947 Q1301.72 853.625 1301.72 856.519 M1299.59 855.894 Q1299.57 854.146 1298.6 853.105 Q1297.66 852.063 1296.08 852.063 Q1294.3 852.063 1293.22 853.07 Q1292.16 854.077 1292 855.906 L1299.59 855.894 Z" fill="#000000" fill-rule="evenodd" fill-opacity="1" /><path clip-path="url(#clip380)" d="M 0 0 M1309.84 857.017 Q1307.26 857.017 1306.27 857.607 Q1305.27 858.197 1305.27 859.621 Q1305.27 860.755 1306.01 861.426 Q1306.76 862.086 1308.05 862.086 Q1309.82 862.086 1310.88 860.836 Q1311.96 859.574 1311.96 857.491 L1311.96 857.017 L1309.84 857.017 M1314.09 856.137 L1314.09 863.533 L1311.96 863.533 L1311.96 861.565 Q1311.23 862.746 1310.14 863.313 Q1309.06 863.868 1307.48 863.868 Q1305.49 863.868 1304.31 862.757 Q1303.14 861.635 1303.14 859.76 Q1303.14 857.572 1304.6 856.461 Q1306.07 855.35 1308.98 855.35 L1311.96 855.35 L1311.96 855.142 Q1311.96 853.672 1310.99 852.873 Q1310.03 852.063 1308.28 852.063 Q1307.17 852.063 1306.12 852.329 Q1305.06 852.595 1304.09 853.128 L1304.09 851.16 Q1305.26 850.709 1306.36 850.489 Q1307.46 850.257 1308.5 850.257 Q1311.31 850.257 1312.7 851.716 Q1314.09 853.174 1314.09 856.137 Z" fill="#000000" fill-rule="evenodd" fill-opacity="1" /><path clip-path="url(#clip380)" d="M 0 0 M1316.32 845.524 L1318.45 845.524 L1318.45 863.533 L1316.32 863.533 L1316.32 845.524 Z" fill="#000000" fill-rule="evenodd" fill-opacity="1" /><path clip-path="url(#clip380)" d="M 0 0 M1150.26 1114.87 L1147.09 1123.47 L1153.45 1123.47 L1150.26 1114.87 M1148.94 1112.57 L1151.59 1112.57 L1158.18 1129.85 L1155.75 1129.85 L1154.18 1125.41 L1146.39 1125.41 L1144.81 1129.85 L1142.35 1129.85 L1148.94 1112.57 Z" fill="#000000" fill-rule="evenodd" fill-opacity="1" /><path clip-path="url(#clip380)" d="M 0 0 M1169.72 1123.38 Q1169.72 1121.03 1168.75 1119.7 Q1167.79 1118.35 1166.1 1118.35 Q1164.41 1118.35 1163.43 1119.7 Q1162.47 1121.03 1162.47 1123.38 Q1162.47 1125.73 1163.43 1127.07 Q1164.41 1128.4 1166.1 1128.4 Q1167.79 1128.4 1168.75 1127.07 Q1169.72 1125.73 1169.72 1123.38 M1162.47 1118.85 Q1163.15 1117.69 1164.16 1117.14 Q1165.19 1116.57 1166.62 1116.57 Q1168.98 1116.57 1170.45 1118.45 Q1171.93 1120.32 1171.93 1123.38 Q1171.93 1126.43 1170.45 1128.31 Q1168.98 1130.18 1166.62 1130.18 Q1165.19 1130.18 1164.16 1129.63 Q1163.15 1129.06 1162.47 1127.9 L1162.47 1129.85 L1160.33 1129.85 L1160.33 1111.84 L1162.47 1111.84 L1162.47 1118.85 Z" fill="#000000" fill-rule="evenodd" fill-opacity="1" /><path clip-path="url(#clip380)" d="M 0 0 M1182.43 1117.27 L1182.43 1119.28 Q1181.53 1118.82 1180.55 1118.58 Q1179.58 1118.35 1178.54 1118.35 Q1176.95 1118.35 1176.15 1118.84 Q1175.37 1119.33 1175.37 1120.3 Q1175.37 1121.04 1175.93 1121.47 Q1176.5 1121.88 1178.21 1122.27 L1178.94 1122.43 Q1181.21 1122.91 1182.16 1123.8 Q1183.12 1124.68 1183.12 1126.27 Q1183.12 1128.08 1181.69 1129.13 Q1180.26 1130.18 1177.76 1130.18 Q1176.72 1130.18 1175.59 1129.97 Q1174.46 1129.78 1173.21 1129.37 L1173.21 1127.17 Q1174.4 1127.79 1175.54 1128.1 Q1176.69 1128.4 1177.81 1128.4 Q1179.31 1128.4 1180.12 1127.89 Q1180.93 1127.37 1180.93 1126.43 Q1180.93 1125.56 1180.34 1125.1 Q1179.77 1124.64 1177.79 1124.21 L1177.05 1124.04 Q1175.07 1123.62 1174.19 1122.76 Q1173.31 1121.89 1173.31 1120.39 Q1173.31 1118.56 1174.6 1117.57 Q1175.9 1116.57 1178.28 1116.57 Q1179.46 1116.57 1180.51 1116.74 Q1181.55 1116.92 1182.43 1117.27 Z" fill="#000000" fill-rule="evenodd" fill-opacity="1" /><path clip-path="url(#clip380)" d="M 0 0 M1187.46 1113.2 L1187.46 1116.88 L1191.85 1116.88 L1191.85 1118.54 L1187.46 1118.54 L1187.46 1125.58 Q1187.46 1127.16 1187.89 1127.61 Q1188.33 1128.06 1189.66 1128.06 L1191.85 1128.06 L1191.85 1129.85 L1189.66 1129.85 Q1187.2 1129.85 1186.26 1128.93 Q1185.32 1128.01 1185.32 1125.58 L1185.32 1118.54 L1183.76 1118.54 L1183.76 1116.88 L1185.32 1116.88 L1185.32 1113.2 L1187.46 1113.2 Z" fill="#000000" fill-rule="evenodd" fill-opacity="1" /><path clip-path="url(#clip380)" d="M 0 0 M1201.59 1118.87 Q1201.24 1118.67 1200.81 1118.57 Q1200.39 1118.47 1199.88 1118.47 Q1198.08 1118.47 1197.1 1119.65 Q1196.14 1120.82 1196.14 1123.02 L1196.14 1129.85 L1194 1129.85 L1194 1116.88 L1196.14 1116.88 L1196.14 1118.9 Q1196.81 1117.72 1197.89 1117.15 Q1198.97 1116.57 1200.51 1116.57 Q1200.73 1116.57 1200.99 1116.61 Q1201.26 1116.63 1201.58 1116.69 L1201.59 1118.87 Z" fill="#000000" fill-rule="evenodd" fill-opacity="1" /><path clip-path="url(#clip380)" d="M 0 0 M1209.72 1123.33 Q1207.14 1123.33 1206.14 1123.92 Q1205.15 1124.51 1205.15 1125.93 Q1205.15 1127.07 1205.89 1127.74 Q1206.64 1128.4 1207.93 1128.4 Q1209.7 1128.4 1210.76 1127.15 Q1211.84 1125.89 1211.84 1123.8 L1211.84 1123.33 L1209.72 1123.33 M1213.97 1122.45 L1213.97 1129.85 L1211.84 1129.85 L1211.84 1127.88 Q1211.11 1129.06 1210.02 1129.63 Q1208.93 1130.18 1207.36 1130.18 Q1205.37 1130.18 1204.19 1129.07 Q1203.02 1127.95 1203.02 1126.07 Q1203.02 1123.89 1204.48 1122.77 Q1205.95 1121.66 1208.85 1121.66 L1211.84 1121.66 L1211.84 1121.46 Q1211.84 1119.99 1210.87 1119.19 Q1209.9 1118.38 1208.16 1118.38 Q1207.05 1118.38 1205.99 1118.64 Q1204.94 1118.91 1203.97 1119.44 L1203.97 1117.47 Q1205.14 1117.02 1206.24 1116.8 Q1207.34 1116.57 1208.38 1116.57 Q1211.19 1116.57 1212.58 1118.03 Q1213.97 1119.49 1213.97 1122.45 Z" fill="#000000" fill-rule="evenodd" fill-opacity="1" /><path clip-path="url(#clip380)" d="M 0 0 M1225.53 1117.38 L1225.53 1119.37 Q1224.63 1118.87 1223.71 1118.63 Q1222.81 1118.38 1221.88 1118.38 Q1219.81 1118.38 1218.67 1119.7 Q1217.52 1121 1217.52 1123.38 Q1217.52 1125.75 1218.67 1127.07 Q1219.81 1128.38 1221.88 1128.38 Q1222.81 1128.38 1223.71 1128.13 Q1224.63 1127.88 1225.53 1127.38 L1225.53 1129.35 Q1224.64 1129.77 1223.68 1129.97 Q1222.73 1130.18 1221.65 1130.18 Q1218.72 1130.18 1217 1128.34 Q1215.27 1126.5 1215.27 1123.38 Q1215.27 1120.21 1217.01 1118.39 Q1218.76 1116.57 1221.79 1116.57 Q1222.77 1116.57 1223.71 1116.78 Q1224.65 1116.98 1225.53 1117.38 Z" fill="#000000" fill-rule="evenodd" fill-opacity="1" /><path clip-path="url(#clip380)" d="M 0 0 M1229.87 1113.2 L1229.87 1116.88 L1234.26 1116.88 L1234.26 1118.54 L1229.87 1118.54 L1229.87 1125.58 Q1229.87 1127.16 1230.3 1127.61 Q1230.74 1128.06 1232.07 1128.06 L1234.26 1128.06 L1234.26 1129.85 L1232.07 1129.85 Q1229.6 1129.85 1228.67 1128.93 Q1227.73 1128.01 1227.73 1125.58 L1227.73 1118.54 L1226.17 1118.54 L1226.17 1116.88 L1227.73 1116.88 L1227.73 1113.2 L1229.87 1113.2 Z" fill="#000000" fill-rule="evenodd" fill-opacity="1" /><path clip-path="url(#clip380)" d="M 0 0 M1236.58 1112.57 L1246.51 1112.57 L1246.51 1114.53 L1238.92 1114.53 L1238.92 1119.63 L1245.77 1119.63 L1245.77 1121.59 L1238.92 1121.59 L1238.92 1129.85 L1236.58 1129.85 L1236.58 1112.57 Z" fill="#000000" fill-rule="evenodd" fill-opacity="1" /><path clip-path="url(#clip380)" d="M 0 0 M1248.75 1111.84 L1250.88 1111.84 L1250.88 1129.85 L1248.75 1129.85 L1248.75 1111.84 Z" fill="#000000" fill-rule="evenodd" fill-opacity="1" /><path clip-path="url(#clip380)" d="M 0 0 M1258.13 1118.38 Q1256.42 1118.38 1255.43 1119.72 Q1254.43 1121.05 1254.43 1123.38 Q1254.43 1125.7 1255.41 1127.05 Q1256.41 1128.38 1258.13 1128.38 Q1259.83 1128.38 1260.83 1127.03 Q1261.83 1125.69 1261.83 1123.38 Q1261.83 1121.07 1260.83 1119.73 Q1259.83 1118.38 1258.13 1118.38 M1258.13 1116.57 Q1260.91 1116.57 1262.5 1118.38 Q1264.08 1120.18 1264.08 1123.38 Q1264.08 1126.56 1262.5 1128.38 Q1260.91 1130.18 1258.13 1130.18 Q1255.34 1130.18 1253.76 1128.38 Q1252.18 1126.56 1252.18 1123.38 Q1252.18 1120.18 1253.76 1118.38 Q1255.34 1116.57 1258.13 1116.57 Z" fill="#000000" fill-rule="evenodd" fill-opacity="1" /><path clip-path="url(#clip380)" d="M 0 0 M1272.21 1123.33 Q1269.63 1123.33 1268.63 1123.92 Q1267.64 1124.51 1267.64 1125.93 Q1267.64 1127.07 1268.38 1127.74 Q1269.13 1128.4 1270.41 1128.4 Q1272.18 1128.4 1273.25 1127.15 Q1274.33 1125.89 1274.33 1123.8 L1274.33 1123.33 L1272.21 1123.33 M1276.46 1122.45 L1276.46 1129.85 L1274.33 1129.85 L1274.33 1127.88 Q1273.6 1129.06 1272.51 1129.63 Q1271.42 1130.18 1269.85 1130.18 Q1267.86 1130.18 1266.68 1129.07 Q1265.51 1127.95 1265.51 1126.07 Q1265.51 1123.89 1266.96 1122.77 Q1268.43 1121.66 1271.34 1121.66 L1274.33 1121.66 L1274.33 1121.46 Q1274.33 1119.99 1273.35 1119.19 Q1272.39 1118.38 1270.65 1118.38 Q1269.53 1118.38 1268.48 1118.64 Q1267.43 1118.91 1266.46 1119.44 L1266.46 1117.47 Q1267.62 1117.02 1268.72 1116.8 Q1269.82 1116.57 1270.86 1116.57 Q1273.68 1116.57 1275.07 1118.03 Q1276.46 1119.49 1276.46 1122.45 Z" fill="#000000" fill-rule="evenodd" fill-opacity="1" /><path clip-path="url(#clip380)" d="M 0 0 M1280.8 1113.2 L1280.8 1116.88 L1285.18 1116.88 L1285.18 1118.54 L1280.8 1118.54 L1280.8 1125.58 Q1280.8 1127.16 1281.22 1127.61 Q1281.66 1128.06 1282.99 1128.06 L1285.18 1128.06 L1285.18 1129.85 L1282.99 1129.85 Q1280.53 1129.85 1279.59 1128.93 Q1278.65 1128.01 1278.65 1125.58 L1278.65 1118.54 L1277.09 1118.54 L1277.09 1116.88 L1278.65 1116.88 L1278.65 1113.2 L1280.8 1113.2 Z" fill="#000000" fill-rule="evenodd" fill-opacity="1" /><path clip-path="url(#clip380)" d="M 0 0 M624.435 1277.55 L624.435 1283.88 L628.185 1283.88 Q630.072 1283.88 630.975 1283.11 Q631.889 1282.32 631.889 1280.71 Q631.889 1279.09 630.975 1278.33 Q630.072 1277.55 628.185 1277.55 L624.435 1277.55 M624.435 1270.45 L624.435 1275.65 L627.896 1275.65 Q629.609 1275.65 630.442 1275.02 Q631.287 1274.37 631.287 1273.05 Q631.287 1271.74 630.442 1271.09 Q629.609 1270.45 627.896 1270.45 L624.435 1270.45 M622.098 1268.52 L628.07 1268.52 Q630.743 1268.52 632.19 1269.64 Q633.637 1270.75 633.637 1272.79 Q633.637 1274.38 632.896 1275.32 Q632.155 1276.26 630.72 1276.49 Q632.445 1276.86 633.394 1278.04 Q634.354 1279.21 634.354 1280.97 Q634.354 1283.28 632.78 1284.54 Q631.206 1285.8 628.301 1285.8 L622.098 1285.8 L622.098 1268.52 Z" fill="#000000" fill-rule="evenodd" fill-opacity="1" /><path clip-path="url(#clip380)" d="M 0 0 M636.588 1272.84 L638.718 1272.84 L638.718 1285.8 L636.588 1285.8 L636.588 1272.84 M636.588 1267.79 L638.718 1267.79 L638.718 1270.49 L636.588 1270.49 L636.588 1267.79 Z" fill="#000000" fill-rule="evenodd" fill-opacity="1" /><path clip-path="url(#clip380)" d="M 0 0 M649.482 1279.17 Q649.482 1276.86 648.521 1275.58 Q647.572 1274.31 645.847 1274.31 Q644.134 1274.31 643.174 1275.58 Q642.225 1276.86 642.225 1279.17 Q642.225 1281.48 643.174 1282.75 Q644.134 1284.02 645.847 1284.02 Q647.572 1284.02 648.521 1282.75 Q649.482 1281.48 649.482 1279.17 M651.611 1284.2 Q651.611 1287.51 650.141 1289.11 Q648.671 1290.73 645.639 1290.73 Q644.516 1290.73 643.521 1290.56 Q642.526 1290.4 641.588 1290.05 L641.588 1287.98 Q642.526 1288.49 643.44 1288.73 Q644.354 1288.98 645.303 1288.98 Q647.398 1288.98 648.44 1287.88 Q649.482 1286.79 649.482 1284.58 L649.482 1283.52 Q648.822 1284.67 647.792 1285.24 Q646.762 1285.8 645.327 1285.8 Q642.942 1285.8 641.484 1283.99 Q640.026 1282.17 640.026 1279.17 Q640.026 1276.16 641.484 1274.35 Q642.942 1272.53 645.327 1272.53 Q646.762 1272.53 647.792 1273.1 Q648.822 1273.66 649.482 1274.81 L649.482 1272.84 L651.611 1272.84 L651.611 1284.2 Z" fill="#000000" fill-rule="evenodd" fill-opacity="1" /><path clip-path="url(#clip380)" d="M 0 0 M653.938 1268.52 L663.868 1268.52 L663.868 1270.49 L656.276 1270.49 L656.276 1275.58 L663.127 1275.58 L663.127 1277.55 L656.276 1277.55 L656.276 1285.8 L653.938 1285.8 L653.938 1268.52 Z" fill="#000000" fill-rule="evenodd" fill-opacity="1" /><path clip-path="url(#clip380)" d="M 0 0 M666.102 1267.79 L668.232 1267.79 L668.232 1285.8 L666.102 1285.8 L666.102 1267.79 Z" fill="#000000" fill-rule="evenodd" fill-opacity="1" /><path clip-path="url(#clip380)" d="M 0 0 M675.488 1274.33 Q673.775 1274.33 672.78 1275.68 Q671.785 1277.01 671.785 1279.33 Q671.785 1281.66 672.769 1283 Q673.764 1284.33 675.488 1284.33 Q677.19 1284.33 678.185 1282.99 Q679.181 1281.65 679.181 1279.33 Q679.181 1277.03 678.185 1275.69 Q677.19 1274.33 675.488 1274.33 M675.488 1272.53 Q678.266 1272.53 679.852 1274.33 Q681.437 1276.14 681.437 1279.33 Q681.437 1282.52 679.852 1284.33 Q678.266 1286.14 675.488 1286.14 Q672.699 1286.14 671.113 1284.33 Q669.539 1282.52 669.539 1279.33 Q669.539 1276.14 671.113 1274.33 Q672.699 1272.53 675.488 1272.53 Z" fill="#000000" fill-rule="evenodd" fill-opacity="1" /><path clip-path="url(#clip380)" d="M 0 0 M689.562 1279.29 Q686.981 1279.29 685.986 1279.88 Q684.991 1280.47 684.991 1281.89 Q684.991 1283.03 685.731 1283.7 Q686.484 1284.36 687.768 1284.36 Q689.539 1284.36 690.604 1283.11 Q691.68 1281.85 691.68 1279.76 L691.68 1279.29 L689.562 1279.29 M693.81 1278.41 L693.81 1285.8 L691.68 1285.8 L691.68 1283.84 Q690.951 1285.02 689.863 1285.58 Q688.775 1286.14 687.201 1286.14 Q685.211 1286.14 684.03 1285.03 Q682.861 1283.91 682.861 1282.03 Q682.861 1279.84 684.319 1278.73 Q685.789 1277.62 688.694 1277.62 L691.68 1277.62 L691.68 1277.41 Q691.68 1275.94 690.708 1275.14 Q689.748 1274.33 688 1274.33 Q686.889 1274.33 685.836 1274.6 Q684.782 1274.87 683.81 1275.4 L683.81 1273.43 Q684.979 1272.98 686.079 1272.76 Q687.178 1272.53 688.22 1272.53 Q691.032 1272.53 692.421 1273.99 Q693.81 1275.45 693.81 1278.41 Z" fill="#000000" fill-rule="evenodd" fill-opacity="1" /><path clip-path="url(#clip380)" d="M 0 0 M698.15 1269.16 L698.15 1272.84 L702.537 1272.84 L702.537 1274.5 L698.15 1274.5 L698.15 1281.53 Q698.15 1283.12 698.579 1283.57 Q699.018 1284.02 700.349 1284.02 L702.537 1284.02 L702.537 1285.8 L700.349 1285.8 Q697.884 1285.8 696.947 1284.89 Q696.009 1283.96 696.009 1281.53 L696.009 1274.5 L694.447 1274.5 L694.447 1272.84 L696.009 1272.84 L696.009 1269.16 L698.15 1269.16 Z" fill="#000000" fill-rule="evenodd" fill-opacity="1" /><path clip-path="url(#clip380)" d="M 0 0 M889.626 1294.67 L899.556 1294.67 L899.556 1296.64 L891.964 1296.64 L891.964 1301.73 L898.816 1301.73 L898.816 1303.7 L891.964 1303.7 L891.964 1311.95 L889.626 1311.95 L889.626 1294.67 Z" fill="#000000" fill-rule="evenodd" fill-opacity="1" /><path clip-path="url(#clip380)" d="M 0 0 M901.79 1293.95 L903.92 1293.95 L903.92 1311.95 L901.79 1311.95 L901.79 1293.95 Z" fill="#000000" fill-rule="evenodd" fill-opacity="1" /><path clip-path="url(#clip380)" d="M 0 0 M911.177 1300.48 Q909.464 1300.48 908.468 1301.83 Q907.473 1303.16 907.473 1305.48 Q907.473 1307.81 908.457 1309.15 Q909.452 1310.48 911.177 1310.48 Q912.878 1310.48 913.873 1309.14 Q914.869 1307.8 914.869 1305.48 Q914.869 1303.18 913.873 1301.84 Q912.878 1300.48 911.177 1300.48 M911.177 1298.68 Q913.955 1298.68 915.54 1300.48 Q917.126 1302.29 917.126 1305.48 Q917.126 1308.67 915.54 1310.48 Q913.955 1312.29 911.177 1312.29 Q908.387 1312.29 906.802 1310.48 Q905.228 1308.67 905.228 1305.48 Q905.228 1302.29 906.802 1300.48 Q908.387 1298.68 911.177 1298.68 Z" fill="#000000" fill-rule="evenodd" fill-opacity="1" /><path clip-path="url(#clip380)" d="M 0 0 M925.251 1305.44 Q922.67 1305.44 921.674 1306.03 Q920.679 1306.62 920.679 1308.04 Q920.679 1309.18 921.42 1309.85 Q922.172 1310.51 923.457 1310.51 Q925.228 1310.51 926.292 1309.26 Q927.369 1308 927.369 1305.91 L927.369 1305.44 L925.251 1305.44 M929.498 1304.56 L929.498 1311.95 L927.369 1311.95 L927.369 1309.99 Q926.64 1311.17 925.552 1311.73 Q924.464 1312.29 922.89 1312.29 Q920.899 1312.29 919.718 1311.18 Q918.549 1310.06 918.549 1308.18 Q918.549 1305.99 920.008 1304.88 Q921.478 1303.77 924.383 1303.77 L927.369 1303.77 L927.369 1303.56 Q927.369 1302.09 926.397 1301.29 Q925.436 1300.48 923.688 1300.48 Q922.577 1300.48 921.524 1300.75 Q920.471 1301.02 919.498 1301.55 L919.498 1299.58 Q920.667 1299.13 921.767 1298.91 Q922.866 1298.68 923.908 1298.68 Q926.721 1298.68 928.11 1300.14 Q929.498 1301.6 929.498 1304.56 Z" fill="#000000" fill-rule="evenodd" fill-opacity="1" /><path clip-path="url(#clip380)" d="M 0 0 M933.839 1295.31 L933.839 1298.99 L938.225 1298.99 L938.225 1300.65 L933.839 1300.65 L933.839 1307.68 Q933.839 1309.27 934.267 1309.72 Q934.707 1310.17 936.038 1310.17 L938.225 1310.17 L938.225 1311.95 L936.038 1311.95 Q933.572 1311.95 932.635 1311.04 Q931.697 1310.11 931.697 1307.68 L931.697 1300.65 L930.135 1300.65 L930.135 1298.99 L931.697 1298.99 L931.697 1295.31 L933.839 1295.31 Z" fill="#000000" fill-rule="evenodd" fill-opacity="1" /><path clip-path="url(#clip380)" d="M 0 0 M941.165 1309.99 L944.984 1309.99 L944.984 1296.8 L940.829 1297.64 L940.829 1295.51 L944.961 1294.67 L947.299 1294.67 L947.299 1309.99 L951.119 1309.99 L951.119 1311.95 L941.165 1311.95 L941.165 1309.99 Z" fill="#000000" fill-rule="evenodd" fill-opacity="1" /><path clip-path="url(#clip380)" d="M 0 0 M958.943 1302.38 Q957.369 1302.38 956.443 1303.46 Q955.528 1304.54 955.528 1306.41 Q955.528 1308.27 956.443 1309.36 Q957.369 1310.44 958.943 1310.44 Q960.517 1310.44 961.431 1309.36 Q962.357 1308.27 962.357 1306.41 Q962.357 1304.54 961.431 1303.46 Q960.517 1302.38 958.943 1302.38 M963.584 1295.06 L963.584 1297.19 Q962.704 1296.77 961.801 1296.55 Q960.91 1296.33 960.031 1296.33 Q957.716 1296.33 956.489 1297.89 Q955.274 1299.45 955.1 1302.61 Q955.783 1301.61 956.813 1301.07 Q957.843 1300.53 959.082 1300.53 Q961.686 1300.53 963.19 1302.12 Q964.707 1303.69 964.707 1306.41 Q964.707 1309.07 963.132 1310.68 Q961.558 1312.29 958.943 1312.29 Q955.945 1312.29 954.359 1310 Q952.774 1307.7 952.774 1303.33 Q952.774 1299.23 954.718 1296.8 Q956.663 1294.36 959.938 1294.36 Q960.818 1294.36 961.709 1294.54 Q962.612 1294.71 963.584 1295.06 Z" fill="#000000" fill-rule="evenodd" fill-opacity="1" /><path clip-path="url(#clip380)" d="M 0 0 M1700.44 1329.04 L1710.37 1329.04 L1710.37 1331.01 L1702.78 1331.01 L1702.78 1336.1 L1709.63 1336.1 L1709.63 1338.07 L1702.78 1338.07 L1702.78 1346.32 L1700.44 1346.32 L1700.44 1329.04 Z" fill="#000000" fill-rule="evenodd" fill-opacity="1" /><path clip-path="url(#clip380)" d="M 0 0 M1712.6 1328.31 L1714.73 1328.31 L1714.73 1346.32 L1712.6 1346.32 L1712.6 1328.31 Z" fill="#000000" fill-rule="evenodd" fill-opacity="1" /><path clip-path="url(#clip380)" d="M 0 0 M1721.99 1334.85 Q1720.28 1334.85 1719.28 1336.2 Q1718.28 1337.53 1718.28 1339.85 Q1718.28 1342.18 1719.27 1343.52 Q1720.26 1344.85 1721.99 1344.85 Q1723.69 1344.85 1724.69 1343.51 Q1725.68 1342.17 1725.68 1339.85 Q1725.68 1337.55 1724.69 1336.21 Q1723.69 1334.85 1721.99 1334.85 M1721.99 1333.05 Q1724.77 1333.05 1726.35 1334.85 Q1727.94 1336.66 1727.94 1339.85 Q1727.94 1343.04 1726.35 1344.85 Q1724.77 1346.66 1721.99 1346.66 Q1719.2 1346.66 1717.61 1344.85 Q1716.04 1343.04 1716.04 1339.85 Q1716.04 1336.66 1717.61 1334.85 Q1719.2 1333.05 1721.99 1333.05 Z" fill="#000000" fill-rule="evenodd" fill-opacity="1" /><path clip-path="url(#clip380)" d="M 0 0 M1736.06 1339.81 Q1733.48 1339.81 1732.49 1340.4 Q1731.49 1340.99 1731.49 1342.41 Q1731.49 1343.55 1732.23 1344.22 Q1732.98 1344.88 1734.27 1344.88 Q1736.04 1344.88 1737.1 1343.63 Q1738.18 1342.36 1738.18 1340.28 L1738.18 1339.81 L1736.06 1339.81 M1740.31 1338.93 L1740.31 1346.32 L1738.18 1346.32 L1738.18 1344.36 Q1737.45 1345.54 1736.36 1346.1 Q1735.28 1346.66 1733.7 1346.66 Q1731.71 1346.66 1730.53 1345.55 Q1729.36 1344.42 1729.36 1342.55 Q1729.36 1340.36 1730.82 1339.25 Q1732.29 1338.14 1735.19 1338.14 L1738.18 1338.14 L1738.18 1337.93 Q1738.18 1336.46 1737.21 1335.66 Q1736.25 1334.85 1734.5 1334.85 Q1733.39 1334.85 1732.34 1335.12 Q1731.28 1335.39 1730.31 1335.92 L1730.31 1333.95 Q1731.48 1333.5 1732.58 1333.28 Q1733.68 1333.05 1734.72 1333.05 Q1737.53 1333.05 1738.92 1334.51 Q1740.31 1335.96 1740.31 1338.93 Z" fill="#000000" fill-rule="evenodd" fill-opacity="1" /><path clip-path="url(#clip380)" d="M 0 0 M1744.65 1329.68 L1744.65 1333.36 L1749.04 1333.36 L1749.04 1335.01 L1744.65 1335.01 L1744.65 1342.05 Q1744.65 1343.64 1745.08 1344.09 Q1745.52 1344.54 1746.85 1344.54 L1749.04 1344.54 L1749.04 1346.32 L1746.85 1346.32 Q1744.38 1346.32 1743.45 1345.41 Q1742.51 1344.48 1742.51 1342.05 L1742.51 1335.01 L1740.95 1335.01 L1740.95 1333.36 L1742.51 1333.36 L1742.51 1329.68 L1744.65 1329.68 Z" fill="#000000" fill-rule="evenodd" fill-opacity="1" /><path clip-path="url(#clip380)" d="M 0 0 M1758.65 1337.01 Q1760.33 1337.36 1761.27 1338.5 Q1762.22 1339.63 1762.22 1341.3 Q1762.22 1343.86 1760.46 1345.26 Q1758.7 1346.66 1755.46 1346.66 Q1754.37 1346.66 1753.22 1346.44 Q1752.07 1346.23 1750.84 1345.8 L1750.84 1343.55 Q1751.81 1344.11 1752.97 1344.4 Q1754.13 1344.69 1755.39 1344.69 Q1757.59 1344.69 1758.74 1343.82 Q1759.89 1342.95 1759.89 1341.3 Q1759.89 1339.77 1758.82 1338.92 Q1757.75 1338.05 1755.84 1338.05 L1753.83 1338.05 L1753.83 1336.13 L1755.94 1336.13 Q1757.66 1336.13 1758.57 1335.44 Q1759.49 1334.75 1759.49 1333.45 Q1759.49 1332.12 1758.54 1331.42 Q1757.6 1330.7 1755.84 1330.7 Q1754.88 1330.7 1753.78 1330.91 Q1752.68 1331.11 1751.36 1331.55 L1751.36 1329.47 Q1752.69 1329.1 1753.85 1328.92 Q1755.02 1328.73 1756.05 1328.73 Q1758.71 1328.73 1760.26 1329.95 Q1761.81 1331.15 1761.81 1333.21 Q1761.81 1334.64 1760.99 1335.64 Q1760.17 1336.62 1758.65 1337.01 Z" fill="#000000" fill-rule="evenodd" fill-opacity="1" /><path clip-path="url(#clip380)" d="M 0 0 M1766.77 1344.36 L1774.93 1344.36 L1774.93 1346.32 L1763.96 1346.32 L1763.96 1344.36 Q1765.29 1342.98 1767.58 1340.66 Q1769.88 1338.34 1770.47 1337.67 Q1771.59 1336.4 1772.03 1335.54 Q1772.49 1334.66 1772.49 1333.81 Q1772.49 1332.43 1771.51 1331.57 Q1770.55 1330.7 1769 1330.7 Q1767.9 1330.7 1766.68 1331.08 Q1765.46 1331.46 1764.07 1332.24 L1764.07 1329.88 Q1765.48 1329.31 1766.71 1329.02 Q1767.94 1328.73 1768.96 1328.73 Q1771.64 1328.73 1773.24 1330.07 Q1774.84 1331.42 1774.84 1333.66 Q1774.84 1334.73 1774.43 1335.69 Q1774.04 1336.64 1772.98 1337.93 Q1772.69 1338.27 1771.14 1339.88 Q1769.59 1341.47 1766.77 1344.36 Z" fill="#000000" fill-rule="evenodd" fill-opacity="1" /><path clip-path="url(#clip380)" d="M 0 0 M1447.85 1294.72 L1457.78 1294.72 L1457.78 1296.68 L1450.18 1296.68 L1450.18 1301.78 L1457.04 1301.78 L1457.04 1303.74 L1450.18 1303.74 L1450.18 1312 L1447.85 1312 L1447.85 1294.72 Z" fill="#000000" fill-rule="evenodd" fill-opacity="1" /><path clip-path="url(#clip380)" d="M 0 0 M1460.01 1293.99 L1462.14 1293.99 L1462.14 1312 L1460.01 1312 L1460.01 1293.99 Z" fill="#000000" fill-rule="evenodd" fill-opacity="1" /><path clip-path="url(#clip380)" d="M 0 0 M1469.4 1300.53 Q1467.68 1300.53 1466.69 1301.87 Q1465.69 1303.2 1465.69 1305.53 Q1465.69 1307.85 1466.68 1309.19 Q1467.67 1310.53 1469.4 1310.53 Q1471.1 1310.53 1472.09 1309.18 Q1473.09 1307.84 1473.09 1305.53 Q1473.09 1303.22 1472.09 1301.88 Q1471.1 1300.53 1469.4 1300.53 M1469.4 1298.72 Q1472.17 1298.72 1473.76 1300.53 Q1475.35 1302.33 1475.35 1305.53 Q1475.35 1308.71 1473.76 1310.53 Q1472.17 1312.33 1469.4 1312.33 Q1466.61 1312.33 1465.02 1310.53 Q1463.45 1308.71 1463.45 1305.53 Q1463.45 1302.33 1465.02 1300.53 Q1466.61 1298.72 1469.4 1298.72 Z" fill="#000000" fill-rule="evenodd" fill-opacity="1" /><path clip-path="url(#clip380)" d="M 0 0 M1483.47 1305.48 Q1480.89 1305.48 1479.89 1306.07 Q1478.9 1306.66 1478.9 1308.08 Q1478.9 1309.22 1479.64 1309.89 Q1480.39 1310.55 1481.68 1310.55 Q1483.45 1310.55 1484.51 1309.3 Q1485.59 1308.04 1485.59 1305.95 L1485.59 1305.48 L1483.47 1305.48 M1487.72 1304.6 L1487.72 1312 L1485.59 1312 L1485.59 1310.03 Q1484.86 1311.21 1483.77 1311.78 Q1482.68 1312.33 1481.11 1312.33 Q1479.12 1312.33 1477.94 1311.22 Q1476.77 1310.1 1476.77 1308.22 Q1476.77 1306.03 1478.23 1304.92 Q1479.7 1303.81 1482.6 1303.81 L1485.59 1303.81 L1485.59 1303.6 Q1485.59 1302.13 1484.62 1301.34 Q1483.66 1300.53 1481.91 1300.53 Q1480.8 1300.53 1479.74 1300.79 Q1478.69 1301.06 1477.72 1301.59 L1477.72 1299.62 Q1478.89 1299.17 1479.99 1298.95 Q1481.09 1298.72 1482.13 1298.72 Q1484.94 1298.72 1486.33 1300.18 Q1487.72 1301.64 1487.72 1304.6 Z" fill="#000000" fill-rule="evenodd" fill-opacity="1" /><path clip-path="url(#clip380)" d="M 0 0 M1492.06 1295.35 L1492.06 1299.03 L1496.45 1299.03 L1496.45 1300.69 L1492.06 1300.69 L1492.06 1307.72 Q1492.06 1309.31 1492.49 1309.76 Q1492.93 1310.21 1494.26 1310.21 L1496.45 1310.21 L1496.45 1312 L1494.26 1312 Q1491.79 1312 1490.86 1311.08 Q1489.92 1310.15 1489.92 1307.72 L1489.92 1300.69 L1488.36 1300.69 L1488.36 1299.03 L1489.92 1299.03 L1489.92 1295.35 L1492.06 1295.35 Z" fill="#000000" fill-rule="evenodd" fill-opacity="1" /><path clip-path="url(#clip380)" d="M 0 0 M1504.27 1302.42 Q1502.7 1302.42 1501.77 1303.5 Q1500.86 1304.58 1500.86 1306.45 Q1500.86 1308.31 1501.77 1309.4 Q1502.7 1310.48 1504.27 1310.48 Q1505.84 1310.48 1506.76 1309.4 Q1507.68 1308.31 1507.68 1306.45 Q1507.68 1304.58 1506.76 1303.5 Q1505.84 1302.42 1504.27 1302.42 M1508.91 1295.1 L1508.91 1297.23 Q1508.03 1296.81 1507.13 1296.59 Q1506.24 1296.37 1505.36 1296.37 Q1503.04 1296.37 1501.82 1297.93 Q1500.6 1299.5 1500.43 1302.65 Q1501.11 1301.65 1502.14 1301.12 Q1503.17 1300.57 1504.41 1300.57 Q1507.01 1300.57 1508.52 1302.16 Q1510.03 1303.73 1510.03 1306.45 Q1510.03 1309.11 1508.46 1310.72 Q1506.89 1312.33 1504.27 1312.33 Q1501.27 1312.33 1499.69 1310.04 Q1498.1 1307.74 1498.1 1303.37 Q1498.1 1299.28 1500.05 1296.84 Q1501.99 1294.4 1505.26 1294.4 Q1506.14 1294.4 1507.04 1294.58 Q1507.94 1294.75 1508.91 1295.1 Z" fill="#000000" fill-rule="evenodd" fill-opacity="1" /><path clip-path="url(#clip380)" d="M 0 0 M1518.99 1296.75 L1513.09 1305.98 L1518.99 1305.98 L1518.99 1296.75 M1518.38 1294.72 L1521.32 1294.72 L1521.32 1305.98 L1523.78 1305.98 L1523.78 1307.92 L1521.32 1307.92 L1521.32 1312 L1518.99 1312 L1518.99 1307.92 L1511.19 1307.92 L1511.19 1305.66 L1518.38 1294.72 Z" fill="#000000" fill-rule="evenodd" fill-opacity="1" /></svg>
