<?xml version="1.0" encoding="utf-8"?>
<svg xmlns="http://www.w3.org/2000/svg" xmlns:xlink="http://www.w3.org/1999/xlink" width="600" height="400" viewBox="0 0 2400 1600">
<defs>
  <clipPath id="clip600">
    <rect x="0" y="0" width="2400" height="1600"/>
  </clipPath>
</defs>
<path clip-path="url(#clip600)" d="
M0 1600 L2400 1600 L2400 0 L0 0  Z
  " fill="#ffffff" fill-rule="evenodd" fill-opacity="1"/>
<defs>
  <clipPath id="clip601">
    <rect x="480" y="0" width="1681" height="1600"/>
  </clipPath>
</defs>
<defs>
  <clipPath id="clip602">
    <rect x="233" y="123" width="2120" height="1318"/>
  </clipPath>
</defs>
<path clip-path="url(#clip600)" d="
M233.355 1440.06 L2352.76 1440.06 L2352.76 123.472 L233.355 123.472  Z
  " fill="#ffffff" fill-rule="evenodd" fill-opacity="1"/>
<polyline clip-path="url(#clip602)" style="stroke:#000000; stroke-width:2; stroke-opacity:0.1; fill:none" points="
  293.338,1440.06 293.338,123.472 
  "/>
<polyline clip-path="url(#clip602)" style="stroke:#000000; stroke-width:2; stroke-opacity:0.1; fill:none" points="
  864.605,1440.06 864.605,123.472 
  "/>
<polyline clip-path="url(#clip602)" style="stroke:#000000; stroke-width:2; stroke-opacity:0.1; fill:none" points="
  1435.87,1440.06 1435.87,123.472 
  "/>
<polyline clip-path="url(#clip602)" style="stroke:#000000; stroke-width:2; stroke-opacity:0.1; fill:none" points="
  2007.14,1440.06 2007.14,123.472 
  "/>
<polyline clip-path="url(#clip600)" style="stroke:#000000; stroke-width:4; stroke-opacity:1; fill:none" points="
  233.355,1440.06 2352.76,1440.06 
  "/>
<polyline clip-path="url(#clip600)" style="stroke:#000000; stroke-width:4; stroke-opacity:1; fill:none" points="
  293.338,1440.06 293.338,1424.27 
  "/>
<polyline clip-path="url(#clip600)" style="stroke:#000000; stroke-width:4; stroke-opacity:1; fill:none" points="
  864.605,1440.06 864.605,1424.27 
  "/>
<polyline clip-path="url(#clip600)" style="stroke:#000000; stroke-width:4; stroke-opacity:1; fill:none" points="
  1435.87,1440.06 1435.87,1424.27 
  "/>
<polyline clip-path="url(#clip600)" style="stroke:#000000; stroke-width:4; stroke-opacity:1; fill:none" points="
  2007.14,1440.06 2007.14,1424.27 
  "/>
<path clip-path="url(#clip600)" d="M 0 0 M274.854 1469.26 Q271.243 1469.26 269.414 1472.82 Q267.609 1476.36 267.609 1483.49 Q267.609 1490.6 269.414 1494.16 Q271.243 1497.7 274.854 1497.7 Q278.488 1497.7 280.294 1494.16 Q282.123 1490.6 282.123 1483.49 Q282.123 1476.36 280.294 1472.82 Q278.488 1469.26 274.854 1469.26 M274.854 1465.55 Q280.664 1465.55 283.72 1470.16 Q286.798 1474.74 286.798 1483.49 Q286.798 1492.22 283.72 1496.82 Q280.664 1501.41 274.854 1501.41 Q269.044 1501.41 265.965 1496.82 Q262.91 1492.22 262.91 1483.49 Q262.91 1474.74 265.965 1470.16 Q269.044 1465.55 274.854 1465.55 Z" fill="#000000" fill-rule="evenodd" fill-opacity="1" /><path clip-path="url(#clip600)" d="M 0 0 M291.868 1494.86 L296.752 1494.86 L296.752 1500.74 L291.868 1500.74 L291.868 1494.86 Z" fill="#000000" fill-rule="evenodd" fill-opacity="1" /><path clip-path="url(#clip600)" d="M 0 0 M311.821 1469.26 Q308.21 1469.26 306.382 1472.82 Q304.576 1476.36 304.576 1483.49 Q304.576 1490.6 306.382 1494.16 Q308.21 1497.7 311.821 1497.7 Q315.456 1497.7 317.261 1494.16 Q319.09 1490.6 319.09 1483.49 Q319.09 1476.36 317.261 1472.82 Q315.456 1469.26 311.821 1469.26 M311.821 1465.55 Q317.632 1465.55 320.687 1470.16 Q323.766 1474.74 323.766 1483.49 Q323.766 1492.22 320.687 1496.82 Q317.632 1501.41 311.821 1501.41 Q306.011 1501.41 302.933 1496.82 Q299.877 1492.22 299.877 1483.49 Q299.877 1474.74 302.933 1470.16 Q306.011 1465.55 311.821 1465.55 Z" fill="#000000" fill-rule="evenodd" fill-opacity="1" /><path clip-path="url(#clip600)" d="M 0 0 M846.735 1469.26 Q843.124 1469.26 841.295 1472.82 Q839.489 1476.36 839.489 1483.49 Q839.489 1490.6 841.295 1494.16 Q843.124 1497.7 846.735 1497.7 Q850.369 1497.7 852.174 1494.16 Q854.003 1490.6 854.003 1483.49 Q854.003 1476.36 852.174 1472.82 Q850.369 1469.26 846.735 1469.26 M846.735 1465.55 Q852.545 1465.55 855.6 1470.16 Q858.679 1474.74 858.679 1483.49 Q858.679 1492.22 855.6 1496.82 Q852.545 1501.41 846.735 1501.41 Q840.924 1501.41 837.846 1496.82 Q834.79 1492.22 834.79 1483.49 Q834.79 1474.74 837.846 1470.16 Q840.924 1465.55 846.735 1465.55 Z" fill="#000000" fill-rule="evenodd" fill-opacity="1" /><path clip-path="url(#clip600)" d="M 0 0 M863.748 1494.86 L868.633 1494.86 L868.633 1500.74 L863.748 1500.74 L863.748 1494.86 Z" fill="#000000" fill-rule="evenodd" fill-opacity="1" /><path clip-path="url(#clip600)" d="M 0 0 M874.512 1496.8 L882.151 1496.8 L882.151 1470.44 L873.841 1472.1 L873.841 1467.84 L882.105 1466.18 L886.781 1466.18 L886.781 1496.8 L894.42 1496.8 L894.42 1500.74 L874.512 1500.74 L874.512 1496.8 Z" fill="#000000" fill-rule="evenodd" fill-opacity="1" /><path clip-path="url(#clip600)" d="M 0 0 M1418.19 1469.26 Q1414.58 1469.26 1412.75 1472.82 Q1410.94 1476.36 1410.94 1483.49 Q1410.94 1490.6 1412.75 1494.16 Q1414.58 1497.7 1418.19 1497.7 Q1421.82 1497.7 1423.63 1494.16 Q1425.46 1490.6 1425.46 1483.49 Q1425.46 1476.36 1423.63 1472.82 Q1421.82 1469.26 1418.19 1469.26 M1418.19 1465.55 Q1424 1465.55 1427.05 1470.16 Q1430.13 1474.74 1430.13 1483.49 Q1430.13 1492.22 1427.05 1496.82 Q1424 1501.41 1418.19 1501.41 Q1412.38 1501.41 1409.3 1496.82 Q1406.24 1492.22 1406.24 1483.49 Q1406.24 1474.74 1409.3 1470.16 Q1412.38 1465.55 1418.19 1465.55 Z" fill="#000000" fill-rule="evenodd" fill-opacity="1" /><path clip-path="url(#clip600)" d="M 0 0 M1435.2 1494.86 L1440.09 1494.86 L1440.09 1500.74 L1435.2 1500.74 L1435.2 1494.86 Z" fill="#000000" fill-rule="evenodd" fill-opacity="1" /><path clip-path="url(#clip600)" d="M 0 0 M1449.18 1496.8 L1465.5 1496.8 L1465.5 1500.74 L1443.56 1500.74 L1443.56 1496.8 Q1446.22 1494.05 1450.8 1489.42 Q1455.41 1484.76 1456.59 1483.42 Q1458.83 1480.9 1459.71 1479.16 Q1460.62 1477.4 1460.62 1475.71 Q1460.62 1472.96 1458.67 1471.22 Q1456.75 1469.49 1453.65 1469.49 Q1451.45 1469.49 1449 1470.25 Q1446.57 1471.01 1443.79 1472.57 L1443.79 1467.84 Q1446.61 1466.71 1449.07 1466.13 Q1451.52 1465.55 1453.56 1465.55 Q1458.93 1465.55 1462.12 1468.24 Q1465.32 1470.92 1465.32 1475.41 Q1465.32 1477.54 1464.51 1479.46 Q1463.72 1481.36 1461.61 1483.95 Q1461.03 1484.63 1457.93 1487.84 Q1454.83 1491.04 1449.18 1496.8 Z" fill="#000000" fill-rule="evenodd" fill-opacity="1" /><path clip-path="url(#clip600)" d="M 0 0 M1988.98 1469.26 Q1985.37 1469.26 1983.54 1472.82 Q1981.73 1476.36 1981.73 1483.49 Q1981.73 1490.6 1983.54 1494.16 Q1985.37 1497.7 1988.98 1497.7 Q1992.61 1497.7 1994.42 1494.16 Q1996.25 1490.6 1996.25 1483.49 Q1996.25 1476.36 1994.42 1472.82 Q1992.61 1469.26 1988.98 1469.26 M1988.98 1465.55 Q1994.79 1465.55 1997.85 1470.16 Q2000.92 1474.74 2000.92 1483.49 Q2000.92 1492.22 1997.85 1496.82 Q1994.79 1501.41 1988.98 1501.41 Q1983.17 1501.41 1980.09 1496.82 Q1977.04 1492.22 1977.04 1483.49 Q1977.04 1474.74 1980.09 1470.16 Q1983.17 1465.55 1988.98 1465.55 Z" fill="#000000" fill-rule="evenodd" fill-opacity="1" /><path clip-path="url(#clip600)" d="M 0 0 M2005.99 1494.86 L2010.88 1494.86 L2010.88 1500.74 L2005.99 1500.74 L2005.99 1494.86 Z" fill="#000000" fill-rule="evenodd" fill-opacity="1" /><path clip-path="url(#clip600)" d="M 0 0 M2030.11 1482.1 Q2033.47 1482.82 2035.35 1485.09 Q2037.24 1487.36 2037.24 1490.69 Q2037.24 1495.81 2033.72 1498.61 Q2030.21 1501.41 2023.72 1501.41 Q2021.55 1501.41 2019.23 1500.97 Q2016.94 1500.55 2014.49 1499.69 L2014.49 1495.18 Q2016.43 1496.32 2018.75 1496.89 Q2021.06 1497.47 2023.59 1497.47 Q2027.98 1497.47 2030.28 1495.74 Q2032.59 1494 2032.59 1490.69 Q2032.59 1487.63 2030.44 1485.92 Q2028.31 1484.19 2024.49 1484.19 L2020.46 1484.19 L2020.46 1480.34 L2024.67 1480.34 Q2028.12 1480.34 2029.95 1478.98 Q2031.78 1477.59 2031.78 1475 Q2031.78 1472.33 2029.88 1470.92 Q2028.01 1469.49 2024.49 1469.49 Q2022.57 1469.49 2020.37 1469.9 Q2018.17 1470.32 2015.53 1471.2 L2015.53 1467.03 Q2018.19 1466.29 2020.51 1465.92 Q2022.85 1465.55 2024.91 1465.55 Q2030.23 1465.55 2033.33 1467.98 Q2036.43 1470.39 2036.43 1474.51 Q2036.43 1477.38 2034.79 1479.37 Q2033.15 1481.34 2030.11 1482.1 Z" fill="#000000" fill-rule="evenodd" fill-opacity="1" /><path clip-path="url(#clip600)" d="M 0 0 M1306.64 1568.47 Q1306.64 1569.08 1305.93 1569.14 L1304.48 1569.14 Q1303 1569.14 1302.36 1568.92 Q1301.71 1568.69 1300.97 1567.66 Q1300.52 1567.02 1299.39 1564.02 Q1298.3 1561 1296.69 1556.42 Q1295.11 1551.85 1294.05 1549.14 L1278.17 1567.89 Q1277.07 1569.27 1275.98 1569.27 Q1275.17 1569.27 1274.59 1568.72 Q1274.01 1568.18 1274.01 1567.34 Q1274.01 1566.73 1274.24 1566.37 Q1274.5 1566.02 1275.17 1565.31 L1293.4 1547.24 L1286.99 1529.3 Q1285.77 1525.99 1285.06 1525.15 Q1284.38 1524.31 1282.71 1524.02 Q1282.1 1523.86 1282.1 1523.35 Q1282.1 1522.64 1283.29 1522.64 Q1289.67 1522.64 1291.34 1527.31 L1304.8 1564.83 Q1305.54 1566.99 1306.32 1567.89 Q1306.64 1568.31 1306.64 1568.47 Z" fill="#000000" fill-rule="evenodd" fill-opacity="1" /><polyline clip-path="url(#clip602)" style="stroke:#000000; stroke-width:2; stroke-opacity:0.1; fill:none" points="
  233.355,1263.44 2352.76,1263.44 
  "/>
<polyline clip-path="url(#clip602)" style="stroke:#000000; stroke-width:2; stroke-opacity:0.1; fill:none" points="
  233.355,1041.63 2352.76,1041.63 
  "/>
<polyline clip-path="url(#clip602)" style="stroke:#000000; stroke-width:2; stroke-opacity:0.1; fill:none" points="
  233.355,819.82 2352.76,819.82 
  "/>
<polyline clip-path="url(#clip602)" style="stroke:#000000; stroke-width:2; stroke-opacity:0.1; fill:none" points="
  233.355,598.007 2352.76,598.007 
  "/>
<polyline clip-path="url(#clip602)" style="stroke:#000000; stroke-width:2; stroke-opacity:0.1; fill:none" points="
  233.355,376.195 2352.76,376.195 
  "/>
<polyline clip-path="url(#clip602)" style="stroke:#000000; stroke-width:2; stroke-opacity:0.1; fill:none" points="
  233.355,154.383 2352.76,154.383 
  "/>
<polyline clip-path="url(#clip600)" style="stroke:#000000; stroke-width:4; stroke-opacity:1; fill:none" points="
  233.355,1440.06 233.355,123.472 
  "/>
<polyline clip-path="url(#clip600)" style="stroke:#000000; stroke-width:4; stroke-opacity:1; fill:none" points="
  233.355,1263.44 258.788,1263.44 
  "/>
<polyline clip-path="url(#clip600)" style="stroke:#000000; stroke-width:4; stroke-opacity:1; fill:none" points="
  233.355,1041.63 258.788,1041.63 
  "/>
<polyline clip-path="url(#clip600)" style="stroke:#000000; stroke-width:4; stroke-opacity:1; fill:none" points="
  233.355,819.82 258.788,819.82 
  "/>
<polyline clip-path="url(#clip600)" style="stroke:#000000; stroke-width:4; stroke-opacity:1; fill:none" points="
  233.355,598.007 258.788,598.007 
  "/>
<polyline clip-path="url(#clip600)" style="stroke:#000000; stroke-width:4; stroke-opacity:1; fill:none" points="
  233.355,376.195 258.788,376.195 
  "/>
<polyline clip-path="url(#clip600)" style="stroke:#000000; stroke-width:4; stroke-opacity:1; fill:none" points="
  233.355,154.383 258.788,154.383 
  "/>
<path clip-path="url(#clip600)" d="M 0 0 M115.249 1263.9 L144.924 1263.9 L144.924 1267.83 L115.249 1267.83 L115.249 1263.9 Z" fill="#000000" fill-rule="evenodd" fill-opacity="1" /><path clip-path="url(#clip600)" d="M 0 0 M154.022 1276.79 L170.341 1276.79 L170.341 1280.72 L148.397 1280.72 L148.397 1276.79 Q151.059 1274.03 155.642 1269.4 Q160.248 1264.75 161.429 1263.41 Q163.674 1260.89 164.554 1259.15 Q165.457 1257.39 165.457 1255.7 Q165.457 1252.95 163.512 1251.21 Q161.591 1249.47 158.489 1249.47 Q156.29 1249.47 153.836 1250.24 Q151.406 1251 148.628 1252.55 L148.628 1247.83 Q151.452 1246.7 153.906 1246.12 Q156.36 1245.54 158.397 1245.54 Q163.767 1245.54 166.961 1248.22 Q170.156 1250.91 170.156 1255.4 Q170.156 1257.53 169.346 1259.45 Q168.559 1261.35 166.452 1263.94 Q165.873 1264.61 162.772 1267.83 Q159.67 1271.02 154.022 1276.79 Z" fill="#000000" fill-rule="evenodd" fill-opacity="1" /><path clip-path="url(#clip600)" d="M 0 0 M185.41 1249.24 Q181.799 1249.24 179.971 1252.81 Q178.165 1256.35 178.165 1263.48 Q178.165 1270.59 179.971 1274.15 Q181.799 1277.69 185.41 1277.69 Q189.045 1277.69 190.85 1274.15 Q192.679 1270.59 192.679 1263.48 Q192.679 1256.35 190.85 1252.81 Q189.045 1249.24 185.41 1249.24 M185.41 1245.54 Q191.22 1245.54 194.276 1250.15 Q197.355 1254.73 197.355 1263.48 Q197.355 1272.21 194.276 1276.81 Q191.22 1281.4 185.41 1281.4 Q179.6 1281.4 176.521 1276.81 Q173.466 1272.21 173.466 1263.48 Q173.466 1254.73 176.521 1250.15 Q179.6 1245.54 185.41 1245.54 Z" fill="#000000" fill-rule="evenodd" fill-opacity="1" /><path clip-path="url(#clip600)" d="M 0 0 M114.878 1042.08 L144.554 1042.08 L144.554 1046.02 L114.878 1046.02 L114.878 1042.08 Z" fill="#000000" fill-rule="evenodd" fill-opacity="1" /><path clip-path="url(#clip600)" d="M 0 0 M150.434 1054.98 L158.072 1054.98 L158.072 1028.61 L149.762 1030.28 L149.762 1026.02 L158.026 1024.35 L162.702 1024.35 L162.702 1054.98 L170.341 1054.98 L170.341 1058.91 L150.434 1058.91 L150.434 1054.98 Z" fill="#000000" fill-rule="evenodd" fill-opacity="1" /><path clip-path="url(#clip600)" d="M 0 0 M185.41 1027.43 Q181.799 1027.43 179.971 1031 Q178.165 1034.54 178.165 1041.67 Q178.165 1048.77 179.971 1052.34 Q181.799 1055.88 185.41 1055.88 Q189.045 1055.88 190.85 1052.34 Q192.679 1048.77 192.679 1041.67 Q192.679 1034.54 190.85 1031 Q189.045 1027.43 185.41 1027.43 M185.41 1023.73 Q191.22 1023.73 194.276 1028.33 Q197.355 1032.92 197.355 1041.67 Q197.355 1050.39 194.276 1055 Q191.22 1059.58 185.41 1059.58 Q179.6 1059.58 176.521 1055 Q173.466 1050.39 173.466 1041.67 Q173.466 1032.92 176.521 1028.33 Q179.6 1023.73 185.41 1023.73 Z" fill="#000000" fill-rule="evenodd" fill-opacity="1" /><path clip-path="url(#clip600)" d="M 0 0 M185.41 805.618 Q181.799 805.618 179.971 809.183 Q178.165 812.725 178.165 819.854 Q178.165 826.961 179.971 830.526 Q181.799 834.067 185.41 834.067 Q189.045 834.067 190.85 830.526 Q192.679 826.961 192.679 819.854 Q192.679 812.725 190.85 809.183 Q189.045 805.618 185.41 805.618 M185.41 801.915 Q191.22 801.915 194.276 806.521 Q197.355 811.104 197.355 819.854 Q197.355 828.581 194.276 833.188 Q191.22 837.771 185.41 837.771 Q179.6 837.771 176.521 833.188 Q173.466 828.581 173.466 819.854 Q173.466 811.104 176.521 806.521 Q179.6 801.915 185.41 801.915 Z" fill="#000000" fill-rule="evenodd" fill-opacity="1" /><path clip-path="url(#clip600)" d="M 0 0 M150.434 611.352 L158.072 611.352 L158.072 584.987 L149.762 586.653 L149.762 582.394 L158.026 580.727 L162.702 580.727 L162.702 611.352 L170.341 611.352 L170.341 615.287 L150.434 615.287 L150.434 611.352 Z" fill="#000000" fill-rule="evenodd" fill-opacity="1" /><path clip-path="url(#clip600)" d="M 0 0 M185.41 583.806 Q181.799 583.806 179.971 587.371 Q178.165 590.913 178.165 598.042 Q178.165 605.149 179.971 608.713 Q181.799 612.255 185.41 612.255 Q189.045 612.255 190.85 608.713 Q192.679 605.149 192.679 598.042 Q192.679 590.913 190.85 587.371 Q189.045 583.806 185.41 583.806 M185.41 580.102 Q191.22 580.102 194.276 584.709 Q197.355 589.292 197.355 598.042 Q197.355 606.769 194.276 611.375 Q191.22 615.959 185.41 615.959 Q179.6 615.959 176.521 611.375 Q173.466 606.769 173.466 598.042 Q173.466 589.292 176.521 584.709 Q179.6 580.102 185.41 580.102 Z" fill="#000000" fill-rule="evenodd" fill-opacity="1" /><path clip-path="url(#clip600)" d="M 0 0 M154.022 389.54 L170.341 389.54 L170.341 393.475 L148.397 393.475 L148.397 389.54 Q151.059 386.786 155.642 382.156 Q160.248 377.503 161.429 376.161 Q163.674 373.637 164.554 371.901 Q165.457 370.142 165.457 368.452 Q165.457 365.698 163.512 363.962 Q161.591 362.225 158.489 362.225 Q156.29 362.225 153.836 362.989 Q151.406 363.753 148.628 365.304 L148.628 360.582 Q151.452 359.448 153.906 358.869 Q156.36 358.29 158.397 358.29 Q163.767 358.29 166.961 360.975 Q170.156 363.661 170.156 368.151 Q170.156 370.281 169.346 372.202 Q168.559 374.1 166.452 376.693 Q165.873 377.364 162.772 380.582 Q159.67 383.776 154.022 389.54 Z" fill="#000000" fill-rule="evenodd" fill-opacity="1" /><path clip-path="url(#clip600)" d="M 0 0 M185.41 361.994 Q181.799 361.994 179.971 365.559 Q178.165 369.1 178.165 376.23 Q178.165 383.336 179.971 386.901 Q181.799 390.443 185.41 390.443 Q189.045 390.443 190.85 386.901 Q192.679 383.336 192.679 376.23 Q192.679 369.1 190.85 365.559 Q189.045 361.994 185.41 361.994 M185.41 358.29 Q191.22 358.29 194.276 362.897 Q197.355 367.48 197.355 376.23 Q197.355 384.957 194.276 389.563 Q191.22 394.147 185.41 394.147 Q179.6 394.147 176.521 389.563 Q173.466 384.957 173.466 376.23 Q173.466 367.48 176.521 362.897 Q179.6 358.29 185.41 358.29 Z" fill="#000000" fill-rule="evenodd" fill-opacity="1" /><path clip-path="url(#clip600)" d="M 0 0 M163.211 153.029 Q166.568 153.747 168.443 156.015 Q170.341 158.284 170.341 161.617 Q170.341 166.733 166.822 169.534 Q163.304 172.334 156.823 172.334 Q154.647 172.334 152.332 171.895 Q150.04 171.478 147.586 170.621 L147.586 166.108 Q149.531 167.242 151.846 167.821 Q154.16 168.399 156.684 168.399 Q161.082 168.399 163.373 166.663 Q165.688 164.927 165.688 161.617 Q165.688 158.561 163.535 156.848 Q161.406 155.112 157.586 155.112 L153.559 155.112 L153.559 151.27 L157.772 151.27 Q161.221 151.27 163.049 149.904 Q164.878 148.515 164.878 145.923 Q164.878 143.26 162.98 141.848 Q161.105 140.413 157.586 140.413 Q155.665 140.413 153.466 140.83 Q151.267 141.247 148.628 142.126 L148.628 137.96 Q151.29 137.219 153.605 136.848 Q155.943 136.478 158.003 136.478 Q163.327 136.478 166.429 138.909 Q169.531 141.316 169.531 145.436 Q169.531 148.307 167.887 150.297 Q166.244 152.265 163.211 153.029 Z" fill="#000000" fill-rule="evenodd" fill-opacity="1" /><path clip-path="url(#clip600)" d="M 0 0 M185.41 140.182 Q181.799 140.182 179.971 143.747 Q178.165 147.288 178.165 154.418 Q178.165 161.524 179.971 165.089 Q181.799 168.631 185.41 168.631 Q189.045 168.631 190.85 165.089 Q192.679 161.524 192.679 154.418 Q192.679 147.288 190.85 143.747 Q189.045 140.182 185.41 140.182 M185.41 136.478 Q191.22 136.478 194.276 141.085 Q197.355 145.668 197.355 154.418 Q197.355 163.145 194.276 167.751 Q191.22 172.334 185.41 172.334 Q179.6 172.334 176.521 167.751 Q173.466 163.145 173.466 154.418 Q173.466 145.668 176.521 141.085 Q179.6 136.478 185.41 136.478 Z" fill="#000000" fill-rule="evenodd" fill-opacity="1" /><path clip-path="url(#clip600)" d="M 0 0 M19.2617 768.867 L20.186 769.43 Q18.6755 772.925 16.2633 777.276 Q18.6755 781.627 20.186 785.121 L19.2617 785.662 Q15.9477 781.852 13.4002 777.276 Q15.9702 772.654 19.2617 768.867 Z" fill="#000000" fill-rule="evenodd" fill-opacity="1" /><path clip-path="url(#clip600)" d="M 0 0 M35.6312 763.648 Q36.4685 763.648 38.0788 764.002 Q42.6198 765.129 45.7438 769.348 Q46.3235 770.057 47.0642 771.313 Q48.0626 769.799 49.8984 768.479 Q52.9257 766.514 57.0159 766.514 Q58.916 766.514 61.2348 767.029 Q66.6132 768.479 70.4779 773.567 Q74.246 778.688 74.246 784.775 Q74.246 788.06 72.5069 790.314 Q70.7355 792.536 67.7726 793.406 L85.8401 797.883 Q86.291 797.979 86.291 798.559 L86.291 798.881 Q86.291 799.557 85.518 799.557 L44.9387 789.38 Q42.2012 788.704 39.6247 787.609 Q37.0482 786.514 34.7294 785 Q32.4106 783.454 30.7037 781.683 Q28.9645 779.912 27.9662 777.722 Q26.9356 775.532 26.9356 773.213 Q26.9356 768.35 30.2528 765.58 Q32.6038 763.648 35.6312 763.648 M34.4717 767.351 Q32.475 767.351 31.0901 768.157 Q28.4493 769.799 28.4493 773.277 Q28.4493 775.371 29.4154 777.367 Q30.3494 779.332 31.9597 780.91 Q33.57 782.488 35.76 783.841 Q37.95 785.194 40.3332 786.192 Q42.6842 787.158 45.2607 787.802 L61.2348 791.764 Q62.9417 792.15 64.4554 792.15 Q68.0625 792.15 70.4135 790.153 Q72.7645 788.156 72.7645 784.71 Q72.7645 780.137 69.3507 776.208 Q66.2911 772.794 60.9128 771.377 Q57.5311 770.572 55.1801 770.572 Q52.6036 770.572 50.6069 771.506 Q48.9966 772.182 48.0304 773.503 Q48.9 775.95 48.9 778.43 Q48.9 779.622 48.8678 780.266 Q48.8356 780.878 48.7067 781.78 Q48.5779 782.649 48.2237 783.068 Q47.8694 783.454 47.3219 783.454 Q46.9998 783.454 46.871 783.39 Q46.3557 783.261 46.0014 782.842 Q45.6472 782.424 45.4862 781.941 Q45.2929 781.458 45.1963 780.652 Q45.0997 779.815 45.0997 779.268 Q45.0675 778.72 45.0675 777.786 Q45.0675 775.596 45.937 773.374 Q45.4862 772.537 44.681 771.635 Q42.0079 768.769 37.7567 767.802 Q36.1787 767.351 34.4717 767.351 M46.9354 775.467 Q46.5812 776.82 46.5812 777.851 Q46.5812 781.619 47.1931 781.812 Q47.2575 781.812 47.3219 781.683 Q47.3541 781.554 47.3863 781.264 Q47.3863 780.942 47.4185 780.685 Q47.4507 780.395 47.4507 779.912 Q47.4507 779.429 47.4507 779.171 Q47.4507 778.881 47.4507 778.366 Q47.4507 777.078 46.9354 775.467 Z" fill="#000000" fill-rule="evenodd" fill-opacity="1" /><path clip-path="url(#clip600)" d="M 0 0 M977.125 14.0809 L977.125 22.0612 Q972.467 19.8332 968.335 18.7395 Q964.203 17.6457 960.355 17.6457 Q953.671 17.6457 950.025 20.2383 Q946.419 22.8309 946.419 27.611 Q946.419 31.6214 948.809 33.6873 Q951.24 35.7128 957.965 36.9686 L962.907 37.9813 Q972.062 39.7232 976.396 44.1387 Q980.771 48.5136 980.771 55.8863 Q980.771 64.6767 974.857 69.2137 Q968.983 73.7508 957.6 73.7508 Q953.306 73.7508 948.445 72.7785 Q943.624 71.8063 938.439 69.9024 L938.439 61.4765 Q943.422 64.2716 948.202 65.6895 Q952.982 67.1073 957.6 67.1073 Q964.608 67.1073 968.416 64.3527 Q972.224 61.598 972.224 56.4939 Q972.224 52.0379 969.469 49.5264 Q966.755 47.0148 960.517 45.759 L955.534 44.7868 Q946.379 42.9639 942.288 39.075 Q938.196 35.1862 938.196 28.2591 Q938.196 20.2383 943.827 15.6203 Q949.498 11.0023 959.423 11.0023 Q963.676 11.0023 968.092 11.7719 Q972.507 12.5416 977.125 14.0809 Z" fill="#000000" fill-rule="evenodd" fill-opacity="1" /><path clip-path="url(#clip600)" d="M 0 0 M987.82 54.671 L987.82 27.2059 L995.273 27.2059 L995.273 54.3874 Q995.273 60.8284 997.785 64.0691 Q1000.3 67.2693 1005.32 67.2693 Q1011.36 67.2693 1014.84 63.421 Q1018.36 59.5726 1018.36 52.9291 L1018.36 27.2059 L1025.82 27.2059 L1025.82 72.576 L1018.36 72.576 L1018.36 65.6084 Q1015.65 69.7404 1012.04 71.7658 Q1008.48 73.7508 1003.74 73.7508 Q995.921 73.7508 991.871 68.8897 Q987.82 64.0286 987.82 54.671 M1006.58 26.1121 L1006.58 26.1121 Z" fill="#000000" fill-rule="evenodd" fill-opacity="1" /><path clip-path="url(#clip600)" d="M 0 0 M1068.96 35.9153 Q1071.75 30.8922 1075.64 28.5022 Q1079.53 26.1121 1084.8 26.1121 Q1091.89 26.1121 1095.74 31.0947 Q1099.58 36.0368 1099.58 45.1919 L1099.58 72.576 L1092.09 72.576 L1092.09 45.4349 Q1092.09 38.913 1089.78 35.7533 Q1087.47 32.5936 1082.73 32.5936 Q1076.94 32.5936 1073.58 36.4419 Q1070.22 40.2903 1070.22 46.9338 L1070.22 72.576 L1062.72 72.576 L1062.72 45.4349 Q1062.72 38.8725 1060.41 35.7533 Q1058.1 32.5936 1053.28 32.5936 Q1047.57 32.5936 1044.21 36.4824 Q1040.85 40.3308 1040.85 46.9338 L1040.85 72.576 L1033.35 72.576 L1033.35 27.2059 L1040.85 27.2059 L1040.85 34.2544 Q1043.4 30.082 1046.96 28.0971 Q1050.53 26.1121 1055.43 26.1121 Q1060.37 26.1121 1063.81 28.6237 Q1067.3 31.1352 1068.96 35.9153 Z" fill="#000000" fill-rule="evenodd" fill-opacity="1" /><path clip-path="url(#clip600)" d="M 0 0 M1103.64 46.5287 L1125.47 46.5287 L1125.47 53.1722 L1103.64 53.1722 L1103.64 46.5287 Z" fill="#000000" fill-rule="evenodd" fill-opacity="1" /><path clip-path="url(#clip600)" d="M 0 0 M1140.66 14.324 L1140.66 27.2059 L1156.01 27.2059 L1156.01 32.9987 L1140.66 32.9987 L1140.66 57.6282 Q1140.66 63.1779 1142.16 64.7578 Q1143.7 66.3376 1148.36 66.3376 L1156.01 66.3376 L1156.01 72.576 L1148.36 72.576 Q1139.73 72.576 1136.45 69.3758 Q1133.17 66.1351 1133.17 57.6282 L1133.17 32.9987 L1127.7 32.9987 L1127.7 27.2059 L1133.17 27.2059 L1133.17 14.324 L1140.66 14.324 Z" fill="#000000" fill-rule="evenodd" fill-opacity="1" /><path clip-path="url(#clip600)" d="M 0 0 M1181.41 32.4315 Q1175.42 32.4315 1171.93 37.1306 Q1168.45 41.7891 1168.45 49.9314 Q1168.45 58.0738 1171.89 62.7728 Q1175.38 67.4314 1181.41 67.4314 Q1187.37 67.4314 1190.85 62.7323 Q1194.33 58.0333 1194.33 49.9314 Q1194.33 41.8701 1190.85 37.1711 Q1187.37 32.4315 1181.41 32.4315 M1181.41 26.1121 Q1191.13 26.1121 1196.68 32.4315 Q1202.23 38.7509 1202.23 49.9314 Q1202.23 61.0714 1196.68 67.4314 Q1191.13 73.7508 1181.41 73.7508 Q1171.65 73.7508 1166.1 67.4314 Q1160.59 61.0714 1160.59 49.9314 Q1160.59 38.7509 1166.1 32.4315 Q1171.65 26.1121 1181.41 26.1121 Z" fill="#000000" fill-rule="evenodd" fill-opacity="1" /><path clip-path="url(#clip600)" d="M 0 0 M1207.82 46.5287 L1229.66 46.5287 L1229.66 53.1722 L1207.82 53.1722 L1207.82 46.5287 Z" fill="#000000" fill-rule="evenodd" fill-opacity="1" /><path clip-path="url(#clip600)" d="M 0 0 M1234.32 12.096 L1281.83 12.096 L1281.83 18.3344 L1243.59 65.6895 L1282.77 65.6895 L1282.77 72.576 L1233.39 72.576 L1233.39 66.3376 L1271.63 18.9825 L1234.32 18.9825 L1234.32 12.096 Z" fill="#000000" fill-rule="evenodd" fill-opacity="1" /><path clip-path="url(#clip600)" d="M 0 0 M1329.39 48.0275 L1329.39 51.6733 L1295.12 51.6733 Q1295.61 59.3701 1299.74 63.421 Q1303.91 67.4314 1311.32 67.4314 Q1315.62 67.4314 1319.63 66.3781 Q1323.68 65.3249 1327.65 63.2184 L1327.65 70.267 Q1323.64 71.9684 1319.43 72.8596 Q1315.21 73.7508 1310.88 73.7508 Q1300.02 73.7508 1293.66 67.4314 Q1287.34 61.1119 1287.34 50.3365 Q1287.34 39.1965 1293.34 32.6746 Q1299.37 26.1121 1309.58 26.1121 Q1318.74 26.1121 1324.04 32.0264 Q1329.39 37.9003 1329.39 48.0275 M1321.94 45.84 Q1321.86 39.7232 1318.49 36.0774 Q1315.17 32.4315 1309.66 32.4315 Q1303.43 32.4315 1299.66 35.9558 Q1295.93 39.4801 1295.36 45.8805 L1321.94 45.84 Z" fill="#000000" fill-rule="evenodd" fill-opacity="1" /><path clip-path="url(#clip600)" d="M 0 0 M1363.5 34.1734 Q1362.24 33.4443 1360.75 33.1202 Q1359.29 32.7556 1357.51 32.7556 Q1351.19 32.7556 1347.78 36.8875 Q1344.42 40.9789 1344.42 48.6757 L1344.42 72.576 L1336.93 72.576 L1336.93 27.2059 L1344.42 27.2059 L1344.42 34.2544 Q1346.77 30.1225 1350.54 28.1376 Q1354.3 26.1121 1359.69 26.1121 Q1360.46 26.1121 1361.39 26.2337 Q1362.33 26.3147 1363.46 26.5172 L1363.5 34.1734 Z" fill="#000000" fill-rule="evenodd" fill-opacity="1" /><path clip-path="url(#clip600)" d="M 0 0 M1387.08 32.4315 Q1381.08 32.4315 1377.6 37.1306 Q1374.11 41.7891 1374.11 49.9314 Q1374.11 58.0738 1377.56 62.7728 Q1381.04 67.4314 1387.08 67.4314 Q1393.03 67.4314 1396.52 62.7323 Q1400 58.0333 1400 49.9314 Q1400 41.8701 1396.52 37.1711 Q1393.03 32.4315 1387.08 32.4315 M1387.08 26.1121 Q1396.8 26.1121 1402.35 32.4315 Q1407.9 38.7509 1407.9 49.9314 Q1407.9 61.0714 1402.35 67.4314 Q1396.8 73.7508 1387.08 73.7508 Q1377.31 73.7508 1371.76 67.4314 Q1366.26 61.0714 1366.26 49.9314 Q1366.26 38.7509 1371.76 32.4315 Q1377.31 26.1121 1387.08 26.1121 Z" fill="#000000" fill-rule="evenodd" fill-opacity="1" /><path clip-path="url(#clip600)" d="M 0 0 M1442.41 12.096 L1450.59 12.096 L1450.59 65.6895 L1480.05 65.6895 L1480.05 72.576 L1442.41 72.576 L1442.41 12.096 Z" fill="#000000" fill-rule="evenodd" fill-opacity="1" /><path clip-path="url(#clip600)" d="M 0 0 M1508.48 49.7694 Q1499.45 49.7694 1495.97 51.8354 Q1492.48 53.9013 1492.48 58.8839 Q1492.48 62.8538 1495.07 65.2034 Q1497.71 67.5124 1502.2 67.5124 Q1508.4 67.5124 1512.13 63.1374 Q1515.9 58.7219 1515.9 51.4303 L1515.9 49.7694 L1508.48 49.7694 M1523.35 46.6907 L1523.35 72.576 L1515.9 72.576 L1515.9 65.6895 Q1513.34 69.8214 1509.54 71.8063 Q1505.73 73.7508 1500.22 73.7508 Q1493.25 73.7508 1489.12 69.8619 Q1485.03 65.9325 1485.03 59.3701 Q1485.03 51.7138 1490.13 47.825 Q1495.28 43.9361 1505.44 43.9361 L1515.9 43.9361 L1515.9 43.2069 Q1515.9 38.0623 1512.49 35.2672 Q1509.13 32.4315 1503.01 32.4315 Q1499.12 32.4315 1495.44 33.3632 Q1491.75 34.295 1488.35 36.1584 L1488.35 29.2718 Q1492.44 27.692 1496.29 26.9223 Q1500.14 26.1121 1503.78 26.1121 Q1513.63 26.1121 1518.49 31.2163 Q1523.35 36.3204 1523.35 46.6907 Z" fill="#000000" fill-rule="evenodd" fill-opacity="1" /><path clip-path="url(#clip600)" d="M 0 0 M1560.09 28.5427 L1560.09 35.5912 Q1556.93 33.9709 1553.53 33.1607 Q1550.13 32.3505 1546.48 32.3505 Q1540.93 32.3505 1538.14 34.0519 Q1535.38 35.7533 1535.38 39.156 Q1535.38 41.7486 1537.37 43.2475 Q1539.35 44.7058 1545.35 46.0426 L1547.9 46.6097 Q1555.84 48.3111 1559.16 51.4303 Q1562.52 54.509 1562.52 60.0587 Q1562.52 66.3781 1557.5 70.0644 Q1552.52 73.7508 1543.77 73.7508 Q1540.12 73.7508 1536.15 73.0216 Q1532.22 72.3329 1527.85 70.9151 L1527.85 63.2184 Q1531.98 65.3654 1535.99 66.4591 Q1540 67.5124 1543.93 67.5124 Q1549.19 67.5124 1552.03 65.73 Q1554.87 63.9071 1554.87 60.6258 Q1554.87 57.5877 1552.8 55.9673 Q1550.77 54.3469 1543.85 52.8481 L1541.25 52.2405 Q1534.33 50.7821 1531.25 47.7845 Q1528.17 44.7463 1528.17 39.4801 Q1528.17 33.0797 1532.71 29.5959 Q1537.24 26.1121 1545.59 26.1121 Q1549.72 26.1121 1553.37 26.7198 Q1557.01 27.3274 1560.09 28.5427 Z" fill="#000000" fill-rule="evenodd" fill-opacity="1" /><path clip-path="url(#clip600)" d="M 0 0 M1599.26 28.5427 L1599.26 35.5912 Q1596.1 33.9709 1592.7 33.1607 Q1589.3 32.3505 1585.65 32.3505 Q1580.1 32.3505 1577.31 34.0519 Q1574.55 35.7533 1574.55 39.156 Q1574.55 41.7486 1576.54 43.2475 Q1578.52 44.7058 1584.52 46.0426 L1587.07 46.6097 Q1595.01 48.3111 1598.33 51.4303 Q1601.69 54.509 1601.69 60.0587 Q1601.69 66.3781 1596.67 70.0644 Q1591.69 73.7508 1582.94 73.7508 Q1579.29 73.7508 1575.32 73.0216 Q1571.39 72.3329 1567.02 70.9151 L1567.02 63.2184 Q1571.15 65.3654 1575.16 66.4591 Q1579.17 67.5124 1583.1 67.5124 Q1588.37 67.5124 1591.2 65.73 Q1594.04 63.9071 1594.04 60.6258 Q1594.04 57.5877 1591.97 55.9673 Q1589.95 54.3469 1583.02 52.8481 L1580.43 52.2405 Q1573.5 50.7821 1570.42 47.7845 Q1567.34 44.7463 1567.34 39.4801 Q1567.34 33.0797 1571.88 29.5959 Q1576.42 26.1121 1584.76 26.1121 Q1588.89 26.1121 1592.54 26.7198 Q1596.18 27.3274 1599.26 28.5427 Z" fill="#000000" fill-rule="evenodd" fill-opacity="1" /><path clip-path="url(#clip600)" d="M 0 0 M1627.09 32.4315 Q1621.1 32.4315 1617.61 37.1306 Q1614.13 41.7891 1614.13 49.9314 Q1614.13 58.0738 1617.57 62.7728 Q1621.06 67.4314 1627.09 67.4314 Q1633.05 67.4314 1636.53 62.7323 Q1640.02 58.0333 1640.02 49.9314 Q1640.02 41.8701 1636.53 37.1711 Q1633.05 32.4315 1627.09 32.4315 M1627.09 26.1121 Q1636.82 26.1121 1642.36 32.4315 Q1647.91 38.7509 1647.91 49.9314 Q1647.91 61.0714 1642.36 67.4314 Q1636.82 73.7508 1627.09 73.7508 Q1617.33 73.7508 1611.78 67.4314 Q1606.27 61.0714 1606.27 49.9314 Q1606.27 38.7509 1611.78 32.4315 Q1617.33 26.1121 1627.09 26.1121 Z" fill="#000000" fill-rule="evenodd" fill-opacity="1" /><polyline clip-path="url(#clip602)" style="stroke:#009af9; stroke-width:4; stroke-opacity:1; fill:none" points="
  293.338,516.63 350.464,583.606 407.591,646.946 464.718,691.746 521.845,736.625 578.971,771.214 636.098,805.191 693.225,819.82 750.351,819.82 807.478,819.82 
  864.605,819.82 921.732,819.82 978.858,819.82 1035.99,819.82 1093.11,819.82 1150.24,819.819 1207.37,819.82 1264.49,819.82 1321.62,819.82 1378.75,819.82 
  1435.87,819.82 1493,819.82 1550.13,819.82 1607.25,819.82 1664.38,819.82 1721.51,819.82 1778.63,819.82 1835.76,819.82 1892.89,819.82 1950.01,819.82 
  2007.14,819.82 2064.27,819.82 2121.39,819.82 2178.52,819.82 2235.65,819.82 2292.77,819.82 
  "/>
<polyline clip-path="url(#clip602)" style="stroke:#e26f46; stroke-width:4; stroke-opacity:1; fill:none" points="
  293.338,1036.59 350.464,996.063 407.591,974.511 464.718,956.679 521.845,949.152 578.971,934.909 636.098,919.892 693.225,901.066 750.351,881.671 807.478,864.389 
  864.605,848.946 921.732,832.872 978.858,819.82 1035.99,819.82 1093.11,819.82 1150.24,819.82 1207.37,819.82 1264.49,819.82 1321.62,819.82 1378.75,819.82 
  1435.87,819.82 1493,819.82 1550.13,819.82 1607.25,819.82 1664.38,819.82 1721.51,819.82 1778.63,819.82 1835.76,819.82 1892.89,819.82 1950.01,819.82 
  2007.14,819.82 2064.27,819.82 2121.39,819.82 2178.52,819.82 2235.65,819.82 2292.77,819.82 
  "/>
<polyline clip-path="url(#clip602)" style="stroke:#3da44d; stroke-width:4; stroke-opacity:1; fill:none" points="
  293.338,618.993 350.464,695.614 407.591,753.983 464.718,797.909 521.845,819.82 578.971,819.82 636.098,819.82 693.225,819.82 750.351,819.82 807.478,819.82 
  864.605,819.82 921.732,819.82 978.858,819.82 1035.99,819.82 1093.11,819.82 1150.24,819.82 1207.37,819.82 1264.49,819.82 1321.62,819.82 1378.75,819.82 
  1435.87,819.82 1493,819.82 1550.13,819.82 1607.25,819.82 1664.38,819.82 1721.51,819.82 1778.63,819.82 1835.76,819.82 1892.89,819.819 1950.01,819.82 
  2007.14,819.82 2064.27,819.82 2121.39,819.82 2178.52,819.82 2235.65,819.82 2292.77,819.82 
  "/>
<polyline clip-path="url(#clip602)" style="stroke:#c271d2; stroke-width:4; stroke-opacity:1; fill:none" points="
  293.338,1217.6 350.464,1195.64 407.591,1160.23 464.718,1098.99 521.845,1045.44 578.971,1010.25 636.098,981.821 693.225,962.65 750.351,946.047 807.478,930.732 
  864.605,910.935 921.732,891.519 978.858,877.754 1035.99,865.757 1093.11,852.572 1150.24,838.358 1207.37,823.582 1264.49,819.82 1321.62,819.82 1378.75,819.82 
  1435.87,819.82 1493,819.82 1550.13,819.82 1607.25,819.82 1664.38,819.82 1721.51,819.82 1778.63,819.82 1835.76,819.82 1892.89,819.82 1950.01,819.82 
  2007.14,819.82 2064.27,819.82 2121.39,819.82 2178.52,819.82 2235.65,819.82 2292.77,819.82 
  "/>
<polyline clip-path="url(#clip602)" style="stroke:#ac8d18; stroke-width:4; stroke-opacity:1; fill:none" points="
  293.338,1402.8 350.464,1294.05 407.591,1216.05 464.718,1170.14 521.845,1128.61 578.971,1098.35 636.098,1067.69 693.225,1044.45 750.351,1032 807.478,1021.51 
  864.605,1010.52 921.732,1001.71 978.858,988.536 1035.99,976.248 1093.11,965.602 1150.24,956.981 1207.37,952.956 1264.49,941.117 1321.62,926.409 1378.75,911.702 
  1435.87,896.994 1493,877.44 1550.13,856.982 1607.25,836.525 1664.38,819.82 1721.51,819.82 1778.63,819.82 1835.76,819.82 1892.89,819.819 1950.01,819.82 
  2007.14,819.82 2064.27,819.82 2121.39,819.82 2178.52,819.82 2235.65,819.82 2292.77,819.82 
  "/>
<polyline clip-path="url(#clip602)" style="stroke:#00a9ad; stroke-width:4; stroke-opacity:1; fill:none" points="
  293.338,787.16 350.464,819.82 407.591,819.82 464.718,819.82 521.845,819.82 578.971,819.82 636.098,819.82 693.225,819.82 750.351,819.82 807.478,819.82 
  864.605,819.82 921.732,819.82 978.858,819.82 1035.99,819.82 1093.11,819.82 1150.24,819.82 1207.37,819.82 1264.49,819.82 1321.62,819.82 1378.75,819.82 
  1435.87,819.82 1493,819.82 1550.13,819.82 1607.25,819.82 1664.38,819.82 1721.51,819.82 1778.63,819.82 1835.76,819.82 1892.89,819.82 1950.01,819.82 
  2007.14,819.82 2064.27,819.82 2121.39,819.82 2178.52,819.82 2235.65,819.82 2292.77,819.82 
  "/>
<polyline clip-path="url(#clip602)" style="stroke:#ed5d92; stroke-width:4; stroke-opacity:1; fill:none" points="
  293.338,998.382 350.464,940.338 407.591,881.299 464.718,853.304 521.845,823.561 578.971,819.82 636.098,819.82 693.225,819.82 750.351,819.82 807.478,819.82 
  864.605,819.82 921.732,819.82 978.858,819.82 1035.99,819.82 1093.11,819.82 1150.24,819.82 1207.37,819.82 1264.49,819.82 1321.62,819.82 1378.75,819.82 
  1435.87,819.82 1493,819.82 1550.13,819.82 1607.25,819.82 1664.38,819.82 1721.51,819.82 1778.63,819.82 1835.76,819.82 1892.89,819.82 1950.01,819.82 
  2007.14,819.82 2064.27,819.82 2121.39,819.82 2178.52,819.82 2235.65,819.82 2292.77,819.82 
  "/>
<polyline clip-path="url(#clip602)" style="stroke:#c68125; stroke-width:4; stroke-opacity:1; fill:none" points="
  293.338,160.734 350.464,272.699 407.591,389.655 464.718,461.873 521.845,512.955 578.971,537.42 636.098,549.808 693.225,564.234 750.351,584.456 807.478,606.257 
  864.605,625.412 921.732,644.073 978.858,660.179 1035.99,673.691 1093.11,689.271 1150.24,707.094 1207.37,728.73 1264.49,744.385 1321.62,757.584 1378.75,770.783 
  1435.87,783.982 1493,793.12 1550.13,801.502 1607.25,809.883 1664.38,819.82 1721.51,819.82 1778.63,819.82 1835.76,819.82 1892.89,819.82 1950.01,819.82 
  2007.14,819.82 2064.27,819.82 2121.39,819.82 2178.52,819.82 2235.65,819.82 2292.77,819.82 
  "/>
<polyline clip-path="url(#clip602)" style="stroke:#00a98d; stroke-width:4; stroke-opacity:1; fill:none" points="
  293.338,996.416 350.464,961.769 407.591,926.356 464.718,872.652 521.845,832.831 578.971,819.82 636.098,819.82 693.225,819.82 750.351,819.82 807.478,819.82 
  864.605,819.82 921.732,819.82 978.858,819.82 1035.99,819.82 1093.11,819.82 1150.24,819.82 1207.37,819.82 1264.49,819.82 1321.62,819.82 1378.75,819.82 
  1435.87,819.82 1493,819.819 1550.13,819.82 1607.25,819.82 1664.38,819.82 1721.51,819.82 1778.63,819.82 1835.76,819.82 1892.89,819.819 1950.01,819.82 
  2007.14,819.82 2064.27,819.82 2121.39,819.82 2178.52,819.82 2235.65,819.82 2292.77,819.82 
  "/>
<polyline clip-path="url(#clip602)" style="stroke:#8e971d; stroke-width:4; stroke-opacity:1; fill:none" points="
  293.338,737.795 350.464,789.339 407.591,819.819 464.718,819.82 521.845,819.82 578.971,819.82 636.098,819.82 693.225,819.82 750.351,819.82 807.478,819.82 
  864.605,819.82 921.732,819.82 978.858,819.82 1035.99,819.819 1093.11,819.82 1150.24,819.82 1207.37,819.82 1264.49,819.82 1321.62,819.82 1378.75,819.82 
  1435.87,819.82 1493,819.819 1550.13,819.82 1607.25,819.82 1664.38,819.82 1721.51,819.82 1778.63,819.82 1835.76,819.82 1892.89,819.82 1950.01,819.82 
  2007.14,819.82 2064.27,819.82 2121.39,819.82 2178.52,819.82 2235.65,819.82 2292.77,819.82 
  "/>
<polyline clip-path="url(#clip602)" style="stroke:#00a8cb; stroke-width:4; stroke-opacity:1; fill:none" points="
  293.338,839.458 350.464,841.896 407.591,848.759 464.718,829.037 521.845,819.82 578.971,819.82 636.098,819.82 693.225,819.82 750.351,819.82 807.478,819.82 
  864.605,819.82 921.732,819.82 978.858,819.82 1035.99,819.82 1093.11,819.82 1150.24,819.82 1207.37,819.82 1264.49,819.82 1321.62,819.82 1378.75,819.82 
  1435.87,819.82 1493,819.82 1550.13,819.82 1607.25,819.82 1664.38,819.82 1721.51,819.82 1778.63,819.82 1835.76,819.82 1892.89,819.82 1950.01,819.82 
  2007.14,819.82 2064.27,819.82 2121.39,819.82 2178.52,819.82 2235.65,819.82 2292.77,819.82 
  "/>
<polyline clip-path="url(#clip602)" style="stroke:#9b7fe8; stroke-width:4; stroke-opacity:1; fill:none" points="
  293.338,1016.84 350.464,986.888 407.591,989.65 464.718,984.427 521.845,980.298 578.971,979.078 636.098,976.925 693.225,967.372 750.351,961.848 807.478,956.775 
  864.605,947.281 921.732,934.099 978.858,920.223 1035.99,906.366 1093.11,894.243 1150.24,883.786 1207.37,874.934 1264.49,862.477 1321.62,848.967 1378.75,835.455 
  1435.87,821.945 1493,819.82 1550.13,819.82 1607.25,819.82 1664.38,819.82 1721.51,819.82 1778.63,819.82 1835.76,819.82 1892.89,819.82 1950.01,819.82 
  2007.14,819.82 2064.27,819.82 2121.39,819.82 2178.52,819.82 2235.65,819.82 2292.77,819.82 
  "/>
<polyline clip-path="url(#clip602)" style="stroke:#608cf6; stroke-width:4; stroke-opacity:1; fill:none" points="
  293.338,903.712 350.464,854.349 407.591,819.82 464.718,819.82 521.845,819.82 578.971,819.819 636.098,819.82 693.225,819.82 750.351,819.82 807.478,819.819 
  864.605,819.82 921.732,819.82 978.858,819.82 1035.99,819.82 1093.11,819.82 1150.24,819.82 1207.37,819.82 1264.49,819.82 1321.62,819.82 1378.75,819.82 
  1435.87,819.82 1493,819.82 1550.13,819.82 1607.25,819.82 1664.38,819.82 1721.51,819.82 1778.63,819.82 1835.76,819.82 1892.89,819.82 1950.01,819.82 
  2007.14,819.82 2064.27,819.82 2121.39,819.82 2178.52,819.82 2235.65,819.82 2292.77,819.82 
  "/>
<polyline clip-path="url(#clip602)" style="stroke:#f05f73; stroke-width:4; stroke-opacity:1; fill:none" points="
  293.338,495.809 350.464,527.967 407.591,564.138 464.718,602.755 521.845,643.566 578.971,682.336 636.098,717.832 693.225,745.54 750.351,772.86 807.478,803.055 
  864.605,819.82 921.732,819.82 978.858,819.82 1035.99,819.82 1093.11,819.82 1150.24,819.819 1207.37,819.82 1264.49,819.82 1321.62,819.82 1378.75,819.82 
  1435.87,819.82 1493,819.82 1550.13,819.82 1607.25,819.82 1664.38,819.82 1721.51,819.82 1778.63,819.82 1835.76,819.82 1892.89,819.82 1950.01,819.82 
  2007.14,819.82 2064.27,819.82 2121.39,819.82 2178.52,819.82 2235.65,819.82 2292.77,819.82 
  "/>
<polyline clip-path="url(#clip602)" style="stroke:#dd64b5; stroke-width:4; stroke-opacity:1; fill:none" points="
  293.338,850.571 350.464,819.82 407.591,819.82 464.718,819.82 521.845,819.82 578.971,819.82 636.098,819.82 693.225,819.82 750.351,819.82 807.478,819.82 
  864.605,819.82 921.732,819.82 978.858,819.82 1035.99,819.82 1093.11,819.82 1150.24,819.82 1207.37,819.82 1264.49,819.82 1321.62,819.82 1378.75,819.82 
  1435.87,819.82 1493,819.82 1550.13,819.82 1607.25,819.82 1664.38,819.82 1721.51,819.82 1778.63,819.82 1835.76,819.82 1892.89,819.82 1950.01,819.82 
  2007.14,819.82 2064.27,819.82 2121.39,819.82 2178.52,819.82 2235.65,819.82 2292.77,819.819 
  "/>
<polyline clip-path="url(#clip602)" style="stroke:#6b9e32; stroke-width:4; stroke-opacity:1; fill:none" points="
  293.338,394.379 350.464,518.314 407.591,618.028 464.718,675.853 521.845,718.641 578.971,760.576 636.098,796.323 693.225,819.82 750.351,819.82 807.478,819.819 
  864.605,819.82 921.732,819.82 978.858,819.82 1035.99,819.82 1093.11,819.82 1150.24,819.82 1207.37,819.82 1264.49,819.82 1321.62,819.82 1378.75,819.82 
  1435.87,819.82 1493,819.819 1550.13,819.82 1607.25,819.82 1664.38,819.82 1721.51,819.82 1778.63,819.82 1835.76,819.82 1892.89,819.82 1950.01,819.82 
  2007.14,819.82 2064.27,819.82 2121.39,819.82 2178.52,819.82 2235.65,819.82 2292.77,819.82 
  "/>
<polyline clip-path="url(#clip602)" style="stroke:#009af9; stroke-width:4; stroke-opacity:1; fill:none" points="
  293.338,516.6 350.464,622.13 407.591,713.223 464.718,783.384 521.845,819.82 578.971,819.82 636.098,819.82 693.225,819.82 750.351,819.82 807.478,819.82 
  864.605,819.82 921.732,819.82 978.858,819.82 1035.99,819.82 1093.11,819.819 1150.24,819.819 1207.37,819.82 1264.49,819.82 1321.62,819.82 1378.75,819.82 
  1435.87,819.82 1493,819.82 1550.13,819.82 1607.25,819.82 1664.38,819.82 1721.51,819.82 1778.63,819.82 1835.76,819.82 1892.89,819.82 1950.01,819.82 
  2007.14,819.82 2064.27,819.82 2121.39,819.82 2178.52,819.82 2235.65,819.82 2292.77,819.82 
  "/>
<polyline clip-path="url(#clip602)" style="stroke:#e26f46; stroke-width:4; stroke-opacity:1; fill:none" points="
  293.338,1023.96 350.464,982.243 407.591,942.886 464.718,911.323 521.845,880.459 578.971,851.256 636.098,819.82 693.225,819.82 750.351,819.82 807.478,819.82 
  864.605,819.82 921.732,819.82 978.858,819.82 1035.99,819.82 1093.11,819.82 1150.24,819.82 1207.37,819.82 1264.49,819.82 1321.62,819.82 1378.75,819.82 
  1435.87,819.82 1493,819.82 1550.13,819.82 1607.25,819.82 1664.38,819.82 1721.51,819.82 1778.63,819.82 1835.76,819.82 1892.89,819.82 1950.01,819.82 
  2007.14,819.82 2064.27,819.82 2121.39,819.82 2178.52,819.82 2235.65,819.82 2292.77,819.82 
  "/>
<polyline clip-path="url(#clip602)" style="stroke:#3da44d; stroke-width:4; stroke-opacity:1; fill:none" points="
  293.338,982.176 350.464,881.748 407.591,819.82 464.718,819.82 521.845,819.82 578.971,819.82 636.098,819.82 693.225,819.82 750.351,819.82 807.478,819.82 
  864.605,819.82 921.732,819.82 978.858,819.82 1035.99,819.82 1093.11,819.82 1150.24,819.82 1207.37,819.82 1264.49,819.82 1321.62,819.82 1378.75,819.82 
  1435.87,819.82 1493,819.82 1550.13,819.82 1607.25,819.82 1664.38,819.82 1721.51,819.82 1778.63,819.82 1835.76,819.82 1892.89,819.82 1950.01,819.82 
  2007.14,819.82 2064.27,819.82 2121.39,819.82 2178.52,819.82 2235.65,819.82 2292.77,819.82 
  "/>
<polyline clip-path="url(#clip602)" style="stroke:#c271d2; stroke-width:4; stroke-opacity:1; fill:none" points="
  293.338,742.018 350.464,790.265 407.591,819.82 464.718,819.82 521.845,819.82 578.971,819.819 636.098,819.82 693.225,819.82 750.351,819.82 807.478,819.82 
  864.605,819.82 921.732,819.82 978.858,819.82 1035.99,819.82 1093.11,819.819 1150.24,819.82 1207.37,819.82 1264.49,819.82 1321.62,819.82 1378.75,819.82 
  1435.87,819.82 1493,819.819 1550.13,819.82 1607.25,819.82 1664.38,819.82 1721.51,819.82 1778.63,819.82 1835.76,819.82 1892.89,819.82 1950.01,819.82 
  2007.14,819.82 2064.27,819.82 2121.39,819.82 2178.52,819.82 2235.65,819.82 2292.77,819.82 
  "/>
<polyline clip-path="url(#clip602)" style="stroke:#ac8d18; stroke-width:4; stroke-opacity:1; fill:none" points="
  293.338,1030.58 350.464,941.655 407.591,865.713 464.718,819.82 521.845,819.819 578.971,819.82 636.098,819.82 693.225,819.82 750.351,819.82 807.478,819.82 
  864.605,819.82 921.732,819.82 978.858,819.82 1035.99,819.82 1093.11,819.82 1150.24,819.82 1207.37,819.82 1264.49,819.82 1321.62,819.819 1378.75,819.82 
  1435.87,819.82 1493,819.82 1550.13,819.82 1607.25,819.82 1664.38,819.82 1721.51,819.82 1778.63,819.82 1835.76,819.82 1892.89,819.82 1950.01,819.82 
  2007.14,819.82 2064.27,819.82 2121.39,819.82 2178.52,819.82 2235.65,819.82 2292.77,819.82 
  "/>
<polyline clip-path="url(#clip602)" style="stroke:#00a9ad; stroke-width:4; stroke-opacity:1; fill:none" points="
  293.338,437.426 350.464,481.519 407.591,533.596 464.718,578.556 521.845,618.592 578.971,642.811 636.098,668.353 693.225,686.699 750.351,704.408 807.478,721.679 
  864.605,738.794 921.732,754.944 978.858,771.434 1035.99,788.069 1093.11,804.907 1150.24,819.82 1207.37,819.82 1264.49,819.82 1321.62,819.82 1378.75,819.82 
  1435.87,819.82 1493,819.82 1550.13,819.82 1607.25,819.82 1664.38,819.82 1721.51,819.82 1778.63,819.82 1835.76,819.82 1892.89,819.82 1950.01,819.82 
  2007.14,819.82 2064.27,819.82 2121.39,819.82 2178.52,819.82 2235.65,819.82 2292.77,819.82 
  "/>
<polyline clip-path="url(#clip602)" style="stroke:#ed5d92; stroke-width:4; stroke-opacity:1; fill:none" points="
  293.338,942.175 350.464,873.435 407.591,819.82 464.718,819.82 521.845,819.82 578.971,819.82 636.098,819.82 693.225,819.82 750.351,819.82 807.478,819.82 
  864.605,819.82 921.732,819.82 978.858,819.82 1035.99,819.82 1093.11,819.82 1150.24,819.82 1207.37,819.82 1264.49,819.82 1321.62,819.82 1378.75,819.82 
  1435.87,819.82 1493,819.82 1550.13,819.82 1607.25,819.82 1664.38,819.82 1721.51,819.82 1778.63,819.82 1835.76,819.82 1892.89,819.82 1950.01,819.82 
  2007.14,819.82 2064.27,819.82 2121.39,819.82 2178.52,819.82 2235.65,819.82 2292.77,819.82 
  "/>
<polyline clip-path="url(#clip602)" style="stroke:#c68125; stroke-width:4; stroke-opacity:1; fill:none" points="
  293.338,1028.2 350.464,1008.16 407.591,984.732 464.718,954.086 521.845,932.253 578.971,913.509 636.098,885.624 693.225,865.408 750.351,847.468 807.478,832.404 
  864.605,819.82 921.732,819.82 978.858,819.82 1035.99,819.82 1093.11,819.82 1150.24,819.819 1207.37,819.82 1264.49,819.82 1321.62,819.82 1378.75,819.82 
  1435.87,819.82 1493,819.82 1550.13,819.82 1607.25,819.82 1664.38,819.82 1721.51,819.82 1778.63,819.82 1835.76,819.82 1892.89,819.82 1950.01,819.82 
  2007.14,819.82 2064.27,819.82 2121.39,819.82 2178.52,819.82 2235.65,819.82 2292.77,819.82 
  "/>
<polyline clip-path="url(#clip602)" style="stroke:#00a98d; stroke-width:4; stroke-opacity:1; fill:none" points="
  293.338,418.942 350.464,501.818 407.591,560.395 464.718,618.738 521.845,671.028 578.971,715.407 636.098,753.804 693.225,783.946 750.351,808.335 807.478,819.82 
  864.605,819.82 921.732,819.82 978.858,819.82 1035.99,819.82 1093.11,819.82 1150.24,819.82 1207.37,819.82 1264.49,819.82 1321.62,819.82 1378.75,819.82 
  1435.87,819.82 1493,819.82 1550.13,819.82 1607.25,819.82 1664.38,819.82 1721.51,819.82 1778.63,819.82 1835.76,819.82 1892.89,819.82 1950.01,819.82 
  2007.14,819.82 2064.27,819.82 2121.39,819.82 2178.52,819.82 2235.65,819.82 2292.77,819.82 
  "/>
<polyline clip-path="url(#clip602)" style="stroke:#8e971d; stroke-width:4; stroke-opacity:1; fill:none" points="
  293.338,876.72 350.464,845.687 407.591,819.82 464.718,819.82 521.845,819.82 578.971,819.82 636.098,819.82 693.225,819.82 750.351,819.82 807.478,819.82 
  864.605,819.82 921.732,819.82 978.858,819.82 1035.99,819.82 1093.11,819.82 1150.24,819.82 1207.37,819.82 1264.49,819.82 1321.62,819.82 1378.75,819.82 
  1435.87,819.82 1493,819.82 1550.13,819.82 1607.25,819.819 1664.38,819.82 1721.51,819.82 1778.63,819.82 1835.76,819.82 1892.89,819.82 1950.01,819.82 
  2007.14,819.82 2064.27,819.82 2121.39,819.82 2178.52,819.82 2235.65,819.82 2292.77,819.82 
  "/>
<polyline clip-path="url(#clip602)" style="stroke:#00a8cb; stroke-width:4; stroke-opacity:1; fill:none" points="
  293.338,1042.79 350.464,991.972 407.591,930.811 464.718,871.08 521.845,819.82 578.971,819.82 636.098,819.82 693.225,819.82 750.351,819.82 807.478,819.82 
  864.605,819.82 921.732,819.82 978.858,819.82 1035.99,819.819 1093.11,819.82 1150.24,819.82 1207.37,819.82 1264.49,819.82 1321.62,819.82 1378.75,819.82 
  1435.87,819.82 1493,819.82 1550.13,819.82 1607.25,819.82 1664.38,819.82 1721.51,819.82 1778.63,819.82 1835.76,819.82 1892.89,819.82 1950.01,819.82 
  2007.14,819.82 2064.27,819.82 2121.39,819.82 2178.52,819.82 2235.65,819.82 2292.77,819.82 
  "/>
<polyline clip-path="url(#clip602)" style="stroke:#9b7fe8; stroke-width:4; stroke-opacity:1; fill:none" points="
  293.338,680.883 350.464,707.541 407.591,740.051 464.718,764.036 521.845,780.854 578.971,793.212 636.098,798.373 693.225,802.969 750.351,817.296 807.478,819.82 
  864.605,819.82 921.732,819.82 978.858,819.82 1035.99,819.82 1093.11,819.82 1150.24,819.82 1207.37,819.82 1264.49,819.82 1321.62,819.82 1378.75,819.82 
  1435.87,819.82 1493,819.82 1550.13,819.82 1607.25,819.82 1664.38,819.82 1721.51,819.82 1778.63,819.82 1835.76,819.82 1892.89,819.82 1950.01,819.82 
  2007.14,819.82 2064.27,819.82 2121.39,819.82 2178.52,819.82 2235.65,819.82 2292.77,819.82 
  "/>
<polyline clip-path="url(#clip602)" style="stroke:#608cf6; stroke-width:4; stroke-opacity:1; fill:none" points="
  293.338,559.862 350.464,630.666 407.591,686.685 464.718,720.651 521.845,754.572 578.971,788.607 636.098,819.82 693.225,819.82 750.351,819.82 807.478,819.82 
  864.605,819.82 921.732,819.82 978.858,819.82 1035.99,819.82 1093.11,819.82 1150.24,819.82 1207.37,819.82 1264.49,819.82 1321.62,819.82 1378.75,819.82 
  1435.87,819.82 1493,819.82 1550.13,819.82 1607.25,819.82 1664.38,819.82 1721.51,819.82 1778.63,819.82 1835.76,819.82 1892.89,819.82 1950.01,819.82 
  2007.14,819.82 2064.27,819.82 2121.39,819.82 2178.52,819.82 2235.65,819.82 2292.77,819.82 
  "/>
<polyline clip-path="url(#clip602)" style="stroke:#f05f73; stroke-width:4; stroke-opacity:1; fill:none" points="
  293.338,554.489 350.464,643.012 407.591,721.604 464.718,748.301 521.845,777.045 578.971,792.199 636.098,804.006 693.225,815.672 750.351,819.82 807.478,819.82 
  864.605,819.82 921.732,819.82 978.858,819.82 1035.99,819.82 1093.11,819.819 1150.24,819.82 1207.37,819.82 1264.49,819.82 1321.62,819.82 1378.75,819.82 
  1435.87,819.82 1493,819.82 1550.13,819.82 1607.25,819.82 1664.38,819.82 1721.51,819.82 1778.63,819.82 1835.76,819.82 1892.89,819.82 1950.01,819.82 
  2007.14,819.82 2064.27,819.82 2121.39,819.82 2178.52,819.82 2235.65,819.82 2292.77,819.82 
  "/>
<polyline clip-path="url(#clip602)" style="stroke:#dd64b5; stroke-width:4; stroke-opacity:1; fill:none" points="
  293.338,1117.36 350.464,1091.17 407.591,1077.76 464.718,1063.88 521.845,1037.42 578.971,997.5 636.098,957.721 693.225,929.8 750.351,910.127 807.478,892.418 
  864.605,880.271 921.732,868.964 978.858,858.404 1035.99,845.834 1093.11,835.081 1150.24,826.086 1207.37,819.82 1264.49,819.82 1321.62,819.82 1378.75,819.82 
  1435.87,819.82 1493,819.82 1550.13,819.82 1607.25,819.82 1664.38,819.82 1721.51,819.82 1778.63,819.82 1835.76,819.82 1892.89,819.82 1950.01,819.82 
  2007.14,819.82 2064.27,819.82 2121.39,819.82 2178.52,819.82 2235.65,819.82 2292.77,819.82 
  "/>
<polyline clip-path="url(#clip602)" style="stroke:#6b9e32; stroke-width:4; stroke-opacity:1; fill:none" points="
  293.338,755.943 350.464,819.82 407.591,819.82 464.718,819.82 521.845,819.82 578.971,819.82 636.098,819.82 693.225,819.82 750.351,819.82 807.478,819.82 
  864.605,819.82 921.732,819.82 978.858,819.82 1035.99,819.82 1093.11,819.819 1150.24,819.82 1207.37,819.82 1264.49,819.82 1321.62,819.82 1378.75,819.82 
  1435.87,819.82 1493,819.82 1550.13,819.82 1607.25,819.82 1664.38,819.82 1721.51,819.82 1778.63,819.82 1835.76,819.82 1892.89,819.82 1950.01,819.82 
  2007.14,819.82 2064.27,819.82 2121.39,819.82 2178.52,819.82 2235.65,819.82 2292.77,819.82 
  "/>
<polyline clip-path="url(#clip602)" style="stroke:#009af9; stroke-width:4; stroke-opacity:1; fill:none" points="
  293.338,841.181 350.464,819.82 407.591,819.82 464.718,819.82 521.845,819.82 578.971,819.82 636.098,819.82 693.225,819.82 750.351,819.82 807.478,819.82 
  864.605,819.82 921.732,819.82 978.858,819.82 1035.99,819.82 1093.11,819.82 1150.24,819.82 1207.37,819.82 1264.49,819.82 1321.62,819.82 1378.75,819.82 
  1435.87,819.82 1493,819.82 1550.13,819.82 1607.25,819.82 1664.38,819.82 1721.51,819.82 1778.63,819.82 1835.76,819.82 1892.89,819.82 1950.01,819.82 
  2007.14,819.82 2064.27,819.82 2121.39,819.82 2178.52,819.82 2235.65,819.82 2292.77,819.82 
  "/>
<polyline clip-path="url(#clip602)" style="stroke:#e26f46; stroke-width:4; stroke-opacity:1; fill:none" points="
  293.338,628.955 350.464,671.57 407.591,709.985 464.718,734.825 521.845,759.338 578.971,785.723 636.098,807.259 693.225,819.82 750.351,819.82 807.478,819.82 
  864.605,819.82 921.732,819.82 978.858,819.82 1035.99,819.82 1093.11,819.82 1150.24,819.82 1207.37,819.82 1264.49,819.82 1321.62,819.82 1378.75,819.82 
  1435.87,819.82 1493,819.82 1550.13,819.82 1607.25,819.82 1664.38,819.82 1721.51,819.82 1778.63,819.82 1835.76,819.82 1892.89,819.819 1950.01,819.82 
  2007.14,819.82 2064.27,819.82 2121.39,819.82 2178.52,819.82 2235.65,819.82 2292.77,819.82 
  "/>
<polyline clip-path="url(#clip602)" style="stroke:#3da44d; stroke-width:4; stroke-opacity:1; fill:none" points="
  293.338,756.517 350.464,759.344 407.591,774.432 464.718,781.192 521.845,778.781 578.971,776.61 636.098,772.39 693.225,767.565 750.351,771.933 807.478,781.284 
  864.605,794.463 921.732,814.817 978.858,819.82 1035.99,819.82 1093.11,819.82 1150.24,819.82 1207.37,819.82 1264.49,819.82 1321.62,819.82 1378.75,819.82 
  1435.87,819.82 1493,819.82 1550.13,819.82 1607.25,819.819 1664.38,819.82 1721.51,819.82 1778.63,819.82 1835.76,819.82 1892.89,819.82 1950.01,819.82 
  2007.14,819.82 2064.27,819.82 2121.39,819.82 2178.52,819.82 2235.65,819.82 2292.77,819.82 
  "/>
<polyline clip-path="url(#clip602)" style="stroke:#c271d2; stroke-width:4; stroke-opacity:1; fill:none" points="
  293.338,748.61 350.464,766.695 407.591,784.001 464.718,808.721 521.845,819.82 578.971,819.82 636.098,819.82 693.225,819.82 750.351,819.82 807.478,819.82 
  864.605,819.82 921.732,819.82 978.858,819.82 1035.99,819.82 1093.11,819.82 1150.24,819.82 1207.37,819.82 1264.49,819.82 1321.62,819.82 1378.75,819.82 
  1435.87,819.82 1493,819.82 1550.13,819.82 1607.25,819.82 1664.38,819.82 1721.51,819.82 1778.63,819.82 1835.76,819.82 1892.89,819.82 1950.01,819.82 
  2007.14,819.82 2064.27,819.82 2121.39,819.82 2178.52,819.82 2235.65,819.82 2292.77,819.82 
  "/>
<polyline clip-path="url(#clip602)" style="stroke:#ac8d18; stroke-width:4; stroke-opacity:1; fill:none" points="
  293.338,1016.29 350.464,943.85 407.591,889.324 464.718,849.247 521.845,819.82 578.971,819.82 636.098,819.82 693.225,819.82 750.351,819.82 807.478,819.82 
  864.605,819.82 921.732,819.82 978.858,819.82 1035.99,819.82 1093.11,819.82 1150.24,819.82 1207.37,819.82 1264.49,819.82 1321.62,819.82 1378.75,819.82 
  1435.87,819.82 1493,819.82 1550.13,819.82 1607.25,819.82 1664.38,819.82 1721.51,819.82 1778.63,819.82 1835.76,819.82 1892.89,819.82 1950.01,819.82 
  2007.14,819.82 2064.27,819.82 2121.39,819.82 2178.52,819.82 2235.65,819.82 2292.77,819.82 
  "/>
<polyline clip-path="url(#clip602)" style="stroke:#00a9ad; stroke-width:4; stroke-opacity:1; fill:none" points="
  293.338,1339.1 350.464,1219.34 407.591,1119.81 464.718,1065.52 521.845,1012.69 578.971,964.127 636.098,926.158 693.225,897.758 750.351,873.407 807.478,851.164 
  864.605,835.697 921.732,819.82 978.858,819.82 1035.99,819.82 1093.11,819.82 1150.24,819.82 1207.37,819.82 1264.49,819.82 1321.62,819.82 1378.75,819.82 
  1435.87,819.82 1493,819.82 1550.13,819.82 1607.25,819.82 1664.38,819.82 1721.51,819.82 1778.63,819.82 1835.76,819.82 1892.89,819.82 1950.01,819.82 
  2007.14,819.82 2064.27,819.82 2121.39,819.82 2178.52,819.82 2235.65,819.82 2292.77,819.82 
  "/>
<polyline clip-path="url(#clip602)" style="stroke:#ed5d92; stroke-width:4; stroke-opacity:1; fill:none" points="
  293.338,1096.91 350.464,946.9 407.591,827.744 464.718,819.82 521.845,819.82 578.971,819.82 636.098,819.82 693.225,819.82 750.351,819.82 807.478,819.82 
  864.605,819.82 921.732,819.82 978.858,819.82 1035.99,819.82 1093.11,819.819 1150.24,819.82 1207.37,819.82 1264.49,819.82 1321.62,819.82 1378.75,819.82 
  1435.87,819.82 1493,819.82 1550.13,819.82 1607.25,819.82 1664.38,819.82 1721.51,819.82 1778.63,819.82 1835.76,819.82 1892.89,819.82 1950.01,819.82 
  2007.14,819.82 2064.27,819.82 2121.39,819.82 2178.52,819.82 2235.65,819.82 2292.77,819.82 
  "/>
<polyline clip-path="url(#clip602)" style="stroke:#c68125; stroke-width:4; stroke-opacity:1; fill:none" points="
  293.338,1091.68 350.464,1051.43 407.591,1000.08 464.718,939.867 521.845,889.349 578.971,849.605 636.098,819.82 693.225,819.82 750.351,819.82 807.478,819.82 
  864.605,819.82 921.732,819.82 978.858,819.82 1035.99,819.82 1093.11,819.82 1150.24,819.82 1207.37,819.82 1264.49,819.82 1321.62,819.82 1378.75,819.82 
  1435.87,819.82 1493,819.82 1550.13,819.82 1607.25,819.82 1664.38,819.82 1721.51,819.82 1778.63,819.82 1835.76,819.82 1892.89,819.82 1950.01,819.82 
  2007.14,819.82 2064.27,819.82 2121.39,819.82 2178.52,819.82 2235.65,819.82 2292.77,819.82 
  "/>
<polyline clip-path="url(#clip602)" style="stroke:#00a98d; stroke-width:4; stroke-opacity:1; fill:none" points="
  293.338,1292.22 350.464,1197.4 407.591,1105.85 464.718,1043.36 521.845,984.577 578.971,939.612 636.098,900.303 693.225,871.034 750.351,846.649 807.478,822.143 
  864.605,819.82 921.732,819.82 978.858,819.82 1035.99,819.82 1093.11,819.82 1150.24,819.82 1207.37,819.82 1264.49,819.82 1321.62,819.82 1378.75,819.82 
  1435.87,819.819 1493,819.82 1550.13,819.82 1607.25,819.82 1664.38,819.82 1721.51,819.82 1778.63,819.82 1835.76,819.82 1892.89,819.82 1950.01,819.82 
  2007.14,819.82 2064.27,819.82 2121.39,819.82 2178.52,819.82 2235.65,819.82 2292.77,819.82 
  "/>
<polyline clip-path="url(#clip602)" style="stroke:#8e971d; stroke-width:4; stroke-opacity:1; fill:none" points="
  293.338,412.526 350.464,524.097 407.591,612.97 464.718,639.053 521.845,664.237 578.971,686.468 636.098,707.882 693.225,727.267 750.351,744.222 807.478,758.869 
  864.605,769.326 921.732,781.016 978.858,796.406 1035.99,812.544 1093.11,819.82 1150.24,819.82 1207.37,819.82 1264.49,819.82 1321.62,819.82 1378.75,819.82 
  1435.87,819.82 1493,819.82 1550.13,819.82 1607.25,819.82 1664.38,819.82 1721.51,819.82 1778.63,819.82 1835.76,819.82 1892.89,819.82 1950.01,819.82 
  2007.14,819.82 2064.27,819.82 2121.39,819.82 2178.52,819.82 2235.65,819.82 2292.77,819.82 
  "/>
<polyline clip-path="url(#clip602)" style="stroke:#00a8cb; stroke-width:4; stroke-opacity:1; fill:none" points="
  293.338,708.873 350.464,786.538 407.591,819.82 464.718,819.82 521.845,819.82 578.971,819.82 636.098,819.82 693.225,819.82 750.351,819.82 807.478,819.82 
  864.605,819.82 921.732,819.82 978.858,819.82 1035.99,819.82 1093.11,819.82 1150.24,819.82 1207.37,819.82 1264.49,819.82 1321.62,819.82 1378.75,819.82 
  1435.87,819.82 1493,819.82 1550.13,819.82 1607.25,819.82 1664.38,819.82 1721.51,819.82 1778.63,819.82 1835.76,819.82 1892.89,819.82 1950.01,819.82 
  2007.14,819.82 2064.27,819.82 2121.39,819.82 2178.52,819.82 2235.65,819.82 2292.77,819.82 
  "/>
<polyline clip-path="url(#clip602)" style="stroke:#9b7fe8; stroke-width:4; stroke-opacity:1; fill:none" points="
  293.338,318.722 350.464,363.19 407.591,413.611 464.718,455.756 521.845,495.91 578.971,517.277 636.098,534.32 693.225,548.186 750.351,569.194 807.478,590.526 
  864.605,608.125 921.732,624.516 978.858,640.46 1035.99,656.406 1093.11,673.811 1150.24,692.816 1207.37,714.572 1264.49,731.299 1321.62,746.319 1378.75,761.338 
  1435.87,776.357 1493,788.896 1550.13,800.974 1607.25,813.051 1664.38,819.82 1721.51,819.82 1778.63,819.82 1835.76,819.82 1892.89,819.82 1950.01,819.82 
  2007.14,819.82 2064.27,819.82 2121.39,819.82 2178.52,819.82 2235.65,819.82 2292.77,819.82 
  "/>
<polyline clip-path="url(#clip602)" style="stroke:#608cf6; stroke-width:4; stroke-opacity:1; fill:none" points="
  293.338,781.901 350.464,758.403 407.591,756.365 464.718,773.904 521.845,798.849 578.971,814.707 636.098,819.82 693.225,819.82 750.351,819.82 807.478,819.82 
  864.605,819.82 921.732,819.82 978.858,819.82 1035.99,819.82 1093.11,819.82 1150.24,819.82 1207.37,819.82 1264.49,819.82 1321.62,819.82 1378.75,819.82 
  1435.87,819.82 1493,819.82 1550.13,819.82 1607.25,819.82 1664.38,819.82 1721.51,819.82 1778.63,819.82 1835.76,819.82 1892.89,819.82 1950.01,819.82 
  2007.14,819.82 2064.27,819.82 2121.39,819.82 2178.52,819.82 2235.65,819.82 2292.77,819.82 
  "/>
<polyline clip-path="url(#clip602)" style="stroke:#f05f73; stroke-width:4; stroke-opacity:1; fill:none" points="
  293.338,1163.48 350.464,1094.25 407.591,1042.45 464.718,1000.74 521.845,969.036 578.971,936.382 636.098,905.212 693.225,872.725 750.351,843.231 807.478,819.82 
  864.605,819.82 921.732,819.82 978.858,819.82 1035.99,819.82 1093.11,819.82 1150.24,819.82 1207.37,819.82 1264.49,819.82 1321.62,819.82 1378.75,819.82 
  1435.87,819.82 1493,819.82 1550.13,819.82 1607.25,819.82 1664.38,819.82 1721.51,819.82 1778.63,819.82 1835.76,819.82 1892.89,819.82 1950.01,819.82 
  2007.14,819.82 2064.27,819.82 2121.39,819.82 2178.52,819.82 2235.65,819.82 2292.77,819.82 
  "/>
<polyline clip-path="url(#clip602)" style="stroke:#dd64b5; stroke-width:4; stroke-opacity:1; fill:none" points="
  293.338,780.723 350.464,762.859 407.591,744.368 464.718,749.876 521.845,757.894 578.971,768.06 636.098,778.659 693.225,790.837 750.351,805.492 807.478,819.82 
  864.605,819.82 921.732,819.82 978.858,819.82 1035.99,819.82 1093.11,819.82 1150.24,819.82 1207.37,819.82 1264.49,819.82 1321.62,819.82 1378.75,819.82 
  1435.87,819.82 1493,819.819 1550.13,819.82 1607.25,819.82 1664.38,819.82 1721.51,819.82 1778.63,819.82 1835.76,819.82 1892.89,819.82 1950.01,819.82 
  2007.14,819.82 2064.27,819.82 2121.39,819.82 2178.52,819.82 2235.65,819.82 2292.77,819.82 
  "/>
<polyline clip-path="url(#clip602)" style="stroke:#6b9e32; stroke-width:4; stroke-opacity:1; fill:none" points="
  293.338,823.176 350.464,891.355 407.591,937.304 464.718,951.243 521.845,958.033 578.971,950.467 636.098,936.834 693.225,925.858 750.351,911.372 807.478,898.911 
  864.605,887.376 921.732,875.903 978.858,864.984 1035.99,853.461 1093.11,843.072 1150.24,833.618 1207.37,824.144 1264.49,819.82 1321.62,819.82 1378.75,819.82 
  1435.87,819.82 1493,819.819 1550.13,819.82 1607.25,819.82 1664.38,819.82 1721.51,819.82 1778.63,819.82 1835.76,819.82 1892.89,819.82 1950.01,819.82 
  2007.14,819.82 2064.27,819.82 2121.39,819.82 2178.52,819.82 2235.65,819.82 2292.77,819.819 
  "/>
<polyline clip-path="url(#clip602)" style="stroke:#009af9; stroke-width:4; stroke-opacity:1; fill:none" points="
  293.338,351.045 350.464,468.415 407.591,563.239 464.718,621.206 521.845,664.084 578.971,697.276 636.098,723.291 693.225,745.174 750.351,764.377 807.478,785.002 
  864.605,800.51 921.732,813.404 978.858,819.82 1035.99,819.82 1093.11,819.82 1150.24,819.82 1207.37,819.82 1264.49,819.82 1321.62,819.82 1378.75,819.82 
  1435.87,819.82 1493,819.819 1550.13,819.82 1607.25,819.82 1664.38,819.82 1721.51,819.82 1778.63,819.82 1835.76,819.82 1892.89,819.82 1950.01,819.82 
  2007.14,819.82 2064.27,819.82 2121.39,819.82 2178.52,819.82 2235.65,819.82 2292.77,819.82 
  "/>
<polyline clip-path="url(#clip602)" style="stroke:#e26f46; stroke-width:4; stroke-opacity:1; fill:none" points="
  293.338,1155.09 350.464,1054.52 407.591,964.371 464.718,909.426 521.845,857.731 578.971,819.82 636.098,819.82 693.225,819.82 750.351,819.82 807.478,819.82 
  864.605,819.82 921.732,819.82 978.858,819.82 1035.99,819.82 1093.11,819.819 1150.24,819.82 1207.37,819.82 1264.49,819.82 1321.62,819.82 1378.75,819.82 
  1435.87,819.82 1493,819.82 1550.13,819.82 1607.25,819.82 1664.38,819.82 1721.51,819.82 1778.63,819.82 1835.76,819.82 1892.89,819.82 1950.01,819.82 
  2007.14,819.82 2064.27,819.82 2121.39,819.82 2178.52,819.82 2235.65,819.82 2292.77,819.82 
  "/>
</svg>
